<?xml version="1.0" encoding="UTF-8" standalone="no"?>
<svg
   xmlns:dc="http://purl.org/dc/elements/1.1/"
   xmlns:cc="http://creativecommons.org/ns#"
   xmlns:rdf="http://www.w3.org/1999/02/22-rdf-syntax-ns#"
   xmlns:svg="http://www.w3.org/2000/svg"
   xmlns="http://www.w3.org/2000/svg"
   xmlns:sodipodi="http://sodipodi.sourceforge.net/DTD/sodipodi-0.dtd"
   xmlns:inkscape="http://www.inkscape.org/namespaces/inkscape"
   width="3in"
   height="2in"
   viewBox="0 0 3 2"
   version="1.1"
   id="SVGRoot"
   sodipodi:docname="StoneGate.3x2x1.svg"
   inkscape:version="1.0.2 (e86c8708, 2021-01-15)">
  <defs
     id="defs2061" />
  <sodipodi:namedview
     id="base"
     pagecolor="#ffffff"
     bordercolor="#666666"
     borderopacity="1.0"
     inkscape:pageopacity="0.0"
     inkscape:pageshadow="2"
     inkscape:zoom="1.4955124"
     inkscape:cx="143.48067"
     inkscape:cy="156.68322"
     inkscape:document-units="in"
     inkscape:current-layer="layer1"
     inkscape:document-rotation="0"
     showgrid="false"
     inkscape:window-width="1248"
     inkscape:window-height="855"
     inkscape:window-x="0"
     inkscape:window-y="23"
     inkscape:window-maximized="0" />
  <metadata
     id="metadata2064">
    <rdf:RDF>
      <cc:Work
         rdf:about="">
        <dc:format>image/svg+xml</dc:format>
        <dc:type
           rdf:resource="http://purl.org/dc/dcmitype/StillImage" />
        <dc:title></dc:title>
      </cc:Work>
    </rdf:RDF>
  </metadata>
  <g
     inkscape:label="Ebene 1"
     inkscape:groupmode="layer"
     id="layer1">
    <g
       id="g915"
       transform="matrix(1.0735449,0,0,0.96635359,-2.8836091,-2.7753463)">
      <g
         id="g886">
        <path
           style="fill:#ffffff;fill-opacity:1;stroke:none;stroke-width:0.0104167px;stroke-linecap:butt;stroke-linejoin:miter;stroke-opacity:1"
           d="M 2.7705832,3.1153668 2.7828969,3.6817972 2.7090147,4.8639127 3.2138765,4.8515989 3.4724643,4.6545797 3.5586601,3.7187383 4.7161483,3.6941109 4.728462,4.8023441 5.2086964,4.7530893 5.4426568,4.3959919 5.3195198,3.521719 5.3810882,2.9183476 2.9922299,3.0045436 Z"
           id="path883" />
      </g>
      <g
         id="g1088"
         transform="translate(-0.35709728,-1.0343507)"
         style="fill:#000000;fill-opacity:1;stroke:none;stroke-width:0.02;stroke-miterlimit:4;stroke-dasharray:none;stroke-opacity:1">
        <path
           style="fill:#000000;fill-opacity:1;stroke:none;stroke-width:0.02;stroke-miterlimit:4;stroke-dasharray:none;stroke-opacity:1"
           id="path854"
           d="m 3.1021173,4.1388285 c -0.00928,0.065319 -0.01527,0.1311047 -0.019728,0.1969758 -0.00404,0.072999 -0.0055,0.1461354 -0.00443,0.219246 5.609e-4,0.054605 0.00572,0.1089097 0.012091,0.1630354 0.00231,0.015056 0.00371,0.030363 0.0076,0.045082 0.00702,0.024887 0.040074,0.014323 0.033057,-0.010566 v 0 c -0.00411,-0.01242 -0.00352,-0.026383 -0.00641,-0.039088 -0.00622,-0.052799 -0.011288,-0.1057689 -0.011827,-0.159039 -0.00107,-0.072038 3.874e-4,-0.1441016 0.00434,-0.2160321 0.00438,-0.064882 0.010281,-0.1296797 0.019415,-0.1940195 0.00372,-0.025683 -0.030397,-0.031277 -0.034112,-0.00559 z" />
        <path
           style="fill:#000000;fill-opacity:1;stroke:none;stroke-width:0.02;stroke-miterlimit:4;stroke-dasharray:none;stroke-opacity:1"
           id="path856"
           d="m 3.106646,4.1255667 c 0.059672,0.012156 0.1199576,0.019768 0.1804531,0.025243 0.073835,0.0053 0.1476131,0.011246 0.2213218,0.018246 0.070163,0.00695 0.1405858,0.00968 0.211009,0.011171 0.063586,0.00137 0.1271664,0.00138 0.1906745,-0.00239 0.059638,-0.00559 0.1187828,-0.015407 0.1784183,-0.021165 0.060423,-0.00502 0.1210523,-0.00554 0.1816205,-0.00632 0.059623,-1.179e-4 0.1190648,-0.00483 0.1784792,-0.00955 0.071124,-0.00528 0.1422189,-0.010754 0.2131804,-0.018138 0.07444,-0.00864 0.148866,-0.017419 0.2233193,-0.025929 0.071764,-0.00774 0.1431922,-0.018187 0.2143559,-0.030643 0.061416,-0.011534 0.1230229,-0.021639 0.1850588,-0.028477 0.056448,-0.00557 0.1131514,-0.00696 0.1698028,-0.00789 0.04094,4.165e-4 0.082249,0.00325 0.1210313,0.018029 0.012708,0.00595 0.025271,0.012947 0.027767,0.028408 0.00216,0.040889 -0.00695,0.081773 -0.013538,0.1218405 -0.01432,0.080545 -0.024824,0.1617048 -0.033491,0.2431316 -0.00669,0.070429 -0.015679,0.1405645 -0.025863,0.2105067 -0.00275,0.017894 -0.00566,0.03576 -0.00871,0.053597 -0.00101,0.00588 -0.00166,0.012519 -0.00352,0.018231 0.00118,-0.00233 0.00237,-0.00465 0.00355,-0.00697 -0.017836,0.017736 0.00572,0.044594 0.023558,0.026858 v 0 c 0.00199,-0.00312 0.00397,-0.00624 0.00596,-0.00937 0.00661,-0.025009 0.00817,-0.051366 0.013269,-0.076715 0.010253,-0.070439 0.019309,-0.1410716 0.026051,-0.2120002 0.00858,-0.08069 0.018995,-0.1611156 0.033193,-0.2409325 0.00743,-0.045203 0.018148,-0.091699 0.012857,-0.1377682 -0.00129,-0.00445 -0.00216,-0.00906 -0.00388,-0.013341 -0.0082,-0.020377 -0.027782,-0.031621 -0.045749,-0.04014 -0.042788,-0.015805 -0.08788,-0.020072 -0.1330203,-0.020108 -0.05766,9.546e-4 -0.115374,0.00239 -0.1728259,0.00808 -0.062717,0.00693 -0.1250084,0.017095 -0.1871,0.028768 -0.070527,0.01235 -0.1413171,0.022699 -0.2124406,0.030367 -0.074345,0.0085 -0.1486627,0.017258 -0.2229936,0.025894 -0.070697,0.00736 -0.1415296,0.012796 -0.2123878,0.018065 -0.058699,0.00466 -0.1174247,0.00937 -0.1763303,0.00945 -0.061471,7.896e-4 -0.1230038,0.00134 -0.1843247,0.00647 -0.059238,0.00573 -0.1179991,0.015371 -0.1772251,0.021072 -0.062637,0.00374 -0.1253485,0.00367 -0.1880626,0.00234 -0.069628,-0.00147 -0.1392557,-0.00416 -0.208627,-0.011032 -0.073758,-0.007 -0.147585,-0.012964 -0.221469,-0.018259 -0.059495,-0.00537 -0.1187784,-0.012869 -0.1774598,-0.024832 -0.024044,-0.00445 -0.029957,0.031754 -0.00591,0.036206 z" />
        <path
           style="fill:#000000;fill-opacity:1;stroke:none;stroke-width:0.02;stroke-miterlimit:4;stroke-dasharray:none;stroke-opacity:1"
           id="path858"
           d="m 3.1484171,4.7301179 c 0.062799,0.026607 0.1284094,0.042779 0.1950935,0.053164 0.066613,0.00916 0.133846,0.00939 0.2008873,0.00935 0.061457,-1.572e-4 0.1229078,-0.00152 0.1843512,1.964e-4 0.077629,0.00385 0.1551159,0.010443 0.232605,0.016633 0.077464,0.0067 0.1551414,0.00935 0.2328293,0.010455 0.073017,0.00106 0.1459864,-0.00217 0.2189579,-0.00429 0.073223,-0.00168 0.1464261,-0.00399 0.2196172,-0.00683 0.061721,-0.00177 0.1233159,-0.00604 0.1848287,-0.011549 0.053531,-0.00471 0.1067562,-0.012294 0.1598921,-0.020509 0.054304,-0.00716 0.1082899,-0.016515 0.1621482,-0.02674 0.046545,-0.00884 0.09309,-0.01766 0.1393949,-0.027843 0.038847,-0.00918 0.077763,-0.018046 0.1162399,-0.028878 0.030414,-0.00856 0.059831,-0.020358 0.088842,-0.03319 0.013514,-0.00668 0.027527,-0.011902 0.04171,-0.01665 8.892e-4,-3.143e-4 0.00177,-6.129e-4 0.00266,-9.153e-4 0.023218,-0.008 0.012586,-0.042966 -0.010632,-0.034962 v 0 c -8.007e-4,2.75e-4 -0.00159,5.5e-4 -0.00239,8.21e-4 -0.015159,0.00508 -0.030139,0.010677 -0.044596,0.01777 C 5.4432833,4.638352 5.4153393,4.649607 5.3864293,4.65775 5.3485673,4.668426 5.3102603,4.677104 5.2720352,4.686166 5.2260392,4.696285 5.1797992,4.705034 5.1335639,4.71382 5.0800719,4.723977 5.0264517,4.73326 4.9725152,4.740371 4.9200642,4.748481 4.8675289,4.755984 4.8146885,4.760627 c -0.060968,0.00547 -0.1220171,0.00969 -0.1831904,0.011444 -0.073086,0.00284 -0.1461823,0.00514 -0.2193,0.00681 -0.072506,0.0021 -0.1450093,0.00533 -0.2175606,0.00428 C 4.1176605,4.782091 4.0406914,4.779461 3.9639346,4.772817 3.8858836,4.766587 3.8078351,4.759942 3.7296413,4.756093 3.6678933,4.754403 3.6061394,4.7557001 3.5443776,4.7558965 c -0.065371,0 -0.1309298,-1.178e-4 -0.1958919,-0.00897 -0.063993,-0.00989 -0.1269339,-0.02541 -0.1872022,-0.050898 -0.022646,-0.00969 -0.035514,0.024412 -0.012868,0.034099 z" />
        <path
           style="fill:#000000;fill-opacity:1;stroke:none;stroke-width:0.02;stroke-miterlimit:4;stroke-dasharray:none;stroke-opacity:1"
           id="path860"
           d="m 3.1353574,4.1305319 c 0.049379,-0.01313 0.097917,-0.02935 0.1461955,-0.046417 0.034848,-0.01363 0.070737,-0.022909 0.1074701,-0.028207 0.013189,-0.00174 0.026451,-0.0026 0.039723,-0.00315 0.024386,-0.00102 0.023037,-0.037737 -0.00135,-0.03672 v 0 c -0.014379,6.011e-4 -0.028747,0.00155 -0.043034,0.00346 -0.038833,0.00566 -0.076828,0.015357 -0.1136857,0.029744 -0.047565,0.016817 -0.095383,0.032811 -0.1440356,0.045736 -0.023614,0.00656 -0.014898,0.04212 0.00872,0.035557 z" />
        <path
           style="fill:#000000;fill-opacity:1;stroke:none;stroke-width:0.02;stroke-miterlimit:4;stroke-dasharray:none;stroke-opacity:1"
           id="path862"
           d="m 3.4381667,4.0513652 c 0.063627,0.012528 0.1281342,0.017463 0.1926481,0.021073 0.072658,0.00364 0.1454044,0.0018 0.218076,-1.572e-4 0.053607,-0.00143 0.1072167,-0.00269 0.1608101,-0.00462 0.046901,-0.00255 0.093856,-0.00354 0.1407504,-0.0062 0.052295,-0.00316 0.104203,-0.010823 0.1560589,-0.018379 0.056581,-0.00851 0.1132473,-0.016363 0.1700123,-0.023343 0.05776,-0.00737 0.1158699,-0.010369 0.1738842,-0.014411 0.054608,-0.00346 0.1087943,-0.011362 0.1628031,-0.020326 0.046789,-0.00782 0.093625,-0.01545 0.1407235,-0.020836 0.056904,-0.00519 0.1138912,-0.00936 0.1708812,-0.013333 0.065981,-0.00458 0.1321182,-0.0053 0.1982145,-0.00591 0.064187,-4.282e-4 0.1283762,-3.536e-4 0.1925647,-3.143e-4 0.037763,0 0.075527,1.179e-4 0.113289,1.179e-4 0.025484,1.178e-4 0.050964,1.178e-4 0.076445,-3.143e-4 0.014231,-3.143e-4 0.028456,-8.525e-4 0.042682,-0.00134 0.024393,-8.407e-4 0.023277,-0.03757 -0.00111,-0.036729 v 0 c -0.014015,4.793e-4 -0.028031,0.00101 -0.04205,0.00133 -0.025315,3.928e-4 -0.050629,3.928e-4 -0.075945,3.143e-4 -0.037763,0 -0.075525,0 -0.1132882,-1.179e-4 -0.064295,0 -0.1285891,-1.179e-4 -0.1928831,3.536e-4 -0.066747,6.246e-4 -0.1335357,0.00136 -0.2001678,0.00599 -0.05747,0.00401 -0.1149387,0.0082 -0.1723213,0.013466 -0.047637,0.00547 -0.095019,0.013128 -0.1423446,0.021064 -0.052994,0.0088 -0.1061578,0.016577 -0.1597412,0.019965 -0.058584,0.00408 -0.1172638,0.00713 -0.1755906,0.014576 -0.057005,0.00701 -0.1139111,0.014892 -0.170731,0.023441 -0.050911,0.00742 -0.1018708,0.014972 -0.1532124,0.018091 -0.046671,0.00265 -0.093402,0.00361 -0.1400786,0.00616 -0.053495,0.00192 -0.1070059,0.00318 -0.1605137,0.00461 -0.071781,0.00192 -0.1436353,0.00376 -0.2154022,1.964e-4 -0.063254,-0.00353 -0.126503,-0.00833 -0.1888836,-0.020642 -0.024085,-0.0042 -0.029659,0.03207 -0.00557,0.036266 z" />
        <path
           style="fill:#000000;fill-opacity:1;stroke:none;stroke-width:0.02;stroke-miterlimit:4;stroke-dasharray:none;stroke-opacity:1"
           id="path864"
           d="m 5.6945514,4.0008714 c 0.021662,0.054352 0.021085,0.1135725 0.016298,0.1712665 -0.00502,0.049239 -0.018296,0.096671 -0.031826,0.1438365 -0.00906,0.033251 -0.01802,0.066572 -0.024412,0.100535 -0.00364,0.019461 -0.00497,0.03923 -0.00545,0.059025 -1.845e-4,0.011903 -2.583e-4,0.024177 -0.0043,0.035422 -7.232e-4,0.00143 -0.00145,0.00287 -0.00217,0.0043 -0.01087,0.023266 0.020032,0.039634 0.030902,0.016368 v 0 c 0.0013,-0.00288 0.00259,-0.00576 0.00388,-0.00864 0.00466,-0.015051 0.00643,-0.030674 0.00619,-0.04653 4.095e-4,-0.01769 0.00154,-0.035359 0.00479,-0.052755 0.00612,-0.032779 0.014888,-0.064901 0.023574,-0.096996 0.01423,-0.04962 0.028049,-0.099563 0.033201,-0.151378 0.0052,-0.064371 0.00504,-0.1301622 -0.019648,-0.1905404 -0.010682,-0.023365 -0.041714,-0.00728 -0.031034,0.016083 z" />
        <path
           style="fill:#000000;fill-opacity:1;stroke:none;stroke-width:0.02;stroke-miterlimit:4;stroke-dasharray:none;stroke-opacity:1"
           id="path866"
           d="m 5.5332669,4.6693099 c 0.033692,-0.025314 0.06579,-0.052945 0.097556,-0.08091 0.012505,-0.011408 0.025437,-0.022305 0.037583,-0.034151 0.00627,-0.00646 0.01245,-0.013028 0.018476,-0.019754 0.016843,-0.018804 -0.00813,-0.044167 -0.024976,-0.025362 v 0 c -0.0055,0.00614 -0.011147,0.012138 -0.016859,0.018063 -0.011656,0.011461 -0.024222,0.021834 -0.036216,0.032882 -0.030905,0.02721 -0.062125,0.054101 -0.094874,0.078773 -0.020228,0.014538 -9.187e-4,0.044997 0.01931,0.030459 z" />
        <path
           style="fill:#000000;fill-opacity:1;stroke:none;stroke-width:0.02;stroke-miterlimit:4;stroke-dasharray:none;stroke-opacity:1"
           id="path868"
           d="m 5.6822872,4.0328781 c 0.026236,-0.017655 0.053377,-0.033692 0.080937,-0.048861 -6.6e-6,-0.00118 0.016865,-0.00741 0.00448,-0.00307 0.024376,-0.00128 0.022682,-0.03798 -0.00169,-0.036705 v 0 c -0.00697,0.00148 -0.01257,0.00305 -0.018636,0.00713 -0.02846,0.015672 -0.056486,0.03224 -0.08358,0.050476 -0.020606,0.013924 -0.00211,0.044953 0.018494,0.031029 z" />
        <path
           style="fill:#000000;fill-opacity:1;stroke:none;stroke-width:0.02;stroke-miterlimit:4;stroke-dasharray:none;stroke-opacity:1"
           id="path870"
           d="m 5.7010902,4.0028671 c -0.028842,0.026445 -0.05576,0.055152 -0.080791,0.085659 -0.013636,0.017274 8.597e-4,-0.00119 -0.00954,0.012283 -6.826e-4,8.839e-4 -0.00305,0.00316 -0.0021,0.00263 0.00141,-7.779e-4 0.00235,-0.00228 0.00352,-0.00342 -0.021222,0.012833 -0.00418,0.044788 0.017044,0.031956 v 0 c 0.00671,-0.00556 0.011864,-0.012067 0.01707,-0.019274 0.023787,-0.029029 0.049397,-0.056317 0.076789,-0.081509 0.018807,-0.016561 -0.00319,-0.044879 -0.021997,-0.028318 z" />
        <path
           style="fill:#000000;fill-opacity:1;stroke:none;stroke-width:0.02;stroke-miterlimit:4;stroke-dasharray:none;stroke-opacity:1"
           id="path872"
           d="m 3.1217538,4.7128427 c 0.00146,0.062062 -0.00478,0.1239253 -0.010283,0.1856169 -0.00554,0.056657 -0.00896,0.1134625 -0.011374,0.1703527 -0.00189,0.054166 -0.00591,0.1081794 -0.011296,0.1620655 -0.00664,0.050978 -0.012268,0.1020522 -0.017189,0.1532476 -0.00555,0.056362 -0.00991,0.1128481 -0.014276,0.1693246 -0.00485,0.057499 -0.00953,0.115004 -0.013554,0.1725754 -0.00356,0.051202 -0.00491,0.1025362 -0.00578,0.1538585 -2.952e-4,0.02022 -4.243e-4,0.040442 -3.764e-4,0.060664 -5.792e-4,0.025883 0.026269,0.027817 0.044039,0.030571 0.051196,0.00671 0.1027035,0.0057 0.1540086,0.00152 0.039843,-0.00422 0.079531,-0.00999 0.1191558,-0.016077 0.037993,-0.00626 0.076297,-0.00974 0.1145535,-0.013531 0.035144,-0.00246 0.068778,-0.011985 0.1011911,-0.026223 0.024596,-0.01035 0.042565,-0.028461 0.057334,-0.051245 0.018325,-0.033153 0.028154,-0.070339 0.036678,-0.1074186 0.013204,-0.059448 0.020682,-0.1199857 0.026219,-0.1807074 0.00579,-0.070842 0.00873,-0.1419009 0.012788,-0.21287 0.00261,-0.059162 0.00752,-0.1181649 0.010693,-0.1772881 0.00246,-0.053755 0.00342,-0.1075847 0.00312,-0.1614004 -2.214e-4,-0.047914 -0.00367,-0.095617 -0.00972,-0.1430661 -0.0039,-0.028922 -0.00919,-0.057594 -0.014036,-0.086343 -0.00277,-0.015213 -0.00276,-0.030741 -0.00294,-0.046171 -6.3e-6,-0.012154 -1.845e-4,-0.024313 -1.96e-5,-0.036467 3.69e-4,-0.025984 -0.03416,-0.026512 -0.034511,-5.304e-4 v 0 c -1.476e-4,0.012484 -5.2e-6,0.024973 1.96e-5,0.037458 2.213e-4,0.017455 3.32e-4,0.035003 0.00348,0.052207 0.00477,0.028234 0.00996,0.056394 0.013806,0.084794 0.00587,0.045881 0.00919,0.092007 0.00941,0.1383389 2.952e-4,0.053043 -6.494e-4,0.1061013 -0.00306,0.1590877 -0.00316,0.059076 -0.00809,0.1180318 -0.010685,0.1771478 -0.00403,0.07053 -0.00696,0.1411502 -0.01269,0.2115564 -0.00536,0.058984 -0.012599,0.1177886 -0.025396,0.1755414 -0.00751,0.032866 -0.016021,0.065863 -0.031732,0.095535 -0.010591,0.017145 -0.023743,0.030229 -0.041969,0.037894 -0.02918,0.012957 -0.059478,0.021404 -0.091167,0.023578 -0.038836,0.00385 -0.077719,0.0074 -0.1162872,0.01375 -0.038866,0.00597 -0.077792,0.01163 -0.1168687,0.015808 -0.048838,0.00401 -0.097862,0.00503 -0.1466083,-0.00128 -0.00453,-6.325e-4 -0.00907,-0.00115 -0.013583,-0.00189 -0.0018,-3.143e-4 -0.00353,-0.00126 -0.00536,-0.00125 -4.871e-4,2e-6 6.014e-4,8.211e-4 8.486e-4,0.00127 0.00975,0.017599 3.32e-4,-0.00109 0.00382,0.010534 2.952e-4,9.35e-4 -9.6e-6,-0.00195 -1e-5,-0.00293 -3.69e-5,-0.019971 7.38e-5,-0.039941 3.69e-4,-0.059909 8.56e-4,-0.050631 0.00218,-0.1012755 0.00569,-0.1517901 0.00402,-0.057474 0.00869,-0.1148846 0.013533,-0.1722871 0.00435,-0.056236 0.00868,-0.1124796 0.014213,-0.1686005 0.00492,-0.051149 0.010553,-0.1021717 0.017175,-0.153105 0.00545,-0.054627 0.00953,-0.1093828 0.011454,-0.1642942 0.00238,-0.056284 0.00576,-0.1124835 0.011254,-0.1685357 0.00565,-0.063338 0.012002,-0.1268544 0.010409,-0.1905739 -9.851e-4,-0.025963 -0.035471,-0.02448 -0.034486,0.00148 z" />
        <path
           style="fill:#000000;fill-opacity:1;stroke:none;stroke-width:0.02;stroke-miterlimit:4;stroke-dasharray:none;stroke-opacity:1"
           id="path874"
           d="m 3.6241015,5.8890161 c 0.028536,-0.0282 0.056243,-0.057326 0.084699,-0.085615 0.010013,-0.010743 0.021299,-0.019772 0.033347,-0.02771 0.015442,-0.00947 0.030728,-0.019171 0.045713,-0.029446 0.016745,-0.011554 0.033681,-0.022976 0.048215,-0.037628 0.011243,-0.012971 0.017557,-0.029422 0.022916,-0.045862 0.00685,-0.022205 0.01095,-0.045149 0.014226,-0.068209 0.00524,-0.037239 0.00829,-0.074749 0.011282,-0.1122498 0.00273,-0.041875 0.00724,-0.083598 0.011798,-0.1252845 0.00476,-0.044055 0.00891,-0.088201 0.012033,-0.1324227 0.00218,-0.036831 0.00518,-0.073577 0.00852,-0.1103059 0.00362,-0.031192 0.00624,-0.062489 0.0091,-0.093766 0.00303,-0.03068 0.00428,-0.061494 0.00495,-0.092318 4.464e-4,-0.025298 4.427e-4,-0.050602 4.353e-4,-0.075903 -3.69e-5,-0.01801 2.952e-4,-0.036012 -7.859e-4,-0.053991 -3.32e-4,-0.00615 -0.00177,-0.011853 -0.0036,-0.017637 -0.00872,-0.02427 -0.040957,-0.011138 -0.032235,0.013131 v 0 c 1.107e-4,4.36e-4 0.00182,0.00615 0.00139,0.0069 0.00107,0.017183 6.199e-4,0.034392 7.121e-4,0.051604 5.9e-6,0.025012 9.6e-6,0.050027 -4.243e-4,0.075036 -6.531e-4,0.029924 -0.00186,0.059836 -0.0048,0.089619 -0.00286,0.031285 -0.00548,0.062586 -0.0091,0.093785 -0.00336,0.03699 -0.00638,0.073996 -0.00858,0.1110878 -0.00308,0.043723 -0.0072,0.087369 -0.011898,0.1309266 -0.0046,0.042068 -0.00914,0.084173 -0.011906,0.1264305 -0.00293,0.036711 -0.0059,0.073434 -0.011021,0.10989 -0.00293,0.020857 -0.00661,0.041606 -0.012729,0.061709 -0.00351,0.010959 -0.0074,0.022086 -0.014166,0.031298 -0.012729,0.013242 -0.028382,0.022705 -0.043029,0.033268 -0.014811,0.01017 -0.029956,0.019705 -0.045205,0.029103 -0.013947,0.00923 -0.027056,0.019702 -0.038713,0.032082 -0.02848,0.028319 -0.056222,0.057462 -0.084779,0.085695 -0.017785,0.017795 0.00585,0.044574 0.023635,0.026779 z" />
        <path
           style="fill:#000000;fill-opacity:1;stroke:none;stroke-width:0.02;stroke-miterlimit:4;stroke-dasharray:none;stroke-opacity:1"
           id="path876"
           d="m 5.5560244,4.6607783 c 0.036036,0.010588 0.055352,0.026816 0.070408,0.062979 0.012287,0.045617 0.00813,0.093745 0.0062,0.1405102 -0.00216,0.052973 -0.00481,0.1059186 -0.00644,0.1589141 -0.00127,0.051299 -0.00128,0.102612 -0.00251,0.1539123 -0.00211,0.074804 -0.00523,0.1495689 -0.010735,0.2241802 -0.00448,0.051245 -0.00851,0.1025424 -0.013887,0.1536923 -0.00345,0.028579 -0.00511,0.057327 -0.00592,0.086112 -4.575e-4,0.020036 -4.501e-4,0.04008 -4.317e-4,0.060121 2.583e-4,0.01455 -2.583e-4,0.029107 -0.00162,0.043585 -0.00169,0.010044 -0.00145,0.020892 -0.00482,0.030546 8.191e-4,-0.00317 -0.00784,0.00304 -0.010442,0.0045 -0.020509,0.013065 -0.041145,0.02574 -0.06269,0.036785 -0.023726,0.012264 -0.049706,0.016728 -0.075454,0.021315 -0.033273,0.00588 -0.066713,0.010487 -0.1003241,0.013448 -0.014729,0.00127 -0.029505,0.00128 -0.044174,0.00323 -0.00852,9.664e-4 -0.016751,0.00323 -0.024984,0.00563 -0.00597,0.00191 -0.011914,0.00389 -0.017924,0.00565 -0.00968,0.00259 -0.019349,0.00519 -0.029008,0.00786 -0.00719,0.00254 -0.0146,0.00337 -0.022112,0.00377 -0.014402,3.535e-4 -0.028731,-0.00143 -0.042975,-0.00347 -0.015421,-0.00248 -0.030936,-0.00411 -0.0465,-0.00511 -0.00735,-8.328e-4 -0.014819,5.9e-6 -0.022161,-7.896e-4 -0.00751,-0.00273 -1.107e-4,7.071e-4 0.00267,0.00389 -0.00208,-0.014308 -0.00214,-0.028869 -0.00248,-0.043313 -0.00107,-0.026679 -0.00313,-0.053293 -0.00424,-0.079973 -0.00106,-0.029934 -0.00101,-0.059895 -0.00107,-0.089846 8.006e-4,-0.040542 0.00387,-0.080975 0.00685,-0.121387 0.00317,-0.042899 0.00436,-0.085915 0.00507,-0.1289259 4.871e-4,-0.041158 4.391e-4,-0.082319 4.28e-4,-0.1234782 0,-0.043107 0,-0.086214 -1.107e-4,-0.1293223 -8.8e-6,-0.041037 -9.6e-6,-0.082075 0,-0.1231125 0,-0.029964 0,-0.059928 0,-0.089893 1.1e-6,-0.023082 1.1e-6,-0.046163 1.1e-6,-0.069246 -4.981e-4,-0.018387 0.00173,-0.036639 0.00529,-0.054584 0.00312,-0.014939 0.00702,-0.029703 0.011256,-0.044325 9.482e-4,-0.00606 0.00292,-0.0091 0.00651,-0.013231 0.00619,-0.00735 0.012854,-0.014211 0.021103,-0.018835 0.021311,-0.012665 0.00449,-0.044753 -0.016822,-0.032089 v 0 c -0.011322,0.00693 -0.021271,0.015662 -0.029826,0.026213 -0.00676,0.008 -0.011737,0.016548 -0.013962,0.027166 -0.0045,0.015697 -0.00874,0.031513 -0.012037,0.047551 -0.004,0.020436 -0.00655,0.041206 -0.00603,0.062134 0,0.023082 0,0.046163 0,0.069246 0,0.029964 0,0.059928 0,0.089893 8e-7,0.041041 1.9e-6,0.082082 9.6e-6,0.1231219 0,0.043107 0,0.086213 1.107e-4,0.1293199 6.7e-6,0.040944 1.107e-4,0.08189 -4.28e-4,0.1228328 -6.936e-4,0.042267 -0.00186,0.084539 -0.00497,0.1266965 -0.00304,0.041392 -0.00618,0.082806 -0.00695,0.1243338 1.107e-4,0.030469 0,0.060948 0.00111,0.0914 0.00111,0.026444 0.00311,0.052825 0.00422,0.079267 4.575e-4,0.019329 -1.476e-4,0.039474 0.00573,0.057987 0.00696,0.011602 0.013346,0.015668 0.025856,0.017145 0.0076,5.618e-4 0.015219,3.143e-4 0.022823,8.407e-4 0.014721,9.35e-4 0.029393,0.00249 0.043977,0.00484 0.016358,0.00233 0.032822,0.00428 0.049357,0.00375 0.00982,-5.617e-4 0.019556,-0.00173 0.028979,-0.0049 0.00982,-0.00271 0.019653,-0.00534 0.029485,-0.00799 0.006,-0.00176 0.011949,-0.00371 0.017905,-0.00564 0.00665,-0.00195 0.013267,-0.00389 0.020173,-0.00461 0.014174,-0.00192 0.028487,-0.00168 0.042712,-0.00306 0.034566,-0.00306 0.06896,-0.00777 0.1031777,-0.013828 0.02897,-0.00518 0.058101,-0.010578 0.084747,-0.02446 0.021877,-0.011261 0.042958,-0.023953 0.06374,-0.037348 0.011266,-0.0063 0.022629,-0.011932 0.027213,-0.025653 0.0036,-0.012435 0.00491,-0.025439 0.00635,-0.038325 0.00142,-0.015692 0.00209,-0.031455 0.00179,-0.047222 0,-0.019663 0,-0.039327 4.206e-4,-0.058986 7.711e-4,-0.027786 0.00238,-0.055535 0.00572,-0.083121 0.00542,-0.051554 0.00949,-0.1032547 0.013996,-0.1549054 0.00554,-0.075257 0.00871,-0.1506682 0.01083,-0.2261193 0.00122,-0.051212 0.00125,-0.1024368 0.0025,-0.1536475 0.00162,-0.052858 0.00428,-0.105668 0.00643,-0.1585048 0.00217,-0.052641 0.00649,-0.1067719 -0.0094,-0.1576345 -0.00298,-0.0066 -0.00543,-0.013498 -0.00895,-0.019783 -0.018913,-0.033756 -0.051312,-0.054651 -0.086496,-0.063823 -0.024002,-0.0047 -0.030251,0.031437 -0.00625,0.036141 z" />
        <path
           style="fill:#000000;fill-opacity:1;stroke:none;stroke-width:0.02;stroke-miterlimit:4;stroke-dasharray:none;stroke-opacity:1"
           id="path880"
           d="m 5.6770088,4.5605207 c 0.018264,0.05516 0.033588,0.1112995 0.047759,0.1677823 0.013437,0.051522 0.02085,0.1043688 0.027386,0.157277 0.00421,0.037332 0.00748,0.074758 0.00911,0.1123193 0.00115,0.030966 6.642e-4,0.061963 0.00129,0.092938 7.601e-4,0.029795 0.0014,0.059587 0.00251,0.089369 0.00111,0.028198 0.0016,0.056418 0.00186,0.084638 1.845e-4,0.024693 1.845e-4,0.049387 1.845e-4,0.07408 -7e-6,0.024552 0,0.049104 0,0.073656 -8.007e-4,0.02207 -0.00244,0.044152 -0.00742,0.065635 -0.00348,0.010308 -0.00153,0.00531 -0.0058,0.015018 -0.010116,0.023648 0.021293,0.03888 0.031409,0.015233 v 0 c 0.00588,-0.013989 0.00321,-0.00679 0.00794,-0.021616 0.00544,-0.024354 0.00771,-0.049256 0.00838,-0.074264 4e-6,-0.024553 0,-0.049106 0,-0.073659 2.9e-6,-0.024813 4e-6,-0.049627 -1.845e-4,-0.074441 -2.583e-4,-0.028587 -7.527e-4,-0.057173 -0.00188,-0.08574 -0.0011,-0.029559 -0.00174,-0.059127 -0.00249,-0.088698 -6.346e-4,-0.03128 -1.107e-4,-0.062581 -0.00131,-0.093852 -0.00169,-0.038593 -0.00502,-0.077052 -0.00936,-0.1154095 -0.00673,-0.05449 -0.014435,-0.1089058 -0.028259,-0.16197 -0.014406,-0.057397 -0.029988,-0.1144458 -0.048549,-0.1704984 -0.0081,-0.024512 -0.04066,-0.012309 -0.032556,0.012202 z" />
        <path
           style="fill:#000000;fill-opacity:1;stroke:none;stroke-width:0.02;stroke-miterlimit:4;stroke-dasharray:none;stroke-opacity:1"
           id="path882"
           d="m 5.5837389,5.8034817 c 0.031268,-0.045832 0.061731,-0.092262 0.09139,-0.1392881 0.020868,-0.033714 0.04271,-0.06672 0.064332,-0.099884 0.012898,-0.019915 0.025982,-0.039694 0.03892,-0.05958 0.00926,-0.01474 0.020021,-0.028278 0.030556,-0.041981 0.010578,-0.013131 0.017302,-0.028429 0.022146,-0.044767 0.00717,-0.024841 -0.025827,-0.03563 -0.032993,-0.01079 v 0 c -0.00328,0.011878 -0.00819,0.022813 -0.015861,0.03228 -0.011117,0.014461 -0.022435,0.028779 -0.032219,0.044331 -0.012932,0.019877 -0.026007,0.039646 -0.038901,0.05955 -0.021724,0.03332 -0.043667,0.066482 -0.064634,0.1003535 -0.029429,0.046664 -0.059657,0.092735 -0.090684,0.138212 -0.01432,0.021042 0.013628,0.042605 0.027948,0.021564 z" />
        <path
           style="fill:#000000;fill-opacity:1;stroke:none;stroke-width:0.02;stroke-miterlimit:4;stroke-dasharray:none;stroke-opacity:1"
           id="path884"
           d="m 5.1433869,5.0755705 c 0.015688,-0.021259 0.033696,-0.041187 0.056192,-0.054305 0.012918,-0.00753 0.019238,-0.00901 0.033122,-0.013883 0.0415,-0.010299 0.081056,-0.025672 0.117804,-0.048627 0.022872,-0.014574 0.041748,-0.034572 0.061259,-0.053596 0.0066,-0.00617 0.00348,-0.0033 0.00935,-0.00862 0.018588,-0.016839 -0.00378,-0.044828 -0.022366,-0.027989 v 0 c -0.00647,0.00587 -0.00304,0.00271 -0.010299,0.00951 -0.017741,0.017305 -0.034791,0.035645 -0.055495,0.049051 -0.034578,0.021901 -0.072206,0.035496 -0.1112759,0.045447 -0.01767,0.00645 -0.024426,0.00796 -0.040917,0.017899 -0.025591,0.015419 -0.046467,0.037956 -0.06449,0.062375 -0.0151,0.020414 0.012015,0.043152 0.027114,0.022738 z" />
        <path
           style="fill:#000000;fill-opacity:1;stroke:none;stroke-width:0.02;stroke-miterlimit:4;stroke-dasharray:none;stroke-opacity:1"
           id="path886"
           d="m 5.1013955,5.0769541 c 0.033412,-0.013118 0.067964,-0.022309 0.1035521,-0.024364 0.017499,-5.735e-4 0.034936,0.00127 0.052429,9.35e-4 0.019372,-0.00228 0.024261,-0.00189 0.035526,0.014949 0.013419,0.027281 0.017924,0.05841 0.02457,0.088126 0.00541,0.023854 0.010225,0.03905 0.031893,0.050108 0.013111,0.00287 0.0063,0.00238 0.020437,0.00108 0.024079,-0.00423 0.018454,-0.040492 -0.00562,-0.036256 v 0 c -1.107e-4,0.00148 2.214e-4,8.721e-4 -0.00161,0.00122 -0.00859,3.968e-4 -0.00917,-0.019434 -0.011523,-0.024669 -0.00779,-0.034813 -0.013071,-0.071391 -0.030992,-0.102295 -0.02003,-0.025829 -0.032197,-0.032302 -0.063377,-0.029006 -0.017908,4.361e-4 -0.035775,-0.00181 -0.053693,-8.839e-4 -0.038897,0.00246 -0.076749,0.012022 -0.1132813,0.026477 -0.022962,0.0088 -0.011271,0.043378 0.011691,0.034576 z" />
        <path
           style="fill:#000000;fill-opacity:1;stroke:none;stroke-width:0.02;stroke-miterlimit:4;stroke-dasharray:none;stroke-opacity:1"
           id="path890"
           d="m 4.6235648,4.7986278 c 0.032699,-0.036554 0.060754,-0.077199 0.084572,-0.1207593 0.011817,-0.022859 0.021858,-0.046665 0.032793,-0.069995 0.011682,-0.023978 0.022545,-0.04836 0.032902,-0.073015 0.00304,-0.00728 0.00606,-0.014575 0.00904,-0.021882 5.092e-4,-0.00125 9.999e-4,-0.00251 0.00153,-0.00376 2.214e-4,-5.107e-4 0.00121,-0.00142 6.937e-4,-0.00149 -0.0112,-0.0015 -0.022502,-0.00195 -0.033753,-0.00293 -0.00754,0.033652 -0.018495,0.066262 -0.029411,0.098798 -0.00627,0.020252 -0.014031,0.040037 -0.019565,0.060546 -0.00397,0.018755 -0.00378,0.037812 3.8e-4,0.056429 0.00618,0.019828 0.019161,0.031624 0.037594,0.037201 0.00665,0.00156 0.013446,0.00245 0.020256,0.00221 -0.00987,-2.75e-4 0.00489,6.757e-4 -0.017581,-0.013497 -9.778e-4,-6.128e-4 -2.952e-4,0.0024 -4.87e-4,0.00359 -4.576e-4,0.00296 -0.00107,0.00587 -0.00176,0.00878 0.00139,-0.011872 0.00954,-0.00811 0.01339,-0.011563 7.01e-4,-6.246e-4 -0.00153,-0.00107 -0.00234,-0.00152 -0.00486,-0.00271 -0.00974,-0.00499 -0.014739,-0.00742 -0.02191,-0.010493 -0.045002,-0.00635 -0.067157,5.303e-4 -0.00985,0.00426 -0.012166,0.00148 -0.00293,0.00169 -4.686e-4,-0.00122 -0.00182,-0.00488 -0.00244,-0.0043 -0.00885,0.00821 -0.018199,0.016645 -0.023811,0.027623 -0.00173,0.00338 0.021562,0.02044 0.023676,0.021899 0.026089,0.014172 0.055714,0.013405 0.084244,0.01372 0.033041,-4.675e-4 0.066124,-0.00102 0.0991,-0.00338 0.023593,-0.00238 0.046115,-0.010642 0.068929,-0.01698 0.00303,-9.547e-4 0.00606,-0.00191 0.00909,-0.00287 0.023391,-0.00741 0.013542,-0.042636 -0.00985,-0.03522 v 0 c -0.00266,8.407e-4 -0.00531,0.00169 -0.00796,0.00253 -0.020726,0.00576 -0.041181,0.013285 -0.062545,0.015873 -0.032081,0.00233 -0.064274,0.00279 -0.096417,0.0033 -0.022224,-2.357e-4 -0.045629,0.00106 -0.066527,-0.00828 -0.00525,-0.00306 -0.00535,-0.00262 -0.00971,-0.00723 -0.00147,-0.00156 -0.00212,-0.00557 -0.00411,-0.00497 -0.032419,0.00981 -0.035202,0.00966 -0.031079,0.017513 0.00986,0.015846 0.025117,0.021812 0.04209,0.014331 0.01403,-0.00445 0.029002,-0.0089 0.043068,-0.00235 0.0179,0.00869 0.040396,0.024462 0.05154,-0.0041 0.00342,-0.0149 0.00767,-0.042575 -0.015162,-0.044408 -0.00335,1.572e-4 -0.0067,-4.36e-4 -0.01,-0.00104 -0.00636,-0.00143 -0.0105,-0.00388 -0.012979,-0.010938 -0.00349,-0.01203 -0.00237,-0.024846 -5.682e-4,-0.037154 0.00513,-0.01976 0.01305,-0.038652 0.018856,-0.058182 0.011634,-0.034682 0.023345,-0.069468 0.031003,-0.1054432 -0.010468,-0.00627 -0.020476,-0.013505 -0.031403,-0.018816 -1.476e-4,-1.178e-4 -0.011065,0.026721 -0.01171,0.028149 -0.010159,0.024185 -0.020814,0.048101 -0.032281,0.071617 -0.010599,0.022638 -0.020371,0.045716 -0.031752,0.06794 -0.022293,0.040968 -0.04872,0.079084 -0.079363,0.1134791 -0.017093,0.018548 0.00754,0.044285 0.024635,0.025738 z" />
        <path
           style="fill:#000000;fill-opacity:1;stroke:none;stroke-width:0.02;stroke-miterlimit:4;stroke-dasharray:none;stroke-opacity:1"
           id="path892"
           d="m 3.9062842,4.1954178 c 0.026263,0.019877 0.052448,0.040905 0.073502,0.067143 0.012074,0.015046 0.014945,0.021584 0.024368,0.038188 0.012392,0.024165 0.019016,0.050895 0.029144,0.076093 0.00805,0.020024 0.00897,0.02075 0.018785,0.039976 0.021888,0.039732 0.051129,0.068649 0.088228,0.091557 0.018509,0.010216 0.038294,0.017138 0.05815,0.023631 0.023333,0.00762 0.033451,-0.027516 0.010119,-0.035134 v 0 c -0.017413,-0.00568 -0.034794,-0.011631 -0.051112,-0.020384 -0.031165,-0.018725 -0.056769,-0.044222 -0.075093,-0.077281 -0.00887,-0.017209 -0.0097,-0.017841 -0.017017,-0.035975 -0.01092,-0.027068 -0.017916,-0.055892 -0.031741,-0.081623 -0.01151,-0.019914 -0.01427,-0.026413 -0.028938,-0.044504 -0.022922,-0.028272 -0.051162,-0.051124 -0.079662,-0.072551 -0.020498,-0.014103 -0.03923,0.016763 -0.018732,0.030865 z" />
        <path
           style="fill:#000000;fill-opacity:1;stroke:none;stroke-width:0.02;stroke-miterlimit:4;stroke-dasharray:none;stroke-opacity:1"
           id="path894"
           d="m 3.6616599,4.2553231 c 0.017877,0.01385 0.040638,0.025143 0.052865,0.045801 0.00406,0.00686 0.00367,0.010821 0.0044,0.018394 -0.00273,0.02525 -0.015568,0.048142 -0.026479,0.070358 -0.00933,0.018127 -0.016622,0.03669 -0.016971,0.057497 5.571e-4,0.00983 0.00433,0.017261 0.00921,0.025264 0.014263,0.021085 0.042269,-3.968e-4 0.028006,-0.021477 v 0 c -0.00151,-9.546e-4 -0.00206,-0.00257 -0.00271,-0.00425 -0.00141,-0.014222 0.00814,-0.027571 0.013047,-0.040008 0.014422,-0.029395 0.030807,-0.059631 0.029875,-0.093801 -0.00122,-0.0061 -0.00168,-0.012444 -0.00367,-0.018315 -0.01143,-0.033663 -0.043793,-0.052105 -0.069898,-0.071022 -0.020962,-0.013309 -0.038638,0.018255 -0.017676,0.031563 z" />
        <path
           style="fill:#000000;fill-opacity:1;stroke:none;stroke-width:0.02;stroke-miterlimit:4;stroke-dasharray:none;stroke-opacity:1"
           id="path896"
           d="m 3.1588786,5.1539385 c 0.021432,0.032175 0.037161,0.067457 0.046481,0.1055411 0.00637,0.024663 0.0053,0.048675 -0.00127,0.072952 -0.00726,0.020927 -0.016663,0.040868 -0.024395,0.061599 -0.00687,0.019774 -0.012993,0.03981 -0.020154,0.059468 -0.00698,0.017604 -0.01417,0.035109 -0.021584,0.052509 -0.00666,0.015261 -0.012415,0.030931 -0.018331,0.046525 -0.00197,0.00466 -0.00399,0.012808 -0.0049,0.016238 -8.56e-4,4.872e-4 -0.00272,0.00705 -0.00314,0.00995 0.00972,-0.017961 -0.00213,-0.00443 -0.00744,-7.582e-4 -0.0057,0.00341 -0.010362,0.00751 -0.014036,0.013374 -0.00508,0.00971 -0.00521,0.020887 -0.00557,0.031703 -1.845e-4,0.00726 -2.583e-4,0.014524 -2.214e-4,0.021786 2.951e-4,0.013217 -1.9e-6,0.011287 0.035056,-0.00577 0.00314,-0.00153 6.752e-4,-0.00733 0.00108,-0.010986 0.00209,-0.018893 0.00445,-0.037752 0.00655,-0.056645 0.00567,-0.055142 0.013904,-0.1098985 0.022333,-0.1646206 0.00843,-0.05155 0.016704,-0.1031317 0.023384,-0.1549765 0.00437,-0.033815 0.00785,-0.067754 0.010804,-0.1017391 0.00207,-0.018871 0.00989,-0.028497 -0.031147,-0.00948 -0.00321,0.00149 2.583e-4,0.00746 3.321e-4,0.011188 1.106e-4,0.00626 1.844e-4,0.012522 2.582e-4,0.018782 3.321e-4,0.051538 2.583e-4,0.1030791 1.845e-4,0.1546182 7.38e-5,0.019187 -0.00667,0.049647 0.032494,0.00797 0.0042,-0.00447 -0.00132,-0.012573 -0.00203,-0.018853 -8.412e-4,-0.00739 -0.00176,-0.014768 -0.00263,-0.022153 -0.00255,-0.017982 -0.00395,-0.03616 -0.00671,-0.054111 -4.28e-4,-0.00278 9.114e-4,-0.00907 -0.00163,-0.00828 -0.042363,0.013267 -0.03515,0.01232 -0.036265,0.046276 0.00155,0.025099 -0.00315,0.051968 0.0027,0.076776 0.00114,0.00484 0.00127,0.012295 0.00578,0.013637 0.034448,0.010249 0.031797,-8.014e-4 0.041598,-0.024194 0.00431,-0.012737 0.00689,-0.026025 0.010721,-0.038911 9.519e-4,-0.0032 0.0065,-0.00961 0.00335,-0.00941 -0.00392,2.357e-4 -0.0036,0.00908 -0.00749,0.00967 -0.029624,0.00457 -0.022244,-0.02106 -0.024504,0.013325 -0.00173,0.021942 -0.00345,0.043891 -0.00559,0.065795 -4.39e-4,0.0045 -8.67e-4,0.00901 -0.00145,0.013498 -2.214e-4,0.00169 -0.00255,0.00492 -9.519e-4,0.00502 0.011985,7.817e-4 0.023953,-0.00184 0.035929,-0.00276 0.00523,-0.011602 0.012051,-0.024915 -0.031429,0.00554 -0.0042,0.00295 -9.593e-4,0.010684 -0.0019,0.015949 -0.00351,0.01957 -0.00991,0.03744 -0.017526,0.055514 -0.00228,0.00413 -0.00435,0.00841 -0.00684,0.012396 -0.00184,0.00294 -0.00634,0.0094 -0.00995,0.011604 -3.874e-4,2.357e-4 -7.38e-5,-0.00127 3.32e-4,-0.00138 0.0034,-8.918e-4 0.00694,-0.00182 0.010425,-0.00145 0.0022,2.358e-4 0.00394,0.00213 0.00592,0.00319 2.214e-4,-0.037789 0.0052,-0.075366 0.00888,-0.1129054 0.00438,-0.039879 0.00536,-0.080011 0.00595,-0.1201151 4.022e-4,-0.039197 3.69e-4,-0.078399 2.952e-4,-0.1175992 -2.95e-5,-0.010747 -1.96e-5,-0.021494 -7.38e-5,-0.032241 -0.00962,0.00526 -0.020879,0.008 -0.028859,0.015765 -0.00218,0.00212 0.00284,0.00552 0.00405,0.00839 0.0014,0.00334 0.00272,0.00672 0.00376,0.010198 0.00501,0.016652 0.00661,0.034161 0.00871,0.051406 0.00365,0.00914 8.228e-4,0.044154 0.00537,0.052243 0.00291,0.00517 0.006,0.010851 0.010887,0.013893 0.00437,0.00271 0.010016,0.00148 0.015024,0.00222 0.016155,-0.00417 0.032718,-0.0062 0.048894,-0.010166 0.017988,-0.00631 0.027678,-0.02167 0.033406,-0.039889 0.00107,-0.00428 4.944e-4,-0.00275 0.0013,-0.00474 0.00792,-0.024579 -0.024725,-0.036506 -0.032646,-0.011927 v 0 c -0.00125,0.0041 -8.08e-4,0.00231 -0.00148,0.00532 -0.00164,0.00575 -0.00341,0.012416 -0.00857,0.015485 -0.014283,0.00381 -0.029183,0.00472 -0.043349,0.00926 0.010105,0.00571 0.00125,-6.246e-4 0.010344,0.013143 6.9e-4,0.00105 -6.936e-4,-0.00246 -8.412e-4,-0.00373 -4.243e-4,-0.0036 -5.756e-4,-0.00724 -8.708e-4,-0.010856 -0.00167,-0.02026 -0.00104,-0.012946 -0.00324,-0.035012 -0.00312,-0.025269 -0.00605,-0.050216 -0.016002,-0.073661 -0.00135,-0.00318 -0.00127,-0.00873 -0.0045,-0.0093 -0.011822,-0.00209 -0.023929,0.00143 -0.035893,0.00215 7.38e-5,0.010694 3.69e-5,0.021387 7.38e-5,0.032081 3.69e-5,0.038994 1.107e-4,0.077989 -2.951e-4,0.1169812 -5.756e-4,0.039022 -0.00149,0.078074 -0.00577,0.1168768 -0.00238,0.024249 -0.0051,0.048488 -0.0071,0.072776 -9.482e-4,0.011533 -0.00257,0.031646 -0.00165,0.043677 3.984e-4,0.00523 0.00184,0.010309 0.00277,0.015464 0.00364,0.00497 0.00576,0.01183 0.010918,0.014915 0.024986,0.014931 0.043174,-0.022601 0.052166,-0.039594 0.00888,-0.021572 0.016564,-0.04291 0.020268,-0.0663 0.00114,-0.00721 0.00641,-0.016157 0.00208,-0.021833 -0.00815,-0.010672 -0.021571,-0.015952 -0.033943,-0.019904 -0.0026,-8.328e-4 -0.00186,0.00545 -0.00279,0.00817 0.010553,0.00588 0.020193,0.014215 0.031661,0.01765 0.00238,7.15e-4 0.001,-0.00516 0.00134,-0.00776 6.125e-4,-0.0047 0.00105,-0.00942 0.00151,-0.014133 0.00217,-0.022281 0.00392,-0.04461 0.00567,-0.06693 0.00132,-0.023007 0.00702,-0.036304 -0.022767,-0.049831 -0.00498,-0.00226 -0.00885,0.00695 -0.012024,0.011608 -0.00717,0.010516 -0.00811,0.036402 -0.01398,0.048054 -0.00428,0.018891 -0.00508,0.00778 0.020519,0.018878 4.464e-4,1.964e-4 -0.00127,9.861e-4 -0.00137,4.872e-4 -0.00111,-0.00547 -0.00155,-0.011082 -0.0019,-0.016667 -0.00113,-0.018058 -6.899e-4,-0.036506 -5.829e-4,-0.054568 0.00104,-0.033297 0.00807,-0.027646 -0.031965,-0.039768 -0.0017,-5.186e-4 8.892e-4,0.00366 0.00117,0.00552 0.00272,0.017827 0.00416,0.035866 0.00666,0.053725 8.633e-4,0.00724 0.00176,0.014478 0.00259,0.021725 7.121e-4,0.00627 -0.00248,0.014719 0.00203,0.018818 0.044096,0.040073 0.035694,0.012708 0.036313,-0.012077 7.38e-5,-0.051739 1.476e-4,-0.1034791 -1.845e-4,-0.155217 -1.107e-4,-0.00654 -1.107e-4,-0.013089 -2.952e-4,-0.019631 -1.107e-4,-0.00471 0.00321,-0.011666 -5.608e-4,-0.014119 -0.03772,-0.024507 -0.034584,-0.011979 -0.037493,0.01042 -0.00291,0.033449 -0.00633,0.066853 -0.010631,0.1001351 -0.00663,0.051527 -0.014882,0.1027849 -0.023249,0.1540207 -0.00851,0.055267 -0.016817,0.110572 -0.02255,0.1662628 -0.00211,0.019056 -0.0045,0.038076 -0.0066,0.057132 -4.28e-4,0.00389 -0.00433,0.00973 -0.00114,0.011682 0.010067,0.00617 0.033986,-0.00395 0.033848,0.0088 -1.96e-5,-0.00681 7.38e-5,-0.013616 2.213e-4,-0.020422 1.107e-4,-0.00381 8.007e-4,-0.010682 3.985e-4,-0.013587 -0.00627,0.00541 0.00197,-0.00131 0.00377,-0.00212 0.00973,-0.00694 0.017466,-0.012655 0.022573,-0.02484 -7.379e-4,0.00275 -0.00231,0.00552 2.583e-4,5.107e-4 0.00238,-0.00584 0.00332,-0.012089 0.0056,-0.017971 0.00574,-0.015117 0.011303,-0.030313 0.01776,-0.045105 0.00768,-0.018027 0.015132,-0.036158 0.022334,-0.054407 0.00713,-0.019574 0.013281,-0.039497 0.020058,-0.059208 0.00815,-0.021916 0.018346,-0.042892 0.02554,-0.065208 0.00793,-0.030654 0.00939,-0.061246 0.00141,-0.092269 -0.010573,-0.042172 -0.027677,-0.081482 -0.051525,-0.1171545 -0.013943,-0.021328 -0.04227,-3.143e-4 -0.028327,0.020994 z" />
        <path
           style="fill:#000000;fill-opacity:1;stroke:none;stroke-width:0.02;stroke-miterlimit:4;stroke-dasharray:none;stroke-opacity:1"
           id="path898"
           d="m 3.400815,4.9371361 c -0.027768,0.04288 -0.054899,0.086221 -0.082756,0.1290362 -0.018476,0.02963 -0.039157,0.057447 -0.060958,0.084342 -0.020647,0.02256 -0.038711,0.046862 -0.05316,0.07434 -0.010466,0.02196 -0.01658,0.045793 -0.020517,0.069952 -0.00218,0.015719 -0.00455,0.015209 0.034089,0.00314 2.952e-4,-1.179e-4 0.00445,-0.02349 0.00621,-0.031641 0.00198,-0.013275 0.00715,-0.021662 0.016795,-0.02965 0.013865,-0.010986 0.029811,-0.017098 0.046387,-0.021548 0.00962,-0.00276 0.019479,-0.00314 0.02936,-0.00314 0.024405,-1.178e-4 0.024296,-0.03683 -1.107e-4,-0.036748 v 0 c -0.01273,1.178e-4 -0.025443,7.778e-4 -0.037823,0.00429 -0.021336,0.0059 -0.041849,0.014163 -0.05953,0.028582 -0.015166,0.013381 -0.025227,0.028977 -0.028724,0.050013 -7.047e-4,0.00328 -0.00748,0.035332 -0.00687,0.03582 0.00945,0.00761 0.021923,0.00967 0.033273,0.013281 0.00187,5.932e-4 -0.00132,-0.0078 9.593e-4,-0.00617 0.00322,-0.020101 0.00817,-0.039978 0.016673,-0.058339 0.013131,-0.025398 0.030238,-0.047333 0.049121,-0.06818 0.022593,-0.027884 0.044027,-0.056727 0.063199,-0.087424 0.027792,-0.04272 0.054871,-0.085955 0.082565,-0.1287464 0.014089,-0.021217 -0.014092,-0.042433 -0.028182,-0.021215 z" />
        <path
           style="fill:#000000;fill-opacity:1;stroke:none;stroke-width:0.02;stroke-miterlimit:4;stroke-dasharray:none;stroke-opacity:1"
           id="path900"
           d="m 3.3380245,5.0839814 c 0.040066,0.014119 0.077211,0.037827 0.1069466,0.069896 0.00565,0.00609 0.010598,0.012878 0.015897,0.019317 0.025171,0.03489 0.038803,0.076702 0.057357,0.1155352 0.016641,0.033122 0.042007,0.057766 0.072176,0.076379 0.00335,0.00162 0.0067,0.00323 0.010055,0.00485 0.022311,0.01053 0.036298,-0.023067 0.013986,-0.033596 v 0 c -0.00229,-0.00105 -0.00459,-0.00209 -0.00688,-0.00314 -0.024524,-0.014737 -0.044998,-0.034547 -0.058585,-0.061187 -0.019946,-0.041534 -0.034401,-0.086413 -0.062248,-0.1231832 -0.00621,-0.00742 -0.012033,-0.015235 -0.018636,-0.022263 -0.033649,-0.035811 -0.075462,-0.062233 -0.1205601,-0.077934 -0.023462,-0.00715 -0.032964,0.028174 -0.0095,0.035329 z" />
        <path
           style="fill:#000000;fill-opacity:1;stroke:none;stroke-width:0.02;stroke-miterlimit:4;stroke-dasharray:none;stroke-opacity:1"
           id="path902"
           d="m 3.296664,5.3458634 c 0.041173,0.00851 0.075512,0.032525 0.1048697,0.063394 0.013697,0.016349 0.023761,0.03558 0.034422,0.054197 0.00472,0.00781 0.00229,0.00407 0.00727,0.011255 0.014608,0.020817 0.042257,-0.00118 0.02765,-0.021995 v 0 c -0.00348,-0.00484 -0.00162,-0.00208 -0.00545,-0.00839 -0.012145,-0.021206 -0.023716,-0.043035 -0.039729,-0.061308 -0.035503,-0.036822 -0.075089,-0.063687 -0.1245807,-0.073593 -0.024201,-0.00335 -0.028651,0.033092 -0.00445,0.036442 z" />
        <path
           style="fill:#000000;fill-opacity:1;stroke:none;stroke-width:0.02;stroke-miterlimit:4;stroke-dasharray:none;stroke-opacity:1"
           id="path904"
           d="m 5.2145136,4.0246271 c -1.106e-4,0.066488 0.02801,0.1201378 0.060604,0.1745086 0.031456,0.048107 0.062419,0.096519 0.084571,0.1503492 0.012179,0.033955 0.016304,0.070302 0.022748,0.1058023 0.0016,0.0097 0.00436,0.01906 0.00737,0.028335 0.00806,0.024528 0.040637,0.012394 0.032578,-0.012134 v 0 c -0.00252,-0.00757 -0.00478,-0.015231 -0.00606,-0.02318 -0.00694,-0.038185 -0.011454,-0.077266 -0.025048,-0.113635 -0.023048,-0.055472 -0.054394,-0.1058043 -0.087084,-0.1553395 -0.028425,-0.047208 -0.055259,-0.096044 -0.055173,-0.1539508 5.091e-4,-0.025979 -0.034004,-0.026736 -0.034506,-7.582e-4 z" />
      </g>
    </g>
  </g>
</svg>
