<?xml version="1.0" encoding="UTF-8" standalone="no"?>
<svg
   xmlns:dc="http://purl.org/dc/elements/1.1/"
   xmlns:cc="http://creativecommons.org/ns#"
   xmlns:rdf="http://www.w3.org/1999/02/22-rdf-syntax-ns#"
   xmlns:svg="http://www.w3.org/2000/svg"
   xmlns="http://www.w3.org/2000/svg"
   xmlns:sodipodi="http://sodipodi.sourceforge.net/DTD/sodipodi-0.dtd"
   xmlns:inkscape="http://www.inkscape.org/namespaces/inkscape"
   width="1in"
   height="1in"
   viewBox="0 0 25.4 25.4"
   version="1.1"
   id="svg4"
   sodipodi:docname="generic.sauron.1x1x3.000000.svg"
   inkscape:version="1.0.2-2 (e86c870879, 2021-01-15)">
  <metadata
     id="metadata10">
    <rdf:RDF>
      <cc:Work
         rdf:about="">
        <dc:format>image/svg+xml</dc:format>
        <dc:type
           rdf:resource="http://purl.org/dc/dcmitype/StillImage" />
        <dc:title></dc:title>
      </cc:Work>
    </rdf:RDF>
  </metadata>
  <defs
     id="defs8" />
  <sodipodi:namedview
     pagecolor="#ffffff"
     bordercolor="#666666"
     borderopacity="1"
     objecttolerance="10"
     gridtolerance="10"
     guidetolerance="10"
     inkscape:pageopacity="0"
     inkscape:pageshadow="2"
     inkscape:window-width="2490"
     inkscape:window-height="1814"
     id="namedview6"
     showgrid="false"
     units="in"
     inkscape:zoom="10.5"
     inkscape:cx="48"
     inkscape:cy="48"
     inkscape:window-x="0"
     inkscape:window-y="0"
     inkscape:window-maximized="0"
     inkscape:current-layer="svg4"
     inkscape:document-rotation="0" />
  <rect
     style="fill:#000000;fill-opacity:1;stroke-width:0"
     id="rect829"
     width="25.4"
     height="25.4"
     x="1.9073487e-07"
     y="1.9073487e-07" />
  <path
     style="display:inline;fill:#ff0000;stroke-width:0.0182034;fill-opacity:1"
     d="m 12.567929,15.724591 c -0.0025,-0.144171 -0.08618,-1.180592 -0.0961,-1.190515 -0.0065,-0.0065 -0.247752,-0.03136 -0.53566,-0.05513 -0.488945,-0.04007 -0.54087,-0.04779 -0.787412,-0.117053 -0.40084,-0.112608 -0.634874,-0.251404 -1.2810328,-0.759814 l -0.506756,-0.39869 -0.380338,-0.486806 -0.380331,-0.486809 v -0.125288 -0.125289 h 0.09059 c 0.08873,0 0.09621,-0.0045 0.364178,-0.221804 0.238723,-0.193481 0.317114,-0.244581 0.614802,-0.40062 0.187657,-0.09838 0.5214148,-0.257572 0.7416758,-0.353781 0.333172,-0.14555 0.457082,-0.189552 0.737237,-0.261673 0.354502,-0.09131 0.548099,-0.117294 1.028492,-0.137968 0.21164,-0.0093 0.400486,0.0016 1.113882,0.06351 0.472468,0.04097 0.875903,0.0745 0.896515,0.0745 0.03577,0 0.03749,0.01 0.03749,0.218428 v 0.218427 h -0.478453 -0.47846 l -0.09272,0.09559 -0.09273,0.09559 -0.08539,1.089455 c -0.04693,0.599199 -0.08153,1.093286 -0.07684,1.097965 0.0048,0.0048 0.164673,-0.02584 0.355559,-0.06716 l 0.347045,-0.07564 0.359057,-0.191034 c 0.315047,-0.167602 0.399103,-0.222631 0.685788,-0.448915 0.32125,-0.253609 0.330795,-0.263154 0.569394,-0.570418 0.230385,-0.296681 0.244202,-0.319182 0.272699,-0.444618 0.02963,-0.129562 0.0255,-0.199166 -0.0224,-0.366945 -0.0079,-0.0286 0.0076,-0.0317 0.158196,-0.0317 h 0.167258 l 0.315978,0.177492 0.315977,0.177492 3.45e-4,0.08646 3.44e-4,0.08645 -0.141104,7.69e-4 -0.14107,7.75e-4 -0.373167,0.466424 c -0.370125,0.462612 -0.376882,0.469738 -0.828258,0.873197 -0.444178,0.397033 -0.466762,0.414245 -0.942579,0.718541 l -0.487491,0.311774 -0.303021,0.08873 c -0.166673,0.04879 -0.30664,0.09231 -0.311051,0.09669 -0.0055,0.0055 -0.175183,1.210395 -0.185348,1.315904 -2.07e-4,0.0025 -0.03732,0.0045 -0.08232,0.0045 -0.0726,0 -0.08197,-0.0048 -0.08263,-0.04094 z m -0.09052,-2.266321 c -1.38e-4,-0.05758 -0.01654,-0.555204 -0.03618,-1.10586 -0.01964,-0.550652 -0.03608,-1.060572 -0.03618,-1.133157 l -2.06e-4,-0.131974 H 11.95132 11.497794 l -0.249991,0.09142 c -0.137487,0.05027 -0.37264,0.154164 -0.522563,0.230832 -0.271527,0.1389 -0.273077,0.140002 -0.406894,0.301678 -0.07388,0.08928 -0.134316,0.174701 -0.134316,0.189862 0,0.01516 0.01792,0.09583 0.0398,0.179284 l 0.0398,0.151718 0.41074,0.409423 0.41074,0.409421 0.327659,0.173012 c 0.325384,0.171841 0.330036,0.173564 0.673525,0.254608 0.190241,0.04486 0.3561,0.08225 0.368619,0.08304 0.01585,9.95e-4 0.02274,-0.03067 0.0224,-0.103236 z M 7.3865602,13.48652 C 7.3465502,13.4449 7.2852892,13.320227 7.1878772,13.082496 7.0536982,12.75494 7.0381922,12.726988 6.8602182,12.490887 l -0.186796,-0.24782 -0.4792,-0.219978 -0.479201,-0.219979 v -0.09603 -0.09603 l 0.826435,-0.695365 0.826442,-0.695371 0.283966,0.04149 c 0.156197,0.02274 0.294201,0.04176 0.306709,0.042 0.01654,3.44e-4 0.02274,0.04752 0.02274,0.17346 0,0.09514 -0.0062,0.173013 -0.01378,0.17315 -0.0076,1.38e-4 -0.113263,0.02378 -0.234933,0.05269 l -0.221322,0.05248 -0.211054,0.16712 -0.211054,0.167154 v 0.09118 c 0,0.08483 0.0076,0.100582 0.111195,0.225594 0.06116,0.07391 0.124634,0.138073 0.141105,0.142552 0.01654,0.0045 0.09545,0.02171 0.175528,0.03828 0.08008,0.01654 0.158195,0.03377 0.173598,0.03794 0.01895,0.0052 0.04507,-0.02343 0.08011,-0.08773 0.04607,-0.08442 0.103442,-0.134109 0.490844,-0.425522 0.345711,-0.260053 0.538975,-0.389056 0.911963,-0.608807 0.429633,-0.253126 0.522266,-0.299334 1.0042128,-0.50095 l 0.530928,-0.2221144 0.424751,-0.046828 c 0.636252,-0.070191 0.811745,-0.081975 1.398637,-0.094311 0.463002,-0.00965 0.589679,-0.0062 0.919271,0.026188 0.641228,0.062644 1.294382,0.2155678 1.965971,0.4602484 0.42443,0.154646 0.53324,0.204851 1.615493,0.745735 l 1.16041,0.579931 h 0.317149 0.31715 l 0.03067,-0.09218 c 0.02619,-0.07887 0.02757,-0.10861 0.0093,-0.206057 -0.01172,-0.06261 -0.02757,-0.123876 -0.03522,-0.136074 -0.01068,-0.01688 -0.07085,-0.01378 -0.267082,0.01551 -0.139347,0.02068 -0.275559,0.04207 -0.302677,0.04748 l -0.04934,0.0096 0.05444,-0.160538 c 0.04566,-0.13473 0.05362,-0.183936 0.04934,-0.305848 l -0.0052,-0.145308 0.150615,-0.0398 c 0.09183,-0.02412 0.207608,-0.07319 0.296613,-0.12546 0.08032,-0.04707 0.14965,-0.08197 0.154095,-0.07753 0.0045,0.0045 0.08125,0.159057 0.170669,0.343509 0.154199,0.318218 0.17384,0.34895 0.382461,0.598738 0.120946,0.144792 0.219392,0.275904 0.218806,0.291237 -6.2e-4,0.01551 -0.01895,0.07598 -0.04097,0.134661 l -0.03987,0.106716 -0.236655,0.09583 c -0.130147,0.05269 -0.426209,0.201612 -0.657896,0.330898 l -0.421242,0.235071 -0.431201,0.449808 c -0.237173,0.247407 -0.434482,0.449811 -0.438489,0.449811 -0.0038,0 -0.02446,-0.03342 -0.04538,-0.07457 l -0.03804,-0.0746 0.113435,-0.203025 c 0.0624,-0.111643 0.119947,-0.215292 0.127907,-0.230316 0.0079,-0.01516 0.0356,-0.120912 0.06144,-0.235312 0.03815,-0.168843 0.04259,-0.212088 0.02343,-0.229661 -0.01275,-0.01172 -0.239447,-0.158575 -0.50339,-0.325936 -0.389497,-0.246959 -0.592174,-0.360153 -1.075309,-0.600578 l -0.595307,-0.296223 -0.799641,-0.266427 -0.799644,-0.266428 -0.336755,-0.03666 c -0.185211,-0.01999 -0.602987,-0.05093 -0.928372,-0.0684 -0.528864,-0.02826 -0.637944,-0.02894 -1.028492,-0.0069 l -0.436879,0.02481 -0.42259,0.152442 c -0.267255,0.09641 -0.576772,0.226043 -0.8420208,0.352678 -0.358009,0.170911 -0.478718,0.239999 -0.824343,0.47172 l -0.40491,0.271493 -0.522176,0.525043 -0.52217,0.525047 -0.06364,0.155163 c -0.05599,0.136625 -0.06647,0.188346 -0.08766,0.433382 l -0.02412,0.278247 z"
     id="path1450-4" />
</svg>
