<?xml version="1.0" encoding="UTF-8" standalone="no"?>
<svg
   xmlns:dc="http://purl.org/dc/elements/1.1/"
   xmlns:cc="http://creativecommons.org/ns#"
   xmlns:rdf="http://www.w3.org/1999/02/22-rdf-syntax-ns#"
   xmlns:svg="http://www.w3.org/2000/svg"
   xmlns="http://www.w3.org/2000/svg"
   xmlns:sodipodi="http://sodipodi.sourceforge.net/DTD/sodipodi-0.dtd"
   xmlns:inkscape="http://www.inkscape.org/namespaces/inkscape"
   width="1in"
   height="1in"
   viewBox="0 0 25.4 25.4"
   version="1.1"
   id="svg4"
   sodipodi:docname="generic.tengwar.1x1x2.000000.svg"
   inkscape:version="1.0.2-2 (e86c870879, 2021-01-15)">
  <metadata
     id="metadata10">
    <rdf:RDF>
      <cc:Work
         rdf:about="">
        <dc:format>image/svg+xml</dc:format>
        <dc:type
           rdf:resource="http://purl.org/dc/dcmitype/StillImage" />
        <dc:title></dc:title>
      </cc:Work>
    </rdf:RDF>
  </metadata>
  <defs
     id="defs8" />
  <sodipodi:namedview
     pagecolor="#ffffff"
     bordercolor="#666666"
     borderopacity="1"
     objecttolerance="10"
     gridtolerance="10"
     guidetolerance="10"
     inkscape:pageopacity="0"
     inkscape:pageshadow="2"
     inkscape:window-width="2490"
     inkscape:window-height="1814"
     id="namedview6"
     showgrid="false"
     units="in"
     inkscape:zoom="1.8561553"
     inkscape:cx="-116.96387"
     inkscape:cy="83.121006"
     inkscape:window-x="830"
     inkscape:window-y="167"
     inkscape:window-maximized="0"
     inkscape:current-layer="svg4"
     inkscape:document-rotation="0" />
  <rect
     style="fill:#000000;fill-opacity:1;stroke-width:0"
     id="rect829"
     width="25.4"
     height="25.4"
     x="1.9073487e-07"
     y="1.9073487e-07" />
  <path
     style="display:inline;fill:#fefefe;stroke-width:0.0405782;fill-opacity:1"
     d="M 8.0904512,19.565361 7.97585,19.445766 8.1031392,18.937482 8.2304285,18.429194 8.2307349,17.261509 c 1.521e-4,-1.100487 0.010668,-1.266689 0.1826037,-2.88795 L 8.5956927,12.653297 V 10.164374 7.6754675 L 8.370803,6.8783285 C 8.2471227,6.4399015 8.1512472,6.0770415 8.1577615,6.0719705 c 0.00658,-0.005 0.1082912,-0.02767 0.2261608,-0.05023 0.1751362,-0.03353 0.312308,-0.02383 0.7506978,0.05295 l 0.5363943,0.09395 0.2117476,-0.09672 c 0.116462,-0.05318 0.296842,-0.155253 0.400866,-0.226819 l 0.189095,-0.130104 0.174138,0.0846 c 0.127924,0.06217 0.169484,0.103978 0.156637,0.157704 -0.0095,0.04022 -0.191637,0.903617 -0.404461,1.918669 l -0.386995,1.84556 0.06984,0.154867 c 0.03841,0.08519 0.08516,0.1643555 0.103842,0.1759075 0.01861,0.01135 0.13015,-0.03398 0.247629,-0.1011855 l 0.213586,-0.122205 0.407977,-0.864514 0.407982,-0.864513 0.216854,-1.065176 0.216878,-1.065176 0.550873,-4.77e-4 c 0.496796,-4.13e-4 0.70086,-0.02715 1.043554,-0.136708 0.08008,-0.0256 0.09054,-0.007 0.133122,0.237757 0.04326,0.248314 0.03791,0.296866 -0.08217,0.748532 -0.117279,0.441105 -0.186939,0.592344 -0.803166,1.743602 -0.665662,1.243666 -0.682541,1.270182 -1.256205,1.9735365 l -0.581474,0.71294 -0.300614,0.899848 c -0.165331,0.494916 -0.300614,0.922393 -0.300614,0.949943 0,0.085 0.21143,0.251558 0.401601,0.316364 0.307743,0.104864 0.395187,0.08167 0.815745,-0.216537 0.351117,-0.248958 0.460393,-0.36362 1.225393,-1.285927 0.839326,-1.011911 0.840211,-1.013189 1.294055,-1.864747 l 0.454156,-0.8521385 0.355768,-1.555142 c 0.195677,-0.855328 0.362013,-1.559602 0.369644,-1.565052 0.0077,-0.0054 0.403735,-0.06753 0.880223,-0.137934 0.783993,-0.11585 0.877284,-0.122364 0.981446,-0.0685 0.06333,0.03273 0.129173,0.0823 0.146378,0.110152 0.01702,0.02785 0.06921,0.279049 0.115555,0.558239 l 0.08425,0.507618 -0.131752,0.486934 c -0.08838,0.326605 -0.265437,0.784191 -0.537736,1.389868 l -0.405975,0.90295 -0.778159,1.0853785 -0.778158,1.085376 -1.566529,1.576178 c -0.98454,0.990602 -1.722166,1.697387 -1.985463,1.902444 -0.473215,0.368532 -0.94043,0.929156 -0.94043,1.128447 0,0.06094 0.05513,0.580828 0.122545,1.155293 0.0799,0.68105 0.108927,1.060895 0.08341,1.091644 -0.02156,0.02599 -0.163401,0.131261 -0.315286,0.234064 -0.263791,0.178518 -0.292502,0.188051 -0.6413599,0.212769 -0.8556728,0.06065 -0.8626592,0.06215 -1.0768288,0.231435 -0.1094487,0.08652 -0.2143806,0.157318 -0.2331721,0.157318 -0.018839,0 -0.085752,-0.05384 -0.1487841,-0.119595 z"
     id="path847" />
</svg>
