<?xml version="1.0" encoding="UTF-8" standalone="no"?>
<svg
   xmlns:dc="http://purl.org/dc/elements/1.1/"
   xmlns:cc="http://creativecommons.org/ns#"
   xmlns:rdf="http://www.w3.org/1999/02/22-rdf-syntax-ns#"
   xmlns:svg="http://www.w3.org/2000/svg"
   xmlns="http://www.w3.org/2000/svg"
   xmlns:sodipodi="http://sodipodi.sourceforge.net/DTD/sodipodi-0.dtd"
   xmlns:inkscape="http://www.inkscape.org/namespaces/inkscape"
   viewBox="0 0 25.4 25.4"
   height="96"
   width="96"
   version="1.1"
   id="svg7796"
   sodipodi:docname="die.d12White.1x1x07.svg"
   inkscape:version="1.0.2-2 (e86c870879, 2021-01-15)">
  <metadata
     id="metadata7802">
    <rdf:RDF>
      <cc:Work
         rdf:about="">
        <dc:format>image/svg+xml</dc:format>
        <dc:type
           rdf:resource="http://purl.org/dc/dcmitype/StillImage" />
      </cc:Work>
    </rdf:RDF>
  </metadata>
  <defs
     id="defs7800">
    <filter
       inkscape:collect="always"
       style="color-interpolation-filters:sRGB"
       id="filter855"
       x="-1.2675492e-06"
       width="1.0000025"
       y="-1.1392861e-06"
       height="1.0000023">
      <feGaussianBlur
         inkscape:collect="always"
         stdDeviation="3.3244315e-06"
         id="feGaussianBlur857" />
    </filter>
    <inkscape:path-effect
       effect="envelope"
       id="path-effect1469"
       is_visible="true"
       lpeversion="1"
       yy="true"
       xx="true"
       bendpath1="m 15.855191,19.286819 -2.961434,2.8855"
       bendpath2="M 13.121561,22.020451 7.7302292,20.729569"
       bendpath3="m 8.9831442,18.869179 -1.328849,1.784456"
       bendpath4="M 15.855191,19.286819 8.9451772,18.945115"
       bendpath1-nodetypes="cc"
       bendpath2-nodetypes="cc"
       bendpath3-nodetypes="cc"
       bendpath4-nodetypes="cc" />
  </defs>
  <sodipodi:namedview
     pagecolor="#ffffff"
     bordercolor="#666666"
     borderopacity="1"
     objecttolerance="10"
     gridtolerance="10"
     guidetolerance="10"
     inkscape:pageopacity="0"
     inkscape:pageshadow="2"
     inkscape:window-width="1691"
     inkscape:window-height="1025"
     id="namedview7798"
     showgrid="false"
     inkscape:zoom="6.96875"
     inkscape:cx="50.008969"
     inkscape:cy="49.29148"
     inkscape:window-x="3835"
     inkscape:window-y="0"
     inkscape:window-maximized="0"
     inkscape:current-layer="svg7796"
     inkscape:document-rotation="0" />
  <g
     id="g950">
    <g
       aria-label="9"
       id="text940"
       style="font-size:4.23333px;line-height:1.25;font-family:aaatord;-inkscape-font-specification:aaatord;display:inline;stroke-width:0.264583"
       transform="matrix(1,-1.428148,0.17632698,1,-12.616236,17.213885)">
      <path
         d="m 26.267595,33.775195 0.504362,0.06821 0.388606,0.183968 0.322461,0.274918 0.227376,0.320394 0.138493,0.436149 -0.02274,0.413411 -0.206705,0.504361 -0.252181,0.320394 -0.320394,0.252181 -0.367935,0.206705 -0.434082,0.136426 -0.367936,0.02274 -1.008723,-0.434082 0.297656,-0.183968 q 0.155029,-0.08682 0.274918,-0.274918 l 0.206706,-0.09302 v 0.276986 q 0.07441,0.173632 0.252181,0.320393 l 0.229443,0.04548 h 0.252181 l 0.343131,-0.206705 0.229443,-0.343131 0.138493,-0.436149 0.02274,-0.274918 -0.665592,0.16123 -0.527099,0.04547 -0.436149,-0.138493 -0.320393,-0.25218 -0.206706,-0.365869 q 0.0041,-0.225309 0.115755,-0.458887 l 0.343132,-0.25218 0.390673,-0.161231 z m -0.25218,0.229443 -0.206706,0.136426 -0.115755,0.229443 0.02274,0.299723 0.09302,0.227376 0.159163,0.161231 0.206706,0.138492 0.252181,0.06821 0.32246,-0.02274 0.227377,-0.09302 0.07028,-0.204638 -0.09302,-0.229443 -0.274918,-0.390674 -0.411345,-0.252181 z m 1.215428,3.11712 0.136426,0.02274 -0.06821,0.138492 -0.183968,0.159164 -0.252181,0.09302 -0.297656,0.04547 -0.94051,-0.09095 -0.365869,0.113688 0.06821,-0.16123 0.183968,-0.159164 0.252181,-0.09302 0.297656,-0.04548 0.595312,0.09302 H 27.0014 q 0.113688,-0.03721 0.229443,-0.115755 z"
         style="stroke-width:0.264583"
         id="path943" />
    </g>
    <g
       aria-label="0"
       id="text944"
       style="font-size:4.23333px;line-height:1.25;font-family:aaatord;-inkscape-font-specification:aaatord;display:inline;stroke-width:0.264583"
       transform="matrix(-0.70020754,-1,1,0,5.4797413,40.463807)">
      <path
         d="m 34.423444,33.775195 0.363802,0.02687 0.312125,0.07648 0.235644,0.157096 0.33693,0.44235 0.10542,0.260449 0.103353,0.599446 -0.05168,0.415478 -0.208773,0.574642 -0.338997,0.44235 -0.494026,0.285253 -0.572575,0.10542 -0.363801,-0.10542 -0.417546,-0.363801 -0.157096,-0.233578 -0.181901,-0.599446 v -0.702799 l 0.235645,-0.572574 0.33693,-0.417545 0.469221,-0.287321 z m -1.61437,0.02687 q 0.14676,0.03721 0.1819,0.206706 l -0.05168,0.314192 -0.07855,1.744595 0.05168,0.702799 0.07855,0.285253 0.208773,0.417546 -0.130224,0.130224 -0.181901,-0.07855 -0.626318,0.07855 q -0.146761,-0.02067 -0.155029,-0.181901 l 0.155029,-0.208772 0.10542,-0.624251 -0.02687,-1.459341 -0.07855,-0.260449 -0.285254,-0.208773 -0.208772,0.05374 -0.130225,-0.235644 z m 1.327049,0.467155 -0.312125,0.235644 -0.157096,0.338997 -0.07648,0.44235 0.05168,0.44235 0.155029,0.390673 0.235644,0.285254 0.312126,0.183968 0.44235,0.02481 0.312125,-0.181901 0.181901,-0.363802 0.05374,-0.44235 -0.05374,-0.469222 -0.155029,-0.365868 -0.235645,-0.260449 -0.33693,-0.181901 q -0.186035,-0.06615 -0.417545,-0.07855 z"
         style="stroke-width:0.264583"
         id="path946" />
    </g>
    <g
       aria-label="7"
       id="text932-3"
       style="font-size:7.76111px;line-height:1.25;font-family:aaatord;-inkscape-font-specification:aaatord;display:inline;stroke-width:0.264583;filter:url(#filter855)"
       transform="translate(-2.5000214,-30.875965)">
      <path
         d="m 14.182515,40.074371 2.743673,0.663181 1.421102,-0.09474 -0.18948,0.424436 -0.708656,0.428225 -0.568441,0.564651 -0.992876,1.280886 -0.807186,1.466577 -0.28422,0.848872 v 0.617705 l 0.522965,0.519176 -0.37896,0.144005 -0.992877,0.140215 q -0.443383,-0.0076 -0.617705,-0.4737 l -0.09474,-0.473701 0.04926,-0.519175 0.329696,-0.803397 0.947401,-1.326361 1.750797,-1.656057 -0.56844,-0.234956 -1.845538,-0.428225 -0.947401,0.18948 -0.424435,0.708656 q -0.375171,-0.238745 -0.473701,-0.708656 l 1.277097,-0.992876 q 0.363802,-0.170532 0.852661,-0.284221 z"
         style="font-size:7.76111px;stroke-width:0.264583"
         id="path969" />
    </g>
    <path
       style="fill:#000000;stroke-width:0.0178776"
       d="m 9.0449709,18.92418 c -9.895e-4,2.61e-4 0.07146,-0.01888 0.070471,-0.01862 0.0823,0.01031 0.1641929,0.02122 0.245548,0.0326 0.08135,0.01138 0.16236,0.02327 0.2428582,0.03554 0.1926324,0.01074 0.3856961,0.02359 0.575302,0.03706 0.541143,0.03843 0.612662,0.04887 1.38857,0.138101 0.281429,0.03236 0.536613,0.06072 0.817264,0.09099 0.428073,0.02549 0.787716,0.04277 1.217184,0.06365 0.395774,0.01924 0.820246,0.04009 1.205645,0.06893 0.143188,-0.0107 0.288034,-0.02137 0.431669,-0.0315 0.23775,-0.01677 0.43319,-0.02706 0.433893,-0.02486 6.51e-4,0.0022 -0.01489,0.03358 -0.03634,0.07002 -0.03073,0.0522 -0.07604,0.09694 -0.237097,0.22082 -0.06653,0.05117 -0.134287,0.102417 -0.202176,0.153253 -0.008,0.02351 -0.01634,0.04719 -0.02504,0.07102 -0.01367,0.03745 -0.0305,0.104398 -0.03543,0.141168 -0.0031,0.02326 -0.0066,0.04674 -0.01036,0.07041 -0.0061,0.0031 -0.08388,0.0418 -0.09002,0.04486 -0.06595,0.03285 -0.09546,0.0412 -0.112144,0.03197 -0.01252,-0.0069 -0.288851,-0.146453 -0.670022,-0.266075 -0.230012,-0.07219 -0.476366,-0.135436 -0.728302,-0.193015 2.58e-4,-3.3e-5 -0.08736,0.01094 -0.08711,0.01091 -0.04785,0.006 -0.09484,0.01417 -0.104348,0.01827 -0.0094,0.0041 -0.01403,0.03356 -0.01114,0.066 0.0018,0.01966 0.0032,0.03948 0.0043,0.05946 0.0965,0.04834 0.189647,0.09871 0.278955,0.151462 0.08932,0.05275 0.174951,0.107975 0.256447,0.16608 0.12698,0.04514 0.250113,0.09353 0.367717,0.146027 0.117632,0.05251 0.230324,0.109404 0.336461,0.171755 -0.05878,0.05604 -0.116515,0.111476 -0.174271,0.167452 -0.154022,0.149269 -0.208664,0.217319 -0.274377,0.334006 -0.01587,0.02818 -0.02441,0.02761 -0.120116,0.0088 -0.104613,-0.02057 -0.105194,-0.02517 -0.237812,-0.114418 -0.124525,-0.08381 -0.144424,-0.131927 -0.438629,-0.393925 -0.525739,-0.468172 -0.149443,-0.08039 -0.509212,-0.462838 -0.05818,-0.06185 -0.11952,-0.121707 -0.18419,-0.179742 -0.113498,-0.03847 -0.229685,-0.07604 -0.34735,-0.11268 -0.19441,-0.06053 -0.369647,-0.108879 -0.382523,-0.110107 -0.03954,-0.0038 -0.156759,0.0348 -0.22276,0.07332 -0.107169,0.06255 -0.111358,0.08158 -0.06209,0.194137 0.05427,0.123993 0.05808,0.09515 0.303845,0.369448 0.32114,0.358437 0.148667,0.204834 0.467568,0.468797 0.07624,0.06311 0.150009,0.127825 0.221107,0.19424 0.17054,0.07729 0.336015,0.15947 0.491859,0.247959 0.257834,0.146401 0.440876,0.293213 0.440526,0.296187 -3.75e-4,0.003 -0.09056,0.127257 -0.200504,0.271553 -0.177777,0.233321 -0.210821,0.261148 -0.254261,0.27937 -0.02879,0.01208 -0.06404,0.02233 -0.07821,0.02287 -0.01408,5e-4 -0.111849,-0.02169 -0.220792,-0.04591 -0.06601,-0.01468 -0.133029,-0.02844 -0.200833,-0.04143 -0.0437,-0.03109 -0.08807,-0.06158 -0.132998,-0.09152 -0.092,-0.06131 -0.201632,-0.15565 -0.351549,-0.289091 -0.07384,-0.06573 -0.150045,-0.13055 -0.228248,-0.194365 -0.06748,-0.103048 -0.139815,-0.204781 -0.216993,-0.304807 -0.07718,-0.100028 -0.159168,-0.1983 -0.245977,-0.294464 -0.09167,-0.177699 -0.197417,-0.348633 -0.316314,-0.510187 -0.224263,-0.304724 -0.423557,-0.497295 -0.472551,-0.563464 -0.08919,-0.120463 -0.278926,-0.236611 -0.378321,-0.246058 -0.0261,-0.0025 -0.2911931,-0.0164 -0.5806569,-0.02682 -0.3470928,-0.01249 -0.5451937,-0.01797 -0.5569211,-0.02359 -0.00966,-0.0046 -0.042116,-0.03414 -0.072126,-0.06419 -0.053069,-0.05316 -0.053413,-0.05644 -0.017917,-0.120473 0.083591,-0.150816 0.072636,-0.158003 0.012972,-0.195789 -0.032739,-0.02073 -0.058842,-0.04033 -0.057042,-0.04365 0.00181,-0.0033 0.035851,-0.01462 0.074847,-0.02489 0,0 2.57e-5,-2e-6 2.57e-5,-2e-6 z"
       id="path847-4"
       inkscape:path-effect="#path-effect1469"
       inkscape:original-d="m 14.090128,29.449316 -0.05049,-0.05269 0.05608,-0.223935 0.05608,-0.223937 1.36e-4,-0.514449 c 6.7e-5,-0.484843 0.0047,-0.558067 0.08045,-1.272348 l 0.08034,-0.757899 V 25.30751 24.210968 l -0.09908,-0.351197 c -0.05449,-0.193158 -0.09673,-0.353024 -0.09386,-0.355257 0.0029,-0.0022 0.04771,-0.01219 0.09964,-0.02213 0.07716,-0.01477 0.137594,-0.0105 0.330736,0.02333 l 0.236321,0.04139 0.09329,-0.04261 c 0.05131,-0.02343 0.13078,-0.0684 0.17661,-0.09993 l 0.08331,-0.05732 0.07672,0.03727 c 0.05636,0.02739 0.07467,0.04581 0.06901,0.06948 -0.0042,0.01772 -0.08443,0.398108 -0.178194,0.845311 l -0.170499,0.813101 0.03077,0.06823 c 0.01692,0.03753 0.03752,0.07241 0.04575,0.0775 0.0082,0.005 0.05734,-0.01497 0.109098,-0.04458 l 0.0941,-0.05384 0.179744,-0.38088 0.179745,-0.38088 0.09554,-0.469286 0.09555,-0.469286 0.242699,-2.1e-4 c 0.218874,-1.82e-4 0.308779,-0.01196 0.45976,-0.06023 0.03528,-0.01128 0.03989,-0.0031 0.05865,0.104749 0.01906,0.1094 0.0167,0.130791 -0.0362,0.329782 -0.05167,0.194338 -0.08236,0.26097 -0.353852,0.768181 -0.293278,0.547924 -0.300714,0.559606 -0.553454,0.869484 l -0.256181,0.314101 -0.132442,0.396447 c -0.07284,0.218046 -0.132442,0.40638 -0.132442,0.418518 0,0.03745 0.09315,0.110829 0.176934,0.139381 0.135583,0.0462 0.174108,0.03598 0.359394,-0.0954 0.154692,-0.109684 0.202836,-0.160201 0.539873,-0.566543 0.369783,-0.445819 0.370173,-0.446382 0.570124,-0.821554 l 0.200088,-0.375428 0.156741,-0.685151 c 0.08621,-0.376833 0.159493,-0.687116 0.162855,-0.689517 0.0034,-0.0024 0.177874,-0.02975 0.387801,-0.06077 0.345405,-0.05104 0.386506,-0.05391 0.432397,-0.03018 0.0279,0.01442 0.05691,0.03626 0.06449,0.04853 0.0075,0.01227 0.03049,0.122941 0.05091,0.245944 l 0.03712,0.223642 -0.05805,0.21453 c -0.03894,0.143893 -0.116944,0.345492 -0.236911,0.612336 l -0.178861,0.397814 -0.342835,0.478187 -0.342834,0.478186 -0.690168,0.694419 c -0.43376,0.436431 -0.758737,0.74782 -0.874738,0.838162 -0.208485,0.162365 -0.414327,0.40936 -0.414327,0.497162 0,0.02685 0.02429,0.255896 0.05399,0.508989 0.0352,0.300051 0.04799,0.4674 0.03675,0.480947 -0.0095,0.01145 -0.07199,0.05783 -0.138906,0.103122 -0.116219,0.07865 -0.128869,0.08285 -0.282565,0.09374 -0.376985,0.02672 -0.380064,0.02738 -0.47442,0.101963 -0.04822,0.03812 -0.09445,0.06931 -0.10273,0.06931 -0.0083,0 -0.03778,-0.02372 -0.06555,-0.05269 z" />
    <g
       aria-label="8"
       id="text936"
       style="font-size:4.23333px;line-height:1.25;font-family:aaatord;-inkscape-font-specification:aaatord;display:inline;stroke-width:0.264583"
       transform="matrix(0,1,-1,-0.83909963,41.207474,25.407884)">
      <path
         d="m 19.998971,33.775198 h 0.398941 l 0.401009,0.250113 0.1757,0.376205 v 0.351399 l -0.250114,0.401009 -0.299723,0.198437 -0.276985,0.05168 0.551904,0.148828 0.299723,0.225309 0.175699,0.351399 v 0.376204 l -0.225309,0.401009 -0.299723,0.225309 -0.326595,0.1757 -0.802017,0.250113 -0.398942,0.02481 -0.527099,-0.09922 -0.324528,-0.227376 -0.150895,-0.349332 -0.0248,-0.225309 0.04961,-0.225309 0.1757,-0.3514 0.274918,-0.250113 0.326595,-0.1757 -0.3514,-0.1757 -0.225309,-0.299723 -0.0248,-0.401009 0.225309,-0.401008 0.299723,-0.225309 0.351399,-0.1757 z m -0.702799,0.376204 q -0.144694,0.152962 -0.148828,0.401009 0.03307,0.181901 0.1757,0.374137 l 0.324527,0.227376 0.401009,0.148828 0.124023,-0.401009 -0.148828,-0.401009 -0.30179,-0.250113 q -0.183968,-0.06408 -0.425813,-0.09922 z m -0.225309,1.577163 -0.148828,0.225309 -0.101286,0.276986 0.05168,0.299723 0.148828,0.200504 0.450619,0.274919 0.30179,0.07648 0.324527,0.0248 q 0.124024,-0.03514 0.200505,-0.150895 l 0.0248,-0.326595 -0.07441,-0.299723 -0.326594,-0.376204 -0.250114,-0.124023 -0.274918,-0.07648 z"
         style="stroke-width:0.264583"
         id="path940" />
    </g>
    <g
       aria-label="2"
       id="text892"
       style="font-size:4.23333px;line-height:1.25;font-family:aaatord;-inkscape-font-specification:aaatord;display:inline;fill:#7f7f7f;fill-opacity:1;stroke-width:0.264583"
       transform="matrix(-1,0.36397023,0.46630766,-1,-29.341149,49.546398)">
      <path
         d="m -21.130912,33.775198 h 0.394807 l 0.322461,0.04961 0.272851,0.124023 0.171566,0.196371 0.124023,0.272851 v 0.345198 l -0.223242,0.545703 -0.667659,0.864029 -0.76481,0.61805 1.087271,0.198437 h 0.692464 l 0.297656,-0.07441 0.121956,-0.272851 0.07441,-0.07235 0.173633,0.07235 0.04961,0.248046 -0.02481,0.07441 -0.667659,0.494027 -0.272851,0.09922 -0.370003,0.02481 -1.632974,-0.272851 -0.56844,0.07441 -0.02481,-0.07441 0.444417,-0.345199 0.965315,-0.965314 0.494026,-0.665592 0.04961,-0.297656 -0.04961,-0.345199 -0.121956,-0.248046 -0.173633,-0.223242 -0.272851,-0.09922 -0.320394,0.04961 -0.272851,0.124024 -0.04961,0.248046 0.07441,0.270785 -0.173633,0.223242 -0.223242,-0.124024 -0.04754,-0.245979 0.121956,-0.347266 0.173633,-0.223242 0.248046,-0.146761 z"
         style="fill:#7f7f7f;fill-opacity:1;stroke-width:0.264583"
         id="path922" />
    </g>
  </g>
</svg>
