<?xml version="1.0" encoding="UTF-8" standalone="no"?>
<svg
   xmlns:dc="http://purl.org/dc/elements/1.1/"
   xmlns:cc="http://creativecommons.org/ns#"
   xmlns:rdf="http://www.w3.org/1999/02/22-rdf-syntax-ns#"
   xmlns:svg="http://www.w3.org/2000/svg"
   xmlns="http://www.w3.org/2000/svg"
   xmlns:sodipodi="http://sodipodi.sourceforge.net/DTD/sodipodi-0.dtd"
   xmlns:inkscape="http://www.inkscape.org/namespaces/inkscape"
   viewBox="0 0 25.4 25.4"
   height="96"
   width="96"
   version="1.1"
   id="svg7830"
   sodipodi:docname="die.d12White.1x1x08.svg"
   inkscape:version="1.0.2-2 (e86c870879, 2021-01-15)">
  <metadata
     id="metadata7836">
    <rdf:RDF>
      <cc:Work
         rdf:about="">
        <dc:format>image/svg+xml</dc:format>
        <dc:type
           rdf:resource="http://purl.org/dc/dcmitype/StillImage" />
      </cc:Work>
    </rdf:RDF>
  </metadata>
  <defs
     id="defs7834" />
  <sodipodi:namedview
     pagecolor="#ffffff"
     bordercolor="#666666"
     borderopacity="1"
     objecttolerance="10"
     gridtolerance="10"
     guidetolerance="10"
     inkscape:pageopacity="0"
     inkscape:pageshadow="2"
     inkscape:window-width="1833"
     inkscape:window-height="1032"
     id="namedview7832"
     showgrid="false"
     inkscape:zoom="6.96875"
     inkscape:cx="33.962092"
     inkscape:cy="52.304933"
     inkscape:window-x="-10"
     inkscape:window-y="0"
     inkscape:window-maximized="0"
     inkscape:current-layer="svg7830"
     inkscape:document-rotation="0" />
  <g
     id="g918">
    <path
       style="fill:#7e7e7e;fill-opacity:1;stroke-width:0.0117494"
       d="m 10.475649,3.6337996 0.01932,0.023948 -0.119636,0.1705343 -0.119638,0.1705358 -0.178915,0.3590789 C 9.9082066,4.6962958 9.8793026,4.7485769 9.5745675,5.2663306 L 9.2512503,5.815692 8.8701095,6.5809955 8.4889712,7.3462941 8.4407548,7.5662331 c -0.026522,0.1209673 -0.050603,0.2218112 -0.053519,0.2240994 -0.00293,0.00228 -0.039799,0.020627 -0.081963,0.040756 -0.062648,0.029909 -0.1062104,0.04228 -0.2384191,0.067732 l -0.1617649,0.031143 -0.084348,0.053436 c -0.04639,0.029386 -0.1212572,0.080959 -0.1663778,0.1146061 l -0.082022,0.061167 -0.044232,-0.00652 c -0.03249,-0.0048 -0.039736,-0.013004 -0.02729,-0.030961 0.00929,-0.013434 0.2013088,-0.2992949 0.4266397,-0.6352252 l 0.4097084,-0.6107905 7.826e-4,-0.039803 c 4.327e-4,-0.021895 -0.0028,-0.041005 -0.00716,-0.042467 -0.00438,-0.00141 -0.047944,0.025014 -0.096816,0.058827 L 8.1451118,6.9137093 7.8787454,7.225192 7.6123775,7.5366753 7.3780472,7.8884689 7.1437093,8.2402651 6.9627302,8.3020627 c -0.1632104,0.055726 -0.2343187,0.086784 -0.3636367,0.1588251 -0.030218,0.016835 -0.030811,0.012297 -0.00731,-0.058208 0.023818,-0.071511 0.033013,-0.08704 0.1416098,-0.2393577 C 6.8394577,8.0145645 6.8854939,7.9602648 7.2641597,7.5373067 7.6732158,7.0804001 7.682819,7.0703581 7.9789177,6.7898863 L 8.2790492,6.505593 8.5155685,6.1952612 C 8.6456519,6.0245794 8.7555404,5.8779971 8.7597594,5.8695257 8.7727763,5.8433886 8.7288482,5.815838 8.6763204,5.817194 8.5913161,5.8193911 8.5590475,5.8363101 8.3752713,5.9750697 8.2218408,6.0909157 8.1683957,6.1384022 7.7759334,6.5076115 7.345341,6.9126909 7.3448546,6.9131829 7.0654093,7.2258153 L 6.785773,7.538661 6.4307929,8.0566578 C 6.2355521,8.3415565 6.0730786,8.5767246 6.069738,8.5792547 c -0.00337,0.00256 -0.1429266,0.065948 -0.3101867,0.1409226 -0.275203,0.1233622 -0.306837,0.1358059 -0.3327957,0.1309024 -0.015784,-0.00298 -0.029817,-0.010852 -0.031202,-0.017493 -0.00133,-0.00665 0.020005,-0.078062 0.047538,-0.1587164 L 5.4931564,8.5282149 5.6109933,8.363744 C 5.6900333,8.2534304 5.8182495,8.0929156 6.0004223,7.8762053 L 6.2720171,7.5531281 6.6937732,7.1323037 7.1155283,6.7114803 7.8713424,6.0515129 C 8.3463598,5.636734 8.6968287,5.3368579 8.8146963,5.2443394 9.0265347,5.0780617 9.265819,4.8533904 9.2963374,4.7921115 9.30567,4.7733723 9.3671768,4.6196866 9.4330093,4.4505922 9.5110639,4.2501221 9.5596979,4.1365746 9.5727849,4.1242647 9.5838459,4.1138603 9.6465463,4.0656169 9.7121677,4.0170085 9.8261339,3.9325948 9.8370222,3.9264504 9.9553721,3.8798076 10.245662,3.7653966 10.248186,3.7641538 10.344442,3.6881323 c 0.04919,-0.038854 0.09449,-0.072365 0.100665,-0.074469 0.0062,-0.00211 0.01992,0.00696 0.03055,0.020123 z"
       id="path847" />
    <g
       aria-label="8"
       id="text936-5"
       style="font-size:7.76111px;line-height:1.25;font-family:aaatord;-inkscape-font-specification:aaatord;display:inline;stroke-width:0.264583"
       transform="translate(-9.3802495,-30.874936)">
      <path
         d="m 22.747222,40.084708 h 0.731394 l 0.735183,0.458542 0.322116,0.689708 v 0.644232 l -0.458542,0.735184 -0.549493,0.363802 -0.507807,0.09474 1.011825,0.272851 0.549492,0.413067 0.322117,0.644233 v 0.689708 l -0.413067,0.735183 -0.549493,0.413067 -0.598757,0.322116 -1.470367,0.458543 -0.731393,0.04548 -0.966349,-0.181901 -0.594968,-0.416857 -0.276641,-0.640443 -0.04548,-0.413067 0.09095,-0.413067 0.322116,-0.644232 0.504018,-0.458542 0.598757,-0.322117 -0.644233,-0.322116 -0.413067,-0.549493 -0.04547,-0.735183 0.413067,-0.735183 0.549493,-0.413067 0.644232,-0.322117 z m -1.288466,0.689708 q -0.265272,0.28043 -0.272851,0.735183 0.06063,0.333485 0.322116,0.685918 l 0.594968,0.416857 0.735183,0.272851 0.227377,-0.735183 -0.272852,-0.735183 -0.553282,-0.458542 Q 21.90214,40.838839 21.458756,40.774416 Z m -0.413066,2.891468 -0.272852,0.413067 -0.185691,0.507807 0.09474,0.549492 0.272851,0.367592 0.826134,0.504017 0.553282,0.140216 0.594968,0.04548 q 0.227376,-0.06442 0.367592,-0.276641 l 0.04547,-0.598758 -0.136426,-0.549492 -0.598757,-0.689708 -0.458543,-0.227377 -0.504017,-0.140215 z"
         style="font-size:7.76111px;stroke-width:0.264583"
         id="path972" />
    </g>
    <g
       aria-label="2"
       id="text892"
       style="font-size:4.23333px;line-height:1.25;font-family:aaatord;-inkscape-font-specification:aaatord;display:inline;stroke-width:0.264583"
       transform="matrix(-0.70020754,-1,1,0,-33.087324,-14.460283)">
      <path
         d="m -21.130912,33.775198 h 0.394807 l 0.322461,0.04961 0.272851,0.124023 0.171566,0.196371 0.124023,0.272851 v 0.345198 l -0.223242,0.545703 -0.667659,0.864029 -0.76481,0.61805 1.087271,0.198437 h 0.692464 l 0.297656,-0.07441 0.121956,-0.272851 0.07441,-0.07235 0.173633,0.07235 0.04961,0.248046 -0.02481,0.07441 -0.667659,0.494027 -0.272851,0.09922 -0.370003,0.02481 -1.632974,-0.272851 -0.56844,0.07441 -0.02481,-0.07441 0.444417,-0.345199 0.965315,-0.965314 0.494026,-0.665592 0.04961,-0.297656 -0.04961,-0.345199 -0.121956,-0.248046 -0.173633,-0.223242 -0.272851,-0.09922 -0.320394,0.04961 -0.272851,0.124024 -0.04961,0.248046 0.07441,0.270785 -0.173633,0.223242 -0.223242,-0.124024 -0.04754,-0.245979 0.121956,-0.347266 0.173633,-0.223242 0.248046,-0.146761 z"
         style="stroke-width:0.264583"
         id="path922" />
    </g>
    <g
       aria-label="5"
       id="text924"
       style="font-size:4.23333px;line-height:1.25;font-family:aaatord;-inkscape-font-specification:aaatord;display:inline;stroke-width:0.264583"
       transform="matrix(-0.82364025,0.78598118,-1.1762802,0,53.748618,20.669963)">
      <path
         d="m -0.96697934,33.775195 1.61230333,0.183968 0.34313122,-0.10542 0.18396799,0.05374 -0.1054199,0.132291 -0.26458309,0.183968 -0.68626244,0.21084 -0.42167934,0.02687 -1.18855693,-0.159164 -0.3431312,0.107487 v 0.816487 l 0.5539709,-0.343131 0.3700029,-0.07855 0.42167933,-0.02687 0.37000295,0.08061 0.34313122,0.132292 0.26458311,0.157096 0.23771139,0.21084 0.21083967,0.264583 0.10541983,0.343131 -0.026872,0.370003 -0.13229158,0.370003 -0.18396794,0.262516 -0.23771139,0.212907 -0.60771433,0.289388 -0.76481056,0.132291 H -2.207213 l 0.183968,-0.634586 0.053743,-0.394808 q 0.1570962,0.06408 0.2377114,0.237712 l 0.2108397,0.21084 0.3162595,0.132291 0.37000291,0.07855 h 0.44855106 l 0.34313122,-0.10542 0.23771139,-0.210839 0.10541983,-0.343132 -0.0516764,-0.396874 -0.15916328,-0.289388 -0.21083966,-0.237711 -0.23771139,-0.186035 -0.3162595,-0.130225 -0.37000298,-0.08061 -0.7131341,0.186035 -0.2893878,0.157096 q -0.097152,-0.12609 -0.1054198,-0.316259 V 34.38291 l 0.5002274,-0.396875 0.3183266,-0.132292 z"
         style="stroke-width:0.264583"
         id="path931" />
    </g>
    <g
       aria-label="7"
       id="text932"
       style="font-size:4.23333px;line-height:1.25;font-family:aaatord;-inkscape-font-specification:aaatord;display:inline;stroke-width:0.264583"
       transform="matrix(1,-1.428148,0.17632698,1,0.78790012,-1.8394434)">
      <path
         d="m 12.516983,33.775197 1.496549,0.361735 0.775145,-0.05168 -0.103352,0.231511 -0.38654,0.233577 -0.310058,0.307991 -0.541569,0.698665 -0.440282,0.79995 -0.15503,0.463021 v 0.33693 l 0.285254,0.283186 -0.206706,0.07855 -0.541568,0.07648 q -0.241846,-0.0041 -0.33693,-0.258382 l -0.05168,-0.258382 0.02687,-0.283187 0.179834,-0.438216 0.516764,-0.723469 0.95498,-0.903303 -0.310059,-0.128158 -1.006656,-0.233577 -0.516764,0.103353 -0.23151,0.386539 Q 11.409042,34.72811 11.355298,34.471795 l 0.696598,-0.541569 q 0.198437,-0.09302 0.465087,-0.155029 z"
         style="stroke-width:0.264583"
         id="path937" />
    </g>
    <path
       d="m 7.2135104,16.793569 -0.07648,0.113593 -2.05672,-1.851884 -0.101286,0.624011 q 0.01654,0.206115 0.177767,0.504698 l 0.05168,0.248003 -0.0248,0.0536 -0.152962,-0.07667 -0.303858,-0.509215 -0.229443,-0.496382 -0.12609,-0.513012 0.04961,-0.338712 -0.558105,-0.391825 -0.330729,-0.07494 -0.101285,-0.211079 0.07648,-0.214878 -0.101286,-0.69477 0.05168,-0.0083 0.58291,0.693757 0.380338,0.368752 0.07648,0.01456 0.254248,-1.665613 q 0.179834,0.186038 0.303857,0.457537 l 0.254248,0.519263 z m -0.990119,-1.312433 -0.888834,-1.634654 v 0.202572 l -0.126091,0.630068 0.609782,0.511668 q 0.202571,0.161677 0.405143,0.290346 z"
       style="font-size:4.23333px;line-height:1.25;font-family:aaatord;-inkscape-font-specification:aaatord;display:inline;stroke-width:0.264583"
       id="path928" />
  </g>
</svg>
