<?xml version="1.0" encoding="UTF-8" standalone="no"?>
<svg
   xmlns:dc="http://purl.org/dc/elements/1.1/"
   xmlns:cc="http://creativecommons.org/ns#"
   xmlns:rdf="http://www.w3.org/1999/02/22-rdf-syntax-ns#"
   xmlns:svg="http://www.w3.org/2000/svg"
   xmlns="http://www.w3.org/2000/svg"
   xmlns:sodipodi="http://sodipodi.sourceforge.net/DTD/sodipodi-0.dtd"
   xmlns:inkscape="http://www.inkscape.org/namespaces/inkscape"
   viewBox="0 0 25.4 25.4"
   height="96"
   width="96"
   version="1.1"
   id="svg5909"
   sodipodi:docname="die.d12White.1x1x12.svg"
   inkscape:version="1.0.2-2 (e86c870879, 2021-01-15)">
  <metadata
     id="metadata5915">
    <rdf:RDF>
      <cc:Work
         rdf:about="">
        <dc:format>image/svg+xml</dc:format>
        <dc:type
           rdf:resource="http://purl.org/dc/dcmitype/StillImage" />
      </cc:Work>
    </rdf:RDF>
  </metadata>
  <defs
     id="defs5913" />
  <sodipodi:namedview
     pagecolor="#ffffff"
     bordercolor="#666666"
     borderopacity="1"
     objecttolerance="10"
     gridtolerance="10"
     guidetolerance="10"
     inkscape:pageopacity="0"
     inkscape:pageshadow="2"
     inkscape:window-width="1555"
     inkscape:window-height="949"
     id="namedview5911"
     showgrid="false"
     inkscape:zoom="4"
     inkscape:cx="46.810556"
     inkscape:cy="33.309464"
     inkscape:window-x="0"
     inkscape:window-y="23"
     inkscape:window-maximized="0"
     inkscape:current-layer="svg5909"
     inkscape:document-rotation="0" />
  <g
     id="g914">
    <path
       style="fill:#000000;stroke-width:0.0178776"
       d="m 10.669166,15.724681 -0.05049,-0.05269 0.05608,-0.223935 0.05608,-0.223937 1.35e-4,-0.514449 c 6.8e-5,-0.484843 0.0047,-0.558067 0.08045,-1.272348 l 0.08034,-0.757899 v -1.096548 -1.096542 l -0.09908,-0.351196 c -0.05449,-0.1931585 -0.09673,-0.3530245 -0.09386,-0.3552585 0.0029,-0.0022 0.04771,-0.01219 0.09964,-0.02213 0.07716,-0.01477 0.137593,-0.0105 0.330735,0.02333 l 0.236321,0.04139 0.09329,-0.04261 c 0.05131,-0.02343 0.130779,-0.0684 0.17661,-0.09993 l 0.08331,-0.05732 0.07672,0.03727 c 0.05636,0.02739 0.07467,0.04581 0.06901,0.06948 -0.0042,0.01772 -0.08443,0.3981075 -0.178194,0.8453105 l -0.170499,0.813102 0.03077,0.06823 c 0.01692,0.03753 0.03752,0.07241 0.04575,0.0775 0.0082,0.005 0.05734,-0.01497 0.109098,-0.04458 l 0.0941,-0.05384 0.179743,-0.38088 0.179745,-0.38088 0.09554,-0.469286 0.09555,-0.4692865 0.242699,-2.1e-4 c 0.218874,-1.82e-4 0.308779,-0.01196 0.45976,-0.06023 0.03528,-0.01128 0.03989,-0.0031 0.05865,0.104749 0.01906,0.1094 0.0167,0.130791 -0.0362,0.3297825 -0.05167,0.194338 -0.08236,0.26097 -0.353852,0.768181 -0.293278,0.547924 -0.300714,0.559606 -0.553454,0.869484 l -0.256181,0.314101 -0.132442,0.396447 c -0.07284,0.218046 -0.132442,0.40638 -0.132442,0.418518 0,0.03745 0.09315,0.110829 0.176934,0.139381 0.135583,0.0462 0.174108,0.03598 0.359394,-0.0954 0.154692,-0.109684 0.202836,-0.160201 0.539873,-0.566543 0.369783,-0.445819 0.370173,-0.446382 0.570124,-0.821554 l 0.200088,-0.375428 0.156741,-0.685151 c 0.08621,-0.376833 0.159493,-0.6871165 0.162855,-0.6895175 0.0034,-0.0024 0.177874,-0.02975 0.387801,-0.06077 0.345405,-0.05104 0.386506,-0.05391 0.432397,-0.03018 0.0279,0.01442 0.05691,0.03626 0.06449,0.04853 0.0075,0.01227 0.03049,0.122941 0.05091,0.245944 l 0.03712,0.2236425 -0.05805,0.21453 c -0.03894,0.143893 -0.116944,0.345492 -0.236911,0.612336 l -0.178861,0.397814 -0.342835,0.478187 -0.342834,0.478186 -0.690168,0.694419 c -0.43376,0.436431 -0.758737,0.74782 -0.874738,0.838162 -0.208485,0.162365 -0.414327,0.40936 -0.414327,0.497162 0,0.02685 0.02429,0.255896 0.05399,0.508989 0.0352,0.300051 0.04799,0.4674 0.03675,0.480947 -0.0095,0.01145 -0.07199,0.05783 -0.138907,0.103122 -0.116218,0.07865 -0.128868,0.08285 -0.282564,0.09374 -0.376986,0.02672 -0.380065,0.02738 -0.474421,0.101963 -0.04822,0.03812 -0.09445,0.06931 -0.102729,0.06931 -0.0083,0 -0.03778,-0.02372 -0.06555,-0.05269 z"
       id="path847" />
    <g
       aria-label="3"
       id="text892-4"
       style="font-size:4.23333px;line-height:1.25;font-family:aaatord;-inkscape-font-specification:aaatord;display:inline;fill:#7f7f7f;fill-opacity:1;stroke-width:0.264583"
       transform="matrix(-1,0.36397023,0.46630766,-1,-22.590821,47.19193)">
      <path
         d="m -14.955303,33.775195 0.39274,0.02687 0.655257,0.208773 0.367936,0.02687 0.60358,-0.07855 0.05168,0.10542 -0.733805,0.522965 -0.341064,0.341064 0.706933,0.132292 0.551903,0.287321 0.208773,0.183967 0.157096,0.262517 0.02687,0.39274 -0.07855,0.341064 -0.130225,0.287321 -0.446484,0.394808 -0.576708,0.235644 -0.709,0.130224 -1.205094,0.02687 -0.289387,-0.07855 0.157096,-0.262516 0.132291,-0.706933 0.365869,0.419612 0.262516,0.157096 0.314193,0.103353 h 0.760676 l 0.314193,-0.103353 0.237711,-0.183967 0.130225,-0.262517 0.02687,-0.289387 -0.157096,-0.338997 -0.21084,-0.21084 -0.262516,-0.130225 -0.942577,-0.316259 -0.21084,-0.208773 0.446484,-0.39274 0.498161,-0.31626 -0.944645,-0.28732 -0.39274,0.02687 -0.183968,0.235645 -0.235644,0.07855 -0.07855,-0.289388 0.471289,-0.365869 z"
         style="fill:#7f7f7f;fill-opacity:1;stroke-width:0.264583"
         id="path925" />
    </g>
    <g
       aria-label="7"
       id="text932"
       style="font-size:4.23333px;line-height:1.25;font-family:aaatord;-inkscape-font-specification:aaatord;display:inline;stroke-width:0.264583"
       transform="matrix(1,-1.428148,0.17632698,1,0.54843024,-1.3513634)">
      <path
         d="m 12.516983,33.775197 1.496549,0.361735 0.775145,-0.05168 -0.103352,0.231511 -0.38654,0.233577 -0.310058,0.307991 -0.541569,0.698665 -0.440282,0.79995 -0.15503,0.463021 v 0.33693 l 0.285254,0.283186 -0.206706,0.07855 -0.541568,0.07648 q -0.241846,-0.0041 -0.33693,-0.258382 l -0.05168,-0.258382 0.02687,-0.283187 0.179834,-0.438216 0.516764,-0.723469 0.95498,-0.903303 -0.310059,-0.128158 -1.006656,-0.233577 -0.516764,0.103353 -0.23151,0.386539 Q 11.409042,34.72811 11.355298,34.471795 l 0.696598,-0.541569 q 0.198437,-0.09302 0.465087,-0.155029 z"
         style="stroke-width:0.264583"
         id="path937" />
    </g>
    <g
       aria-label="8"
       id="text936"
       style="font-size:4.23333px;line-height:1.25;font-family:aaatord;-inkscape-font-specification:aaatord;display:inline;stroke-width:0.264583"
       transform="matrix(-0.70020754,-1,1,0,-4.4634711,26.415694)">
      <path
         d="m 19.998971,33.775198 h 0.398941 l 0.401009,0.250113 0.1757,0.376205 v 0.351399 l -0.250114,0.401009 -0.299723,0.198437 -0.276985,0.05168 0.551904,0.148828 0.299723,0.225309 0.175699,0.351399 v 0.376204 l -0.225309,0.401009 -0.299723,0.225309 -0.326595,0.1757 -0.802017,0.250113 -0.398942,0.02481 -0.527099,-0.09922 -0.324528,-0.227376 -0.150895,-0.349332 -0.0248,-0.225309 0.04961,-0.225309 0.1757,-0.3514 0.274918,-0.250113 0.326595,-0.1757 -0.3514,-0.1757 -0.225309,-0.299723 -0.0248,-0.401009 0.225309,-0.401008 0.299723,-0.225309 0.351399,-0.1757 z m -0.702799,0.376204 q -0.144694,0.152962 -0.148828,0.401009 0.03307,0.181901 0.1757,0.374137 l 0.324527,0.227376 0.401009,0.148828 0.124023,-0.401009 -0.148828,-0.401009 -0.30179,-0.250113 q -0.183968,-0.06408 -0.425813,-0.09922 z m -0.225309,1.577163 -0.148828,0.225309 -0.101286,0.276986 0.05168,0.299723 0.148828,0.200504 0.450619,0.274919 0.30179,0.07648 0.324527,0.0248 q 0.124024,-0.03514 0.200505,-0.150895 l 0.0248,-0.326595 -0.07441,-0.299723 -0.326594,-0.376204 -0.250114,-0.124023 -0.274918,-0.07648 z"
         style="stroke-width:0.264583"
         id="path940" />
    </g>
    <g
       aria-label="9"
       id="text940"
       style="font-size:4.23333px;line-height:1.25;font-family:aaatord;-inkscape-font-specification:aaatord;display:inline;stroke-width:0.264583"
       transform="matrix(1.2599432,0,0,0.84002253,-19.207228,-2.1858663)">
      <path
         d="m 26.907577,26.583002 -0.421368,0.504362 -0.456073,0.388606 -0.500707,0.322461 -0.479605,0.227376 -0.533122,0.138492 -0.397488,-0.02274 -0.359625,-0.206705 -0.143815,-0.252181 -0.02784,-0.320394 0.05092,-0.367935 0.167522,-0.434082 0.234891,-0.367936 1.140398,-1.008723 -0.02445,0.297656 q -0.02173,0.155029 0.08242,0.274918 l -0.05172,0.206706 h -0.276986 q -0.225734,0.07441 -0.496972,0.252181 l -0.206138,0.229443 -0.176579,0.252181 -0.03356,0.343131 0.182474,0.229443 0.339175,0.138493 0.258995,0.02274 0.304823,-0.665592 0.323608,-0.527099 0.443888,-0.436149 0.476522,-0.320393 0.510606,-0.206706 q 0.222438,0.0041 0.377834,0.115755 l 0.01192,0.343132 -0.112321,0.390673 z m -0.05286,-0.25218 0.0083,-0.206706 -0.148391,-0.115755 -0.315646,0.02274 -0.292509,0.09302 -0.272677,0.159162 -0.28323,0.206707 -0.244789,0.252181 -0.203049,0.32246 -0.06619,0.227376 0.155427,0.07028 0.294576,-0.09302 0.583174,-0.274918 0.540207,-0.411344 z m -3.968172,1.215428 -0.118267,0.136426 -0.09073,-0.06821 -0.03035,-0.183968 0.08356,-0.252181 0.162951,-0.297656 0.749502,-0.94051 0.142497,-0.36587 0.113469,0.06821 0.03035,0.183967 -0.08356,0.252182 -0.162941,0.297656 -0.509862,0.595312 -0.241709,0.345197 q -0.0424,0.113689 -0.0449,0.229444 z"
         style="stroke-width:0.264583"
         id="path943" />
    </g>
    <g
       aria-label="11"
       id="text948"
       style="font-size:4.23333px;line-height:1.25;font-family:aaatord;-inkscape-font-specification:aaatord;display:inline;stroke-width:0.264583"
       transform="matrix(0,1,-0.93088562,-0.83909963,38.602943,4.1613572)">
      <path
         d="m 39.904521,33.775195 q 0.140559,0.02274 0.169498,0.169499 l -0.09715,2.519741 0.11989,0.630451 0.219108,0.411344 -0.07235,0.07235 -0.291455,-0.04754 -0.677994,0.07235 -0.146761,-0.04754 0.04961,-0.146761 0.144694,-0.217041 0.07235,-0.316259 0.04961,-1.45314 -0.121956,-0.605648 -0.219108,-0.169498 -0.314192,0.04754 -0.09715,-0.04754 v -0.219108 l 0.508496,-0.217041 z"
         style="stroke-width:0.264583"
         id="path949" />
      <path
         d="m 42.258897,33.775195 q 0.14056,0.02274 0.169498,0.169499 l -0.09715,2.519741 0.119889,0.630451 0.219108,0.411344 -0.07235,0.07235 -0.291455,-0.04754 -0.677994,0.07235 -0.146761,-0.04754 0.04961,-0.146761 0.144694,-0.217041 0.07235,-0.316259 0.04961,-1.45314 -0.121956,-0.605648 -0.219108,-0.169498 -0.314192,0.04754 -0.09715,-0.04754 v -0.219108 l 0.508496,-0.217041 z"
         style="stroke-width:0.264583"
         id="path951" />
    </g>
  </g>
</svg>
