<?xml version="1.0" encoding="UTF-8" standalone="no"?>
<svg
   xmlns:dc="http://purl.org/dc/elements/1.1/"
   xmlns:cc="http://creativecommons.org/ns#"
   xmlns:rdf="http://www.w3.org/1999/02/22-rdf-syntax-ns#"
   xmlns:svg="http://www.w3.org/2000/svg"
   xmlns="http://www.w3.org/2000/svg"
   xmlns:sodipodi="http://sodipodi.sourceforge.net/DTD/sodipodi-0.dtd"
   xmlns:inkscape="http://www.inkscape.org/namespaces/inkscape"
   viewBox="0 0 25.4 25.4"
   height="96"
   width="96"
   version="1.1"
   id="svg3497"
   sodipodi:docname="die.d12White.1x1x01.svg"
   inkscape:version="1.0.2-2 (e86c870879, 2021-01-15)">
  <metadata
     id="metadata3503">
    <rdf:RDF>
      <cc:Work
         rdf:about="">
        <dc:format>image/svg+xml</dc:format>
        <dc:type
           rdf:resource="http://purl.org/dc/dcmitype/StillImage" />
      </cc:Work>
    </rdf:RDF>
  </metadata>
  <defs
     id="defs3501" />
  <sodipodi:namedview
     pagecolor="#ffffff"
     bordercolor="#666666"
     borderopacity="1"
     objecttolerance="10"
     gridtolerance="10"
     guidetolerance="10"
     inkscape:pageopacity="0"
     inkscape:pageshadow="2"
     inkscape:window-width="1918"
     inkscape:window-height="2054"
     id="namedview3499"
     showgrid="false"
     inkscape:zoom="1.88"
     inkscape:cx="54.414416"
     inkscape:cy="33.971203"
     inkscape:window-x="1900"
     inkscape:window-y="0"
     inkscape:window-maximized="0"
     inkscape:current-layer="g3495"
     inkscape:document-rotation="0"
     inkscape:snap-global="false" />
  <g
     font-weight="400"
     font-family="Poppins"
     letter-spacing="0"
     word-spacing="0"
     text-anchor="middle"
     stroke-linecap="round"
     stroke-linejoin="round"
     id="g3495">
    <g
       id="g861">
      <path
         style="fill:#000000;stroke-width:0.00956645"
         d="m 12.630487,14.289472 c -0.0013,-0.07577 -0.04529,-0.620439 -0.05049,-0.625653 -0.0035,-0.0035 -0.130199,-0.01655 -0.281504,-0.02896 -0.256957,-0.02106 -0.284245,-0.02511 -0.413811,-0.06151 -0.210655,-0.05917 -0.333647,-0.132128 -0.673224,-0.399305 l -0.266325,-0.20954 -0.199879,-0.255832 -0.199877,-0.255833 v -0.06583 -0.06583 h 0.0476 c 0.04662,0 0.05057,-0.0024 0.191388,-0.116561 0.125454,-0.101686 0.166649,-0.128533 0.323097,-0.210538 0.09862,-0.0517 0.27402,-0.13536 0.389774,-0.185924 0.175084,-0.07649 0.240211,-0.09961 0.387441,-0.137525 0.186302,-0.04799 0.288044,-0.06164 0.540506,-0.07251 0.111232,-0.0049 0.210468,8.67e-4 0.58538,0.03338 0.248296,0.02153 0.460314,0.03915 0.471148,0.03915 0.01879,0 0.0197,0.0053 0.0197,0.114798 v 0.114798 h -0.251446 -0.251446 l -0.04874,0.05023 -0.04874,0.05023 -0.04486,0.572543 c -0.02467,0.314898 -0.04284,0.574557 -0.04039,0.577017 0.0025,0.0025 0.08655,-0.01346 0.186856,-0.03528 l 0.182384,-0.03975 0.188695,-0.100382 c 0.165569,-0.08808 0.209742,-0.116991 0.360403,-0.235919 0.168831,-0.133279 0.173841,-0.138302 0.299235,-0.299774 0.121069,-0.155908 0.128339,-0.167745 0.143321,-0.233661 0.01548,-0.06808 0.01332,-0.10467 -0.01179,-0.19284 -0.0043,-0.01507 0.004,-0.01675 0.08315,-0.01675 h 0.08789 l 0.166062,0.09328 0.166063,0.09328 1.81e-4,0.04544 1.8e-4,0.04544 -0.07415,4.05e-4 -0.07414,4.08e-4 -0.196112,0.245119 c -0.194512,0.243118 -0.198064,0.246863 -0.435275,0.458894 -0.233431,0.208653 -0.245298,0.217699 -0.495355,0.377617 l -0.256192,0.163845 -0.159251,0.04662 c -0.08759,0.02564 -0.161144,0.04851 -0.163459,0.05082 -0.0029,0.0029 -0.09207,0.636102 -0.09741,0.69155 -1.08e-4,0.0013 -0.01961,0.0024 -0.04327,0.0024 -0.03815,0 -0.04309,-0.0025 -0.04343,-0.02152 z m -0.04756,-1.191023 c -7.2e-5,-0.03026 -0.0086,-0.291778 -0.01902,-0.581164 -0.01041,-0.289386 -0.01897,-0.557366 -0.01902,-0.595511 l -1.08e-4,-0.06936 h -0.238341 -0.238342 l -0.131378,0.04805 c -0.07226,0.02643 -0.195835,0.08101 -0.274622,0.121305 -0.142709,0.07299 -0.143508,0.07358 -0.213837,0.158547 -0.03882,0.04691 -0.07059,0.09181 -0.07059,0.09977 0,0.0079 0.0094,0.05036 0.02091,0.09422 l 0.02091,0.07974 0.215858,0.215165 0.215856,0.215164 0.172197,0.09092 c 0.171008,0.0903 0.17345,0.09121 0.353959,0.133793 0.09998,0.02359 0.187143,0.04322 0.193721,0.04364 0.0083,5.23e-4 0.01193,-0.01616 0.01179,-0.05425 z m -2.6754018,0.0149 c -0.02101,-0.02188 -0.05322,-0.0874 -0.10442,-0.212327 -0.070525,-0.172145 -0.078669,-0.18683 -0.1721877,-0.310909 L 9.532753,12.459874 9.2809188,12.344271 9.0290831,12.228668 v -0.05046 -0.05046 l 0.4343193,-0.365437 0.4343198,-0.365439 0.1492338,0.02181 c 0.08208,0.01193 0.154616,0.02194 0.161194,0.02207 0.0087,1.8e-4 0.01193,0.02497 0.01193,0.09116 0,0.04999 -0.0032,0.09093 -0.0072,0.091 -0.0039,7.2e-5 -0.05951,0.01249 -0.12347,0.02769 l -0.1162958,0.02757 -0.110914,0.08783 -0.1109127,0.08783 v 0.04792 c 0,0.04458 0.00402,0.05286 0.058426,0.118558 0.03213,0.03885 0.0655,0.07256 0.07415,0.07491 0.0086,0.0024 0.05016,0.01138 0.09225,0.02012 0.042089,0.0087 0.083149,0.01768 0.091219,0.01995 0.0099,0.0028 0.02368,-0.01235 0.04211,-0.04611 0.02421,-0.04436 0.05436,-0.07048 0.257954,-0.223624 0.181682,-0.136665 0.283249,-0.204461 0.479266,-0.319948 0.225785,-0.133029 0.274467,-0.157307 0.527745,-0.263265 l 0.279019,-0.116727 0.223222,-0.02461 c 0.33437,-0.03688 0.426598,-0.04309 0.735027,-0.04955 0.243321,-0.0051 0.309894,-0.0032 0.483106,0.01374 0.336986,0.03292 0.680238,0.113285 1.033178,0.241875 0.223052,0.08126 0.280236,0.107666 0.848995,0.391907 l 0.609831,0.304773 h 0.166673 0.166675 l 0.01608,-0.04844 c 0.01374,-0.04144 0.01446,-0.05708 0.0049,-0.108291 -0.0062,-0.03291 -0.01454,-0.0651 -0.0185,-0.07151 -0.0055,-0.009 -0.03722,-0.0072 -0.140349,0.0082 -0.07323,0.01082 -0.144813,0.02212 -0.159075,0.02495 l -0.02593,0.0051 0.02861,-0.08438 c 0.024,-0.07081 0.02818,-0.09666 0.02593,-0.16074 l -0.0026,-0.07637 0.07916,-0.02092 c 0.04827,-0.01276 0.109095,-0.03847 0.155886,-0.06592 0.04221,-0.02474 0.07866,-0.04308 0.08099,-0.04074 0.0024,0.0024 0.04269,0.08358 0.08969,0.180533 0.08105,0.167236 0.09136,0.183385 0.200996,0.314655 0.06356,0.0761 0.115312,0.144983 0.114993,0.153062 -3.26e-4,0.008 -0.01,0.03993 -0.02153,0.07077 l -0.02095,0.05608 -0.124372,0.05036 c -0.0684,0.02769 -0.223985,0.105946 -0.345744,0.173892 l -0.221378,0.12354 -0.226608,0.236389 c -0.124635,0.130018 -0.228335,0.23639 -0.230441,0.23639 -0.0021,0 -0.0129,-0.01763 -0.02384,-0.03919 l -0.01999,-0.0392 0.05962,-0.106695 c 0.03279,-0.05868 0.06303,-0.113147 0.06721,-0.121042 0.0042,-0.0079 0.0187,-0.06355 0.03229,-0.123664 0.02005,-0.08873 0.02238,-0.111468 0.01235,-0.120681 -0.0068,-0.0062 -0.125828,-0.08333 -0.264546,-0.171285 -0.204693,-0.129783 -0.311205,-0.189272 -0.565109,-0.315622 l -0.312874,-0.155697 -0.420237,-0.140022 -0.420238,-0.140022 -0.17698,-0.01927 c -0.09734,-0.01054 -0.316889,-0.02676 -0.487889,-0.03594 -0.277936,-0.0149 -0.335259,-0.01528 -0.540505,-0.0036 l -0.229595,0.01304 -0.222084,0.08011 c -0.140448,0.05067 -0.303112,0.118793 -0.442508,0.185343 -0.188145,0.08982 -0.251582,0.126133 -0.433218,0.247903 l -0.212794,0.14267 -0.274419,0.275927 -0.274418,0.275929 -0.03344,0.08155 c -0.02944,0.07181 -0.03494,0.09899 -0.04606,0.227756 l -0.01263,0.146213 z"
         id="path1450" />
      <g
         aria-label="0"
         id="text944"
         style="font-size:4.23333px;line-height:1.25;font-family:aaatord;-inkscape-font-specification:aaatord;display:inline;stroke-width:0.264583"
         transform="matrix(-0.6716773,-0.99960087,1.0193823,0.02825077,3.6805033,39.3205)">
        <path
           d="m 34.423444,33.775195 0.363802,0.02687 0.312125,0.07648 0.235644,0.157096 0.33693,0.44235 0.10542,0.260449 0.103353,0.599446 -0.05168,0.415478 -0.208773,0.574642 -0.338997,0.44235 -0.494026,0.285253 -0.572575,0.10542 -0.363801,-0.10542 -0.417546,-0.363801 -0.157096,-0.233578 -0.181901,-0.599446 v -0.702799 l 0.235645,-0.572574 0.33693,-0.417545 0.469221,-0.287321 z m -1.61437,0.02687 q 0.14676,0.03721 0.1819,0.206706 l -0.05168,0.314192 -0.07855,1.744595 0.05168,0.702799 0.07855,0.285253 0.208773,0.417546 -0.130224,0.130224 -0.181901,-0.07855 -0.626318,0.07855 q -0.146761,-0.02067 -0.155029,-0.181901 l 0.155029,-0.208772 0.10542,-0.624251 -0.02687,-1.459341 -0.07855,-0.260449 -0.285254,-0.208773 -0.208772,0.05374 -0.130225,-0.235644 z m 1.327049,0.467155 -0.312125,0.235644 -0.157096,0.338997 -0.07648,0.44235 0.05168,0.44235 0.155029,0.390673 0.235644,0.285254 0.312126,0.183968 0.44235,0.02481 0.312125,-0.181901 0.181901,-0.363802 0.05374,-0.44235 -0.05374,-0.469222 -0.155029,-0.365868 -0.235645,-0.260449 -0.33693,-0.181901 q -0.186035,-0.06615 -0.417545,-0.07855 z"
           style="stroke-width:0.264583"
           id="path946" />
      </g>
      <g
         aria-label="2"
         id="text892"
         style="font-size:4.23333px;line-height:1.25;font-family:aaatord;-inkscape-font-specification:aaatord;display:inline;stroke-width:0.264583"
         transform="matrix(0.79298943,-1.2728183,0.13982543,0.891237,31.557927,-43.217498)">
        <path
           d="m -21.130912,33.775198 h 0.394807 l 0.322461,0.04961 0.272851,0.124023 0.171566,0.196371 0.124023,0.272851 v 0.345198 l -0.223242,0.545703 -0.667659,0.864029 -0.76481,0.61805 1.087271,0.198437 h 0.692464 l 0.297656,-0.07441 0.121956,-0.272851 0.07441,-0.07235 0.173633,0.07235 0.04961,0.248046 -0.02481,0.07441 -0.667659,0.494027 -0.272851,0.09922 -0.370003,0.02481 -1.632974,-0.272851 -0.56844,0.07441 -0.02481,-0.07441 0.444417,-0.345199 0.965315,-0.965314 0.494026,-0.665592 0.04961,-0.297656 -0.04961,-0.345199 -0.121956,-0.248046 -0.173633,-0.223242 -0.272851,-0.09922 -0.320394,0.04961 -0.272851,0.124024 -0.04961,0.248046 0.07441,0.270785 -0.173633,0.223242 -0.223242,-0.124024 -0.04754,-0.245979 0.121956,-0.347266 0.173633,-0.223242 0.248046,-0.146761 z"
           style="stroke-width:0.264583"
           id="path922" />
      </g>
      <g
         aria-label="4"
         id="text920"
         style="font-size:4.23333px;line-height:1.25;font-family:aaatord;-inkscape-font-specification:aaatord;display:inline;stroke-width:0.264583"
         transform="matrix(-0.70020754,0.76731692,-1,0,43.619789,25.803042)">
        <path
           d="m -6.737444,33.775198 0.1777668,0.07648 -0.1260904,2.05672 0.7090001,0.101286 q 0.1922361,-0.01654 0.3555335,-0.177767 l 0.2046385,-0.05168 0.074414,0.0248 0.051676,0.152962 -0.2542478,0.303858 -0.3038572,0.229443 -0.4072099,0.12609 -0.3803383,-0.04961 0.076481,0.558105 0.2025714,0.330729 -0.1260904,0.101285 -0.2790525,-0.07648 -0.6097813,0.101286 -0.051676,-0.05168 0.2046385,-0.58291 0.049609,-0.380338 -0.049609,-0.07648 -1.8789535,-0.254248 q 0.03514,-0.179834 0.2025714,-0.303857 l 0.3059242,-0.254248 z m -0.4816239,0.990119 -0.8888339,0.888834 h 0.2025714 l 0.7358718,0.126091 V 35.17046 q -0.00827,-0.202571 -0.049609,-0.405143 z"
           style="stroke-width:0.264583"
           id="path928" />
      </g>
      <g
         aria-label="5"
         id="text924"
         style="font-size:4.23333px;line-height:1.25;font-family:aaatord;-inkscape-font-specification:aaatord;display:inline;fill:#7f7f7f;fill-opacity:1;stroke-width:0.264583"
         transform="matrix(-1,0.36397023,0.46630766,-1,-9.1860808,42.186599)">
        <path
           d="m -0.96697934,33.775195 1.61230333,0.183968 0.34313122,-0.10542 0.18396799,0.05374 -0.1054199,0.132291 -0.26458309,0.183968 -0.68626244,0.21084 -0.42167934,0.02687 -1.18855693,-0.159164 -0.3431312,0.107487 v 0.816487 l 0.5539709,-0.343131 0.3700029,-0.07855 0.42167933,-0.02687 0.37000295,0.08061 0.34313122,0.132292 0.26458311,0.157096 0.23771139,0.21084 0.21083967,0.264583 0.10541983,0.343131 -0.026872,0.370003 -0.13229158,0.370003 -0.18396794,0.262516 -0.23771139,0.212907 -0.60771433,0.289388 -0.76481056,0.132291 H -2.207213 l 0.183968,-0.634586 0.053743,-0.394808 q 0.1570962,0.06408 0.2377114,0.237712 l 0.2108397,0.21084 0.3162595,0.132291 0.37000291,0.07855 h 0.44855106 l 0.34313122,-0.10542 0.23771139,-0.210839 0.10541983,-0.343132 -0.0516764,-0.396874 -0.15916328,-0.289388 -0.21083966,-0.237711 -0.23771139,-0.186035 -0.3162595,-0.130225 -0.37000298,-0.08061 -0.7131341,0.186035 -0.2893878,0.157096 q -0.097152,-0.12609 -0.1054198,-0.316259 V 34.38291 l 0.5002274,-0.396875 0.3183266,-0.132292 z"
           style="fill:#7f7f7f;fill-opacity:1;stroke-width:0.264583"
           id="path931" />
      </g>
      <g
         aria-label="9"
         id="text940"
         style="font-size:4.23333px;line-height:1.25;font-family:aaatord;-inkscape-font-specification:aaatord;display:inline;stroke-width:0.264583"
         transform="matrix(0,1,-1,-0.83909963,40.924415,18.426839)">
        <path
           d="m 26.267595,33.775195 0.504362,0.06821 0.388606,0.183968 0.322461,0.274918 0.227376,0.320394 0.138493,0.436149 -0.02274,0.413411 -0.206705,0.504361 -0.252181,0.320394 -0.320394,0.252181 -0.367935,0.206705 -0.434082,0.136426 -0.367936,0.02274 -1.008723,-0.434082 0.297656,-0.183968 q 0.155029,-0.08682 0.274918,-0.274918 l 0.206706,-0.09302 v 0.276986 q 0.07441,0.173632 0.252181,0.320393 l 0.229443,0.04548 h 0.252181 l 0.343131,-0.206705 0.229443,-0.343131 0.138493,-0.436149 0.02274,-0.274918 -0.665592,0.16123 -0.527099,0.04547 -0.436149,-0.138493 -0.320393,-0.25218 -0.206706,-0.365869 q 0.0041,-0.225309 0.115755,-0.458887 l 0.343132,-0.25218 0.390673,-0.161231 z m -0.25218,0.229443 -0.206706,0.136426 -0.115755,0.229443 0.02274,0.299723 0.09302,0.227376 0.159163,0.161231 0.206706,0.138492 0.252181,0.06821 0.32246,-0.02274 0.227377,-0.09302 0.07028,-0.204638 -0.09302,-0.229443 -0.274918,-0.390674 -0.411345,-0.252181 z m 1.215428,3.11712 0.136426,0.02274 -0.06821,0.138492 -0.183968,0.159164 -0.252181,0.09302 -0.297656,0.04547 -0.94051,-0.09095 -0.365869,0.113688 0.06821,-0.16123 0.183968,-0.159164 0.252181,-0.09302 0.297656,-0.04548 0.595312,0.09302 H 27.0014 q 0.113688,-0.03721 0.229443,-0.115755 z"
           style="stroke-width:0.264583"
           id="path943" />
      </g>
    </g>
  </g>
</svg>
