<?xml version="1.0" encoding="UTF-8" standalone="no"?>
<svg
   xmlns:dc="http://purl.org/dc/elements/1.1/"
   xmlns:cc="http://creativecommons.org/ns#"
   xmlns:rdf="http://www.w3.org/1999/02/22-rdf-syntax-ns#"
   xmlns:svg="http://www.w3.org/2000/svg"
   xmlns="http://www.w3.org/2000/svg"
   xmlns:sodipodi="http://sodipodi.sourceforge.net/DTD/sodipodi-0.dtd"
   xmlns:inkscape="http://www.inkscape.org/namespaces/inkscape"
   viewBox="0 0 25.4 25.4"
   height="96"
   width="96"
   version="1.1"
   id="svg2015"
   sodipodi:docname="die.d6White.1x1x6.svg"
   inkscape:version="1.0.2-2 (e86c870879, 2021-01-15)">
  <metadata
     id="metadata2021">
    <rdf:RDF>
      <cc:Work
         rdf:about="">
        <dc:format>image/svg+xml</dc:format>
        <dc:type
           rdf:resource="http://purl.org/dc/dcmitype/StillImage" />
        <dc:title />
      </cc:Work>
    </rdf:RDF>
  </metadata>
  <defs
     id="defs2019" />
  <sodipodi:namedview
     pagecolor="#ffffff"
     bordercolor="#666666"
     borderopacity="1"
     objecttolerance="10"
     gridtolerance="10"
     guidetolerance="10"
     inkscape:pageopacity="0"
     inkscape:pageshadow="2"
     inkscape:window-width="2078"
     inkscape:window-height="1378"
     id="namedview2017"
     showgrid="false"
     inkscape:zoom="3.4415485"
     inkscape:cx="6.7663583"
     inkscape:cy="33.556807"
     inkscape:window-x="619"
     inkscape:window-y="494"
     inkscape:window-maximized="0"
     inkscape:current-layer="svg2015"
     inkscape:document-rotation="0" />
  <g
     id="g847"
     transform="translate(0.02182761,0.57244535)">
    <g
       aria-label="6"
       id="text2586"
       style="font-style:normal;font-weight:normal;font-size:16.9333px;line-height:1.25;font-family:sans-serif;fill:#000000;fill-opacity:1;stroke:none;stroke-width:0.529167;stroke-miterlimit:4;stroke-dasharray:none">
      <path
         d="m 11.19377,4.5125303 1.099672,0.09095 3.489186,0.7358709 -0.826821,0.735871 -1.744593,2.1083943 -0.181901,-0.6449206 Q 12.781267,6.7697525 12.020591,6.2571233 l -0.917771,-0.1819007 -1.01699,0.09095 -1.3725238,1.008722 -0.6449206,1.6536426 -0.272851,2.0174438 0.1819007,1.099673 3.7620367,-1.744593 2.116663,-0.181901 1.645374,0.636653 1.198891,1.10794 0.363801,0.917772 v 0.917771 l -1.008722,1.372524 -1.281573,1.008722 -1.471742,0.826821 -1.835543,0.454752 L 9.3582268,17.080214 7.7955346,16.344343 6.5139616,15.335621 5.9599913,14.698969 5.59619,13.872147 5.1331701,12.036604 V 10.473912 L 6.0509417,8.5474182 6.9687133,7.1748949 8.159336,6.0752226 9.5401275,5.157451 Z m -0.09095,6.8791527 -1.1079408,0.28112 -0.9177716,0.454751 -0.6366524,0.644921 1.008722,1.645374 1.4634738,1.107941 1.008722,0.363801 1.198891,0.09095 0.917771,-0.363802 0.363802,-1.008722 -0.181901,-1.10794 -0.46302,-0.917772 -1.554424,-1.008722 z m 3.571868,6.424402 0.55397,0.09095 -0.272851,0.553971 -0.735871,0.636652 -1.008722,0.372069 -1.190623,0.181901 -3.7703047,-0.363801 -1.4634737,0.454752 0.2728511,-0.644921 0.7358709,-0.636652 1.008722,-0.37207 1.1906226,-0.181901 2.3895138,0.363802 h 1.372523 q 0.46302,-0.14056 0.917772,-0.454752 z"
         style="font-style:normal;font-variant:normal;font-weight:normal;font-stretch:normal;font-size:16.9333px;font-family:aaatord;-inkscape-font-specification:aaatord;fill:#000000;stroke:none;stroke-width:0.529167;stroke-miterlimit:4;stroke-dasharray:none;stroke-opacity:1"
         id="path832" />
    </g>
    <path
       style="fill:#000000;stroke:#000000;stroke-width:0.271835;stroke-miterlimit:4;stroke-dasharray:none;stroke-opacity:1"
       d="m 17.334332,10.380484 c -0.333743,-0.05277 -0.6363,-0.204771 -0.883063,-0.4436347 -0.181715,-0.1759029 -0.298687,-0.3619319 -0.375035,-0.5964549 -0.0524,-0.1609838 -0.06881,-0.2726514 -0.06819,-0.4640886 8.96e-4,-0.2744564 0.05793,-0.4975635 0.201229,-0.7870928 0.167451,-0.3383412 0.382934,-0.6260466 0.749973,-1.0013436 0.157546,-0.1610807 0.157841,-0.1614897 0.122765,-0.1706677 -0.06356,-0.016622 -0.688117,-0.011948 -0.77524,0.00589 -0.11951,0.02436 -0.255409,0.072752 -0.311179,0.1108396 -0.02733,0.018651 -0.0715,0.048883 -0.09813,0.067174 -0.06618,0.045432 -0.133235,0.041767 -0.138912,-0.00753 -0.0063,-0.054986 0.05721,-0.1539968 0.175124,-0.2728227 0.23537,-0.2372186 0.468884,-0.3565337 0.79076,-0.4040448 0.113695,-0.016786 0.19559,-0.019256 0.450873,-0.013579 0.304852,0.0067 0.50523,0.023738 1.032405,0.087543 0.504846,0.061105 0.656329,0.072639 0.961551,0.073211 0.245314,4.63e-4 0.31844,-0.00344 0.402939,-0.021677 0.14068,-0.030315 0.23209,-0.069562 0.328872,-0.1411869 0.07522,-0.055673 0.106443,-0.067878 0.164245,-0.064213 0.03447,0.00213 0.02627,0.071984 -0.0174,0.1481563 -0.02122,0.037006 -0.08859,0.1172031 -0.149743,0.1781981 -0.235408,0.2348692 -0.483677,0.3549517 -0.821853,0.3975188 -0.255216,0.032131 -0.798149,0.00118 -1.491233,-0.084974 l -0.183494,-0.022806 -0.09291,0.083665 c -0.401394,0.3615078 -0.657769,0.7252513 -0.753627,1.0692498 -0.03163,0.1134562 -0.03406,0.1382911 -0.03366,0.3425178 3.7e-4,0.1849973 0.0048,0.2373525 0.0273,0.3275536 0.122946,0.4914092 0.48924,0.8772401 0.981329,1.0336881 0.213446,0.06786 0.304961,0.08194 0.532129,0.08182 0.172436,-9.2e-5 0.229872,-0.0049 0.336244,-0.02854 0.306585,-0.06797 0.564972,-0.204023 0.729138,-0.383902 0.123926,-0.135788 0.253228,-0.3643087 0.292149,-0.5163312 0.0398,-0.155485 0.01901,-0.2703141 -0.07341,-0.4052895 -0.06046,-0.088282 -0.07361,-0.1370974 -0.06171,-0.2289162 0.0223,-0.172138 0.15987,-0.2987317 0.338589,-0.3115629 0.140139,-0.00998 0.228045,0.039772 0.280954,0.159232 0.0231,0.052172 0.02942,0.091354 0.03341,0.2076253 0.0044,0.1272309 0.0013,0.1559593 -0.02742,0.2560448 -0.106455,0.3711308 -0.519998,0.9280447 -0.930493,1.2530926 -0.347236,0.2749577 -0.685399,0.4310977 -1.058143,0.4885767 -0.143068,0.02206 -0.445357,0.02167 -0.587177,-7.44e-4 z"
       id="path847" />
  </g>
</svg>
