<?xml version="1.0" encoding="UTF-8" standalone="no"?>
<svg
   xmlns:dc="http://purl.org/dc/elements/1.1/"
   xmlns:cc="http://creativecommons.org/ns#"
   xmlns:rdf="http://www.w3.org/1999/02/22-rdf-syntax-ns#"
   xmlns:svg="http://www.w3.org/2000/svg"
   xmlns="http://www.w3.org/2000/svg"
   xmlns:sodipodi="http://sodipodi.sourceforge.net/DTD/sodipodi-0.dtd"
   xmlns:inkscape="http://www.inkscape.org/namespaces/inkscape"
   viewBox="0 0 25.4 25.4"
   height="96"
   width="96"
   version="1.1"
   id="svg6504"
   sodipodi:docname="die.d12White.1x1x03.svg"
   inkscape:version="1.0.2-2 (e86c870879, 2021-01-15)">
  <metadata
     id="metadata6510">
    <rdf:RDF>
      <cc:Work
         rdf:about="">
        <dc:format>image/svg+xml</dc:format>
        <dc:type
           rdf:resource="http://purl.org/dc/dcmitype/StillImage" />
      </cc:Work>
    </rdf:RDF>
  </metadata>
  <defs
     id="defs6508">
    <inkscape:path-effect
       effect="envelope"
       id="path-effect1469"
       is_visible="true"
       lpeversion="1"
       yy="true"
       xx="true"
       bendpath1="m 16.077248,19.130639 -2.961434,2.8855"
       bendpath2="M 13.343617,21.864271 7.9522862,20.573389"
       bendpath3="M 9.2052012,18.713 7.8763519,20.497455"
       bendpath4="M 16.077248,19.130639 9.1672341,18.788935"
       bendpath1-nodetypes="cc"
       bendpath2-nodetypes="cc"
       bendpath3-nodetypes="cc"
       bendpath4-nodetypes="cc" />
  </defs>
  <sodipodi:namedview
     pagecolor="#ffffff"
     bordercolor="#666666"
     borderopacity="1"
     objecttolerance="10"
     gridtolerance="10"
     guidetolerance="10"
     inkscape:pageopacity="0"
     inkscape:pageshadow="2"
     inkscape:window-width="1933"
     inkscape:window-height="986"
     id="namedview6506"
     showgrid="false"
     inkscape:zoom="6.9604261"
     inkscape:cx="37.268124"
     inkscape:cy="48.675447"
     inkscape:window-x="0"
     inkscape:window-y="0"
     inkscape:window-maximized="0"
     inkscape:current-layer="svg6504"
     inkscape:document-rotation="0" />
  <g
     id="g873">
    <g
       aria-label="3"
       id="text892-4-0"
       style="font-size:7.76111px;line-height:1.25;font-family:aaatord;-inkscape-font-specification:aaatord;display:inline;stroke-width:0.264583"
       transform="translate(25.020881,-30.876646)">
      <path
         d="m -14.026203,40.06748 0.720025,0.04926 1.201305,0.38275 0.674549,0.04926 1.106565,-0.144005 0.09474,0.19327 -1.34531,0.95877 -0.625284,0.625285 1.296044,0.242534 1.0118246,0.526755 0.3827501,0.337275 0.2880099,0.48128 0.049265,0.720025 -0.144005,0.625285 -0.2387451,0.526755 -0.8185545,0.723814 -1.0573,0.432015 -1.299834,0.238745 -2.209339,0.04926 -0.530545,-0.144005 0.28801,-0.48128 0.242535,-1.296045 0.67076,0.76929 0.481279,0.28801 0.57602,0.18948 h 1.394575 l 0.576019,-0.18948 0.435805,-0.337275 0.238745,-0.481279 0.04926,-0.530545 -0.28801,-0.621495 -0.38654,-0.38654 -0.481279,-0.238745 -1.72806,-0.579809 -0.38654,-0.38275 0.818555,-0.720025 0.913295,-0.57981 -1.73185,-0.526755 -0.720025,0.04927 -0.337274,0.432015 -0.432015,0.144005 -0.144005,-0.530545 0.86403,-0.67076 z"
         style="font-size:7.76111px;stroke-width:0.264583"
         id="path957" />
    </g>
    <g
       aria-label="6"
       id="text928"
       style="font-size:4.23333px;line-height:1.25;font-family:aaatord;-inkscape-font-specification:aaatord;display:inline;stroke-width:0.264583"
       transform="translate(28.512164,-24.596738)">
      <path
         d="m -21.176895,32.72556 -0.264315,0.07732 -0.786511,0.133523 0.29249,-0.259203 0.68194,-0.685844 -0.0297,0.144675 q -0.02763,0.16967 0.102778,0.228611 l 0.208236,-0.03804 0.264852,-0.115279 0.460724,-0.37707 0.354008,-0.472094 0.303398,-0.529188 0.08272,-0.258365 -1.14389,0.778467 -0.550374,0.23808 -0.337125,-0.0094 -0.170563,-0.167895 0.01604,-0.19634 0.106991,-0.229443 0.412183,-0.434915 0.437987,-0.368795 0.464325,-0.340623 0.511891,-0.280669 0.505896,-0.146378 0.304887,0.04178 0.2028,0.135567 0.06427,0.108756 -0.0054,0.173601 -0.09823,0.416757 -0.182174,0.390673 -0.45403,0.56514 -0.389449,0.426642 -0.425853,0.383257 -0.452189,0.355084 z m 0.824691,-1.728067 0.309756,-0.171094 0.282457,-0.197198 0.234346,-0.219161 -0.06037,-0.319558 -0.236709,-0.14382 -0.20977,8.36e-4 -0.289119,0.08635 -0.271854,0.174461 -0.208543,0.285283 -0.08369,0.260436 0.0088,0.187312 0.271013,0.11074 z m -0.14403,-1.281088 -0.127889,0.02767 0.132789,-0.163317 0.258187,-0.226123 0.295558,-0.184807 0.318859,-0.153808 0.900166,-0.25212 0.418883,-0.246854 -0.143393,0.186057 -0.258186,0.226122 -0.295558,0.184807 -0.318859,0.153808 -0.554969,0.126478 -0.343131,0.124889 q -0.132145,0.07729 -0.282457,0.197198 z"
         style="fill:#7f7f7f;fill-opacity:1;stroke-width:0.241087"
         id="path934" />
    </g>
    <g
       aria-label="4"
       id="text920"
       style="font-size:4.23333px;line-height:1.25;font-family:aaatord;-inkscape-font-specification:aaatord;display:inline;stroke-width:0.264583"
       transform="matrix(-0.70020754,-1,1,0,-23.464813,-0.76524646)"
       inkscape:transform-center-x="-5.4444264"
       inkscape:transform-center-y="0.68340807">
      <path
         d="m -6.737444,33.775198 0.1777668,0.07648 -0.1260904,2.05672 0.7090001,0.101286 q 0.1922361,-0.01654 0.3555335,-0.177767 l 0.2046385,-0.05168 0.074414,0.0248 0.051676,0.152962 -0.2542478,0.303858 -0.3038572,0.229443 -0.4072099,0.12609 -0.3803383,-0.04961 0.076481,0.558105 0.2025714,0.330729 -0.1260904,0.101285 -0.2790525,-0.07648 -0.6097813,0.101286 -0.051676,-0.05168 0.2046385,-0.58291 0.049609,-0.380338 -0.049609,-0.07648 -1.8789535,-0.254248 q 0.03514,-0.179834 0.2025714,-0.303857 l 0.3059242,-0.254248 z m -0.4816239,0.990119 -0.8888339,0.888834 h 0.2025714 l 0.7358718,0.126091 V 35.17046 q -0.00827,-0.202571 -0.049609,-0.405143 z"
         style="stroke-width:0.264583"
         id="path928" />
    </g>
    <g
       aria-label="8"
       id="text936"
       style="font-size:4.23333px;line-height:1.25;font-family:aaatord;-inkscape-font-specification:aaatord;display:inline;stroke-width:0.264583"
       transform="matrix(1,-1.428148,0.17632698,1,-5.976932,8.0558331)">
      <path
         d="m 19.998971,33.775198 h 0.398941 l 0.401009,0.250113 0.1757,0.376205 v 0.351399 l -0.250114,0.401009 -0.299723,0.198437 -0.276985,0.05168 0.551904,0.148828 0.299723,0.225309 0.175699,0.351399 v 0.376204 l -0.225309,0.401009 -0.299723,0.225309 -0.326595,0.1757 -0.802017,0.250113 -0.398942,0.02481 -0.527099,-0.09922 -0.324528,-0.227376 -0.150895,-0.349332 -0.0248,-0.225309 0.04961,-0.225309 0.1757,-0.3514 0.274918,-0.250113 0.326595,-0.1757 -0.3514,-0.1757 -0.225309,-0.299723 -0.0248,-0.401009 0.225309,-0.401008 0.299723,-0.225309 0.351399,-0.1757 z m -0.702799,0.376204 q -0.144694,0.152962 -0.148828,0.401009 0.03307,0.181901 0.1757,0.374137 l 0.324527,0.227376 0.401009,0.148828 0.124023,-0.401009 -0.148828,-0.401009 -0.30179,-0.250113 q -0.183968,-0.06408 -0.425813,-0.09922 z m -0.225309,1.577163 -0.148828,0.225309 -0.101286,0.276986 0.05168,0.299723 0.148828,0.200504 0.450619,0.274919 0.30179,0.07648 0.324527,0.0248 q 0.124024,-0.03514 0.200505,-0.150895 l 0.0248,-0.326595 -0.07441,-0.299723 -0.326594,-0.376204 -0.250114,-0.124023 -0.274918,-0.07648 z"
         style="stroke-width:0.264583"
         id="path940" />
    </g>
    <g
       aria-label="11"
       id="text948"
       style="font-size:4.23333px;line-height:1.25;font-family:aaatord;-inkscape-font-specification:aaatord;display:inline;stroke-width:0.264583"
       transform="matrix(0,0.92245211,-0.90070381,-0.77402922,37.538218,4.8922614)">
      <path
         d="m 39.904521,33.775195 q 0.140559,0.02274 0.169498,0.169499 l -0.09715,2.519741 0.11989,0.630451 0.219108,0.411344 -0.07235,0.07235 -0.291455,-0.04754 -0.677994,0.07235 -0.146761,-0.04754 0.04961,-0.146761 0.144694,-0.217041 0.07235,-0.316259 0.04961,-1.45314 -0.121956,-0.605648 -0.219108,-0.169498 -0.314192,0.04754 -0.09715,-0.04754 v -0.219108 l 0.508496,-0.217041 z"
         style="stroke-width:0.264583"
         id="path949" />
      <path
         d="m 42.258897,33.775195 q 0.14056,0.02274 0.169498,0.169499 l -0.09715,2.519741 0.119889,0.630451 0.219108,0.411344 -0.07235,0.07235 -0.291455,-0.04754 -0.677994,0.07235 -0.146761,-0.04754 0.04961,-0.146761 0.144694,-0.217041 0.07235,-0.316259 0.04961,-1.45314 -0.121956,-0.605648 -0.219108,-0.169498 -0.314192,0.04754 -0.09715,-0.04754 v -0.219108 l 0.508496,-0.217041 z"
         style="stroke-width:0.264583"
         id="path951" />
    </g>
    <path
       style="fill:#000000;stroke-width:0.0178776"
       d="m 9.2668919,18.767906 c -9.891e-4,2.6e-4 0.071458,-0.01888 0.070468,-0.01862 0.082301,0.01031 0.1641948,0.02122 0.2455509,0.0326 0.081351,0.01138 0.1623619,0.02327 0.2428613,0.03554 0.1926325,0.01074 0.3856965,0.02358 0.5753025,0.03706 0.541147,0.03843 0.612659,0.04887 1.38858,0.138095 0.281428,0.03236 0.536624,0.06072 0.817277,0.09099 0.428063,0.02548 0.787743,0.04276 1.217204,0.06364 0.395777,0.01924 0.82027,0.04008 1.205679,0.06891 0.14319,-0.0107 0.288039,-0.02137 0.431677,-0.03151 0.237754,-0.01678 0.433199,-0.02707 0.433904,-0.02488 6.51e-4,0.0022 -0.01488,0.03358 -0.03633,0.07002 -0.03072,0.0522 -0.07603,0.09694 -0.237076,0.220814 -0.06652,0.05117 -0.134279,0.102415 -0.202166,0.153251 -0.008,0.02351 -0.01634,0.04719 -0.02503,0.07102 -0.01367,0.03745 -0.03049,0.104394 -0.03542,0.141162 -0.0031,0.02326 -0.0066,0.04674 -0.01036,0.07041 -0.0061,0.0031 -0.08389,0.04181 -0.09002,0.04486 -0.06595,0.03285 -0.09546,0.0412 -0.112147,0.03197 -0.01252,-0.0069 -0.288872,-0.146437 -0.670062,-0.266046 -0.230024,-0.07218 -0.476389,-0.135423 -0.728334,-0.192997 2.57e-4,-3.2e-5 -0.08736,0.01094 -0.08711,0.01091 -0.04785,0.006 -0.09484,0.01417 -0.104349,0.01828 -0.0094,0.0041 -0.01403,0.03356 -0.01113,0.066 0.0018,0.01966 0.0032,0.03948 0.0043,0.05945 0.0965,0.04834 0.189657,0.09871 0.278971,0.151452 0.08932,0.05275 0.174962,0.107968 0.256463,0.166069 0.126985,0.04514 0.250124,0.09352 0.367735,0.146014 0.117638,0.05251 0.230337,0.109394 0.336481,0.171739 -0.05878,0.05603 -0.116514,0.111475 -0.17427,0.167451 -0.154023,0.149267 -0.208665,0.217316 -0.274377,0.334001 -0.01587,0.02818 -0.02441,0.02761 -0.12012,0.0088 -0.104617,-0.02057 -0.105199,-0.02517 -0.237823,-0.114409 -0.124531,-0.08381 -0.144432,-0.13192 -0.438653,-0.393905 -0.525784,-0.468164 -0.149433,-0.08037 -0.509242,-0.462816 -0.05819,-0.06185 -0.119528,-0.121702 -0.184203,-0.179734 -0.113503,-0.03847 -0.229693,-0.07604 -0.347362,-0.112674 -0.194417,-0.06053 -0.369658,-0.108873 -0.382535,-0.110101 -0.03954,-0.0038 -0.156757,0.0348 -0.222756,0.07332 -0.107165,0.06255 -0.111353,0.08157 -0.06208,0.19413 0.05428,0.12399 0.05809,0.09514 0.303864,0.369434 0.321163,0.35843 0.148671,0.204822 0.46759,0.468782 0.07624,0.06311 0.150016,0.12782 0.221116,0.194233 0.170545,0.07729 0.336026,0.159464 0.491874,0.247948 0.257844,0.146395 0.440893,0.293199 0.440543,0.296173 -3.75e-4,0.003 -0.09056,0.127257 -0.200504,0.271556 -0.177776,0.233326 -0.210815,0.261152 -0.254257,0.279377 -0.02879,0.01208 -0.06404,0.02233 -0.07821,0.02288 -0.01408,5e-4 -0.111849,-0.02169 -0.220794,-0.0459 -0.06601,-0.01467 -0.133029,-0.02844 -0.200834,-0.04143 -0.0437,-0.03109 -0.08807,-0.06158 -0.133001,-0.09152 -0.09201,-0.06131 -0.201637,-0.155648 -0.35156,-0.289088 -0.07385,-0.06573 -0.150052,-0.130549 -0.228257,-0.194362 -0.06749,-0.103048 -0.139825,-0.20478 -0.217008,-0.304804 -0.07719,-0.100027 -0.159178,-0.198297 -0.245991,-0.294459 -0.09168,-0.177695 -0.197432,-0.348624 -0.316336,-0.510173 -0.224277,-0.304714 -0.423581,-0.497277 -0.472579,-0.563443 -0.0892,-0.120458 -0.27894,-0.236602 -0.378337,-0.246048 -0.0261,-0.0025 -0.291195,-0.0164 -0.5806616,-0.02681 -0.3470961,-0.01249 -0.5451997,-0.01796 -0.5569274,-0.02359 -0.00966,-0.0046 -0.042118,-0.03413 -0.072129,-0.06418 -0.053072,-0.05316 -0.053416,-0.05644 -0.017924,-0.12047 0.083582,-0.150814 0.072623,-0.158003 0.012957,-0.195786 -0.032741,-0.02073 -0.058846,-0.04033 -0.057047,-0.04365 0.00181,-0.0033 0.03585,-0.01462 0.074844,-0.02489 0,0 2.51e-5,-1e-6 2.51e-5,-1e-6 z"
       id="path847-4"
       inkscape:path-effect="#path-effect1469"
       inkscape:original-d="m 14.312184,29.293137 -0.05049,-0.05269 0.05608,-0.223935 0.05608,-0.223937 1.35e-4,-0.514449 c 6.8e-5,-0.484843 0.0047,-0.558067 0.08045,-1.272348 l 0.08034,-0.757899 V 25.151331 24.05479 l -0.09908,-0.351197 c -0.05449,-0.193158 -0.09673,-0.353024 -0.09386,-0.355258 0.0029,-0.0022 0.04771,-0.01219 0.09964,-0.02213 0.07716,-0.01477 0.137594,-0.0105 0.330735,0.02333 l 0.236321,0.04139 0.09329,-0.04261 c 0.05131,-0.02343 0.13078,-0.0684 0.17661,-0.09993 l 0.08331,-0.05732 0.07672,0.03727 c 0.05636,0.02739 0.07467,0.04581 0.06901,0.06948 -0.0042,0.01772 -0.08443,0.398108 -0.178194,0.845311 l -0.170499,0.813101 0.03077,0.06823 c 0.01692,0.03753 0.03752,0.07241 0.04575,0.0775 0.0082,0.005 0.05734,-0.01497 0.109098,-0.04458 l 0.0941,-0.05384 0.179743,-0.38088 0.179745,-0.38088 0.09554,-0.469286 0.09555,-0.469286 0.242699,-2.1e-4 c 0.218874,-1.82e-4 0.308779,-0.01196 0.45976,-0.06023 0.03528,-0.01128 0.03989,-0.0031 0.05865,0.104749 0.01906,0.1094 0.0167,0.130791 -0.0362,0.329782 -0.05167,0.194338 -0.08236,0.26097 -0.353852,0.768181 -0.293278,0.547924 -0.300714,0.559606 -0.553454,0.869484 l -0.256181,0.314101 -0.132442,0.396447 c -0.07284,0.218046 -0.132442,0.40638 -0.132442,0.418518 0,0.03745 0.09315,0.110829 0.176934,0.139381 0.135583,0.0462 0.174108,0.03598 0.359394,-0.0954 0.154692,-0.109684 0.202836,-0.160201 0.539873,-0.566543 0.369783,-0.445819 0.370173,-0.446382 0.570124,-0.821554 l 0.200088,-0.375428 0.156741,-0.685151 c 0.08621,-0.376833 0.159493,-0.687116 0.162855,-0.689517 0.0034,-0.0024 0.177874,-0.02975 0.387801,-0.06077 0.345405,-0.05104 0.386506,-0.05391 0.432397,-0.03018 0.0279,0.01442 0.05691,0.03626 0.06449,0.04853 0.0075,0.01227 0.03049,0.122941 0.05091,0.245944 l 0.03712,0.223642 -0.05805,0.21453 c -0.03894,0.143893 -0.116944,0.345492 -0.236911,0.612336 l -0.178861,0.397814 -0.342835,0.478187 -0.342834,0.478186 -0.690168,0.694419 c -0.43376,0.436431 -0.758737,0.74782 -0.874738,0.838162 -0.208485,0.162365 -0.414327,0.40936 -0.414327,0.497162 0,0.02685 0.02429,0.255896 0.05399,0.508989 0.0352,0.300051 0.04799,0.4674 0.03675,0.480947 -0.0095,0.01145 -0.07199,0.05783 -0.138906,0.103122 -0.116219,0.07865 -0.128868,0.08285 -0.282565,0.09374 -0.376985,0.02672 -0.380064,0.02738 -0.47442,0.101963 -0.04822,0.03812 -0.09445,0.06931 -0.10273,0.06931 -0.0083,0 -0.03778,-0.02372 -0.06555,-0.05269 z" />
  </g>
</svg>
