<?xml version="1.0" encoding="UTF-8" standalone="no"?>
<svg
   xmlns:dc="http://purl.org/dc/elements/1.1/"
   xmlns:cc="http://creativecommons.org/ns#"
   xmlns:rdf="http://www.w3.org/1999/02/22-rdf-syntax-ns#"
   xmlns:svg="http://www.w3.org/2000/svg"
   xmlns="http://www.w3.org/2000/svg"
   xmlns:sodipodi="http://sodipodi.sourceforge.net/DTD/sodipodi-0.dtd"
   xmlns:inkscape="http://www.inkscape.org/namespaces/inkscape"
   viewBox="0 0 25.4 25.4"
   height="96"
   width="96"
   version="1.1"
   id="svg4679"
   sodipodi:docname="die.d12White.1x1x02.svg"
   inkscape:version="1.0.2-2 (e86c870879, 2021-01-15)">
  <metadata
     id="metadata4685">
    <rdf:RDF>
      <cc:Work
         rdf:about="">
        <dc:format>image/svg+xml</dc:format>
        <dc:type
           rdf:resource="http://purl.org/dc/dcmitype/StillImage" />
      </cc:Work>
    </rdf:RDF>
  </metadata>
  <defs
     id="defs4683" />
  <sodipodi:namedview
     pagecolor="#ffffff"
     bordercolor="#666666"
     borderopacity="1"
     objecttolerance="10"
     gridtolerance="10"
     guidetolerance="10"
     inkscape:pageopacity="0"
     inkscape:pageshadow="2"
     inkscape:window-width="1918"
     inkscape:window-height="2054"
     id="namedview4681"
     showgrid="false"
     inkscape:zoom="6.96875"
     inkscape:cx="55.174888"
     inkscape:cy="35.80269"
     inkscape:window-x="1900"
     inkscape:window-y="0"
     inkscape:window-maximized="0"
     inkscape:current-layer="svg4679"
     inkscape:document-rotation="0" />
  <g
     id="g858">
    <path
       style="fill:#000000;stroke-width:0.00591066"
       d="m 20.174174,16.309163 c -0.0081,-0.04081 -0.08542,-0.306902 -0.08881,-0.305669 -0.0022,8.14e-4 -0.0735,0.09358 -0.158275,0.206012 -0.143948,0.191019 -0.159412,0.2103 -0.234505,0.292383 -0.12209,0.133453 -0.197112,0.190172 -0.41065,0.310435 l -0.167468,0.09433 -0.135288,0.01636 -0.135287,0.01636 -0.0064,-0.03636 -0.0064,-0.03636 0.02629,-0.03755 c 0.02575,-0.03677 0.02769,-0.04117 0.09434,-0.215308 0.05938,-0.155092 0.07951,-0.202412 0.157921,-0.371077 0.04943,-0.106327 0.13814,-0.290857 0.197139,-0.410068 0.08924,-0.180328 0.12295,-0.244454 0.200564,-0.381498 0.09821,-0.173428 0.153061,-0.261207 0.291418,-0.466312 0.06094,-0.09042 0.11631,-0.165509 0.32651,-0.443234 0.139212,-0.18393 0.258008,-0.341409 0.26399,-0.349952 0.01038,-0.01482 0.01139,-0.01264 0.02206,0.04785 l 0.01118,0.06339 -0.138852,0.198301 -0.138854,0.198304 -0.02202,0.06617 -0.02202,0.06617 0.03097,0.35156 c 0.01704,0.193346 0.03229,0.351073 0.03388,0.350489 0.0016,-5.99e-4 0.04647,-0.07575 0.09975,-0.166856 l 0.09684,-0.165788 0.09443,-0.204256 c 0.08285,-0.179215 0.104431,-0.230023 0.176051,-0.414514 0.08025,-0.206746 0.08253,-0.213472 0.136054,-0.401534 0.05168,-0.181586 0.05454,-0.193843 0.05639,-0.242056 0.002,-0.04988 -0.0028,-0.06837 -0.02528,-0.09721 -0.0038,-0.005 5.78e-4,-0.01234 0.04429,-0.07477 l 0.04854,-0.06932 0.100783,-0.07945 0.100782,-0.07945 0.0045,0.02495 0.0045,0.02495 -0.04091,0.05871 -0.0409,0.05869 -0.08443,0.290025 c -0.08374,0.287658 -0.08534,0.292527 -0.195686,0.596694 -0.108588,0.299318 -0.114261,0.313673 -0.236777,0.599192 l -0.125521,0.292527 -0.0834,0.151341 c -0.04587,0.08324 -0.08427,0.153881 -0.08532,0.156979 -0.0013,0.0039 0.0111,0.423876 0.01355,0.458709 6.6e-5,8.04e-4 -0.0106,0.01677 -0.02366,0.03542 -0.02107,0.03009 -0.02404,0.03258 -0.02608,0.02237 z m -0.142242,-0.620192 c -0.003,-0.01665 -0.03321,-0.154271 -0.06709,-0.305937 -0.03388,-0.151664 -0.06474,-0.292836 -0.06849,-0.313858 l -0.0068,-0.03822 -0.131617,0.187969 -0.131618,0.18797 -0.06787,0.130142 c -0.03733,0.07157 -0.100255,0.199186 -0.139841,0.283573 -0.07169,0.152848 -0.07209,0.153811 -0.102647,0.256193 -0.01687,0.05653 -0.03004,0.106369 -0.02927,0.110769 7.76e-4,0.0044 0.0101,0.02038 0.02073,0.03553 l 0.01931,0.02754 0.140152,-0.05142 0.140152,-0.05142 0.103943,-0.08559 c 0.103224,-0.08499 0.104662,-0.08642 0.208493,-0.205262 0.05751,-0.06583 0.107553,-0.12372 0.111227,-0.128679 0.0047,-0.0063 0.005,-0.01833 0.0012,-0.03924 z m -1.475971,2.11817 c -0.01374,0.0045 -0.0379,-0.0063 -0.07834,-0.0349 -0.0557,-0.03945 -0.06163,-0.04113 -0.125363,-0.03589 l -0.06689,0.0055 -0.150325,0.134771 -0.150326,0.134771 -0.0049,-0.02787 -0.0049,-0.02787 0.204257,-0.544329 0.204259,-0.544333 0.08453,-0.105654 c 0.04649,-0.05814 0.08752,-0.109815 0.09116,-0.11493 0.0048,-0.0068 0.009,0.0044 0.01548,0.04092 0.0049,0.02761 0.0071,0.05278 0.0049,0.05596 -0.0022,0.0032 -0.03165,0.05384 -0.06548,0.112661 l -0.06155,0.10696 -0.0527,0.135974 -0.0527,0.135984 0.0047,0.02646 c 0.0043,0.02462 0.0073,0.02605 0.04381,0.01938 0.02153,-0.0039 0.04323,-0.01159 0.04824,-0.01711 0.005,-0.0056 0.02881,-0.03326 0.0529,-0.06164 0.02409,-0.02839 0.04764,-0.05577 0.05232,-0.06094 0.0058,-0.0064 0.01188,-0.02548 0.01876,-0.05867 0.009,-0.04359 0.02316,-0.08179 0.120674,-0.326928 0.08702,-0.218754 0.136507,-0.336293 0.233507,-0.554657 0.111731,-0.251527 0.136249,-0.30333 0.265798,-0.56159 l 0.142715,-0.284511 0.120871,-0.189633 c 0.181055,-0.284073 0.231382,-0.360229 0.401073,-0.607054 0.133874,-0.194697 0.170813,-0.2462 0.268122,-0.373404 0.189296,-0.247586 0.386674,-0.473914 0.594097,-0.681254 0.131087,-0.131031 0.165234,-0.161559 0.506993,-0.453143 l 0.366439,-0.312645 0.09204,-0.131447 0.09204,-0.131447 0.0042,-0.03946 c 0.0036,-0.03374 0.0024,-0.04295 -0.0078,-0.06366 -0.0066,-0.01332 -0.01434,-0.02453 -0.01718,-0.0249 -0.004,-4.72e-4 -0.02126,0.02536 -0.07672,0.115196 -0.03938,0.06375 -0.07782,0.126419 -0.08541,0.139229 l -0.01383,0.02325 0.0076,-0.06916 c 0.0064,-0.05802 0.0061,-0.0756 -0.0013,-0.109211 l -0.0089,-0.04003 0.04167,-0.07397 c 0.02542,-0.04506 0.0565,-0.107286 0.07966,-0.159345 0.0209,-0.04695 0.03923,-0.08582 0.04075,-0.08637 0.0015,-5.57e-4 0.03172,0.01248 0.06711,0.02895 0.06103,0.02844 0.06831,0.02922 0.141632,0.01524 0.04251,-0.0081 0.07779,-0.01086 0.0784,-0.0062 6.14e-4,0.0048 -0.0016,0.0299 -0.005,0.05606 l -0.0061,0.04749 -0.06378,0.125895 c -0.03507,0.06923 -0.113373,0.235158 -0.173996,0.368704 l -0.11022,0.242809 -0.102121,0.309256 c -0.05617,0.1701 -0.103073,0.310617 -0.104236,0.312278 -0.0011,0.0016 -0.0088,4.4e-4 -0.01699,-0.0028 l -0.01486,-0.0059 0.02253,-0.105934 c 0.0124,-0.05826 0.02379,-0.112194 0.02534,-0.119853 0.0015,-0.0077 0.0041,-0.04984 0.0058,-0.09375 0.0024,-0.06481 0.0015,-0.0792 -0.005,-0.07636 -0.0043,0.0019 -0.0776,0.05322 -0.162768,0.114047 -0.125673,0.08976 -0.190284,0.140915 -0.342798,0.271383 l -0.187937,0.160769 -0.245698,0.254102 -0.245698,0.254103 -0.09961,0.128933 c -0.05477,0.07096 -0.177599,0.235136 -0.272923,0.364926 -0.154928,0.210995 -0.18662,0.256005 -0.298832,0.424272 l -0.125517,0.188271 -0.11484,0.219388 c -0.07263,0.138747 -0.155818,0.30465 -0.226316,0.451337 -0.09515,0.197982 -0.126647,0.268062 -0.215094,0.478559 l -0.103616,0.24661 -0.124673,0.368796 -0.124672,0.368794 -0.01053,0.07141 c -0.0093,0.06286 -0.0097,0.08221 -0.0033,0.162104 l 0.0072,0.09075 z"
       id="path1450" />
    <g
       aria-label="2"
       id="text892-2"
       style="font-size:7.76111px;line-height:1.25;font-family:aaatord;-inkscape-font-specification:aaatord;display:inline;stroke-width:0.264583"
       transform="translate(31.901108,-30.874936)">
      <path
         d="m -19.835866,40.084708 h 0.723814 l 0.591179,0.09095 0.500227,0.227376 0.314538,0.360013 0.227376,0.500227 v 0.632864 l -0.409277,1.000456 -1.224043,1.584055 -1.402153,1.133091 1.993332,0.363802 h 1.269517 l 0.545703,-0.136425 0.223587,-0.500228 0.136426,-0.132636 0.318326,0.132636 0.09095,0.454752 -0.04547,0.136426 -1.224043,0.905716 -0.500227,0.181901 -0.67834,0.04548 -2.993787,-0.500228 -1.042141,0.136426 -0.04548,-0.136426 0.814765,-0.632864 1.769746,-1.769745 0.905715,-1.220253 0.09095,-0.545703 -0.09095,-0.632864 -0.223587,-0.454752 -0.318326,-0.409278 -0.500228,-0.181901 -0.587389,0.09095 -0.500228,0.227376 -0.09095,0.454753 0.136426,0.496438 -0.318327,0.409277 -0.409277,-0.227376 -0.08716,-0.450963 0.223586,-0.636654 0.318327,-0.409277 0.454753,-0.269062 z"
         style="font-size:7.76111px;stroke-width:0.264583"
         id="path954" />
    </g>
    <g
       aria-label="8"
       id="text936"
       style="font-size:4.23333px;line-height:1.25;font-family:aaatord;-inkscape-font-specification:aaatord;display:inline;stroke-width:0.264583"
       transform="matrix(-0.70020754,-1,1,0,-4.5314504,26.299102)">
      <path
         d="m 19.998971,33.775198 h 0.398941 l 0.401009,0.250113 0.1757,0.376205 v 0.351399 l -0.250114,0.401009 -0.299723,0.198437 -0.276985,0.05168 0.551904,0.148828 0.299723,0.225309 0.175699,0.351399 v 0.376204 l -0.225309,0.401009 -0.299723,0.225309 -0.326595,0.1757 -0.802017,0.250113 -0.398942,0.02481 -0.527099,-0.09922 -0.324528,-0.227376 -0.150895,-0.349332 -0.0248,-0.225309 0.04961,-0.225309 0.1757,-0.3514 0.274918,-0.250113 0.326595,-0.1757 -0.3514,-0.1757 -0.225309,-0.299723 -0.0248,-0.401009 0.225309,-0.401008 0.299723,-0.225309 0.351399,-0.1757 z m -0.702799,0.376204 q -0.144694,0.152962 -0.148828,0.401009 0.03307,0.181901 0.1757,0.374137 l 0.324527,0.227376 0.401009,0.148828 0.124023,-0.401009 -0.148828,-0.401009 -0.30179,-0.250113 q -0.183968,-0.06408 -0.425813,-0.09922 z m -0.225309,1.577163 -0.148828,0.225309 -0.101286,0.276986 0.05168,0.299723 0.148828,0.200504 0.450619,0.274919 0.30179,0.07648 0.324527,0.0248 q 0.124024,-0.03514 0.200505,-0.150895 l 0.0248,-0.326595 -0.07441,-0.299723 -0.326594,-0.376204 -0.250114,-0.124023 -0.274918,-0.07648 z"
         style="stroke-width:0.264583"
         id="path940" />
    </g>
    <g
       aria-label="0"
       id="text944"
       style="font-size:4.23333px;line-height:1.25;font-family:aaatord;-inkscape-font-specification:aaatord;display:inline;stroke-width:0.264583"
       transform="matrix(-0.70020754,0.80167908,-1,0,72.140275,-6.7860351)">
      <path
         d="m 34.423444,33.775195 0.363802,0.02687 0.312125,0.07648 0.235644,0.157096 0.33693,0.44235 0.10542,0.260449 0.103353,0.599446 -0.05168,0.415478 -0.208773,0.574642 -0.338997,0.44235 -0.494026,0.285253 -0.572575,0.10542 -0.363801,-0.10542 -0.417546,-0.363801 -0.157096,-0.233578 -0.181901,-0.599446 v -0.702799 l 0.235645,-0.572574 0.33693,-0.417545 0.469221,-0.287321 z m -1.61437,0.02687 q 0.14676,0.03721 0.1819,0.206706 l -0.05168,0.314192 -0.07855,1.744595 0.05168,0.702799 0.07855,0.285253 0.208773,0.417546 -0.130224,0.130224 -0.181901,-0.07855 -0.626318,0.07855 q -0.146761,-0.02067 -0.155029,-0.181901 l 0.155029,-0.208772 0.10542,-0.624251 -0.02687,-1.459341 -0.07855,-0.260449 -0.285254,-0.208773 -0.208772,0.05374 -0.130225,-0.235644 z m 1.327049,0.467155 -0.312125,0.235644 -0.157096,0.338997 -0.07648,0.44235 0.05168,0.44235 0.155029,0.390673 0.235644,0.285254 0.312126,0.183968 0.44235,0.02481 0.312125,-0.181901 0.181901,-0.363802 0.05374,-0.44235 -0.05374,-0.469222 -0.155029,-0.365868 -0.235645,-0.260449 -0.33693,-0.181901 q -0.186035,-0.06615 -0.417545,-0.07855 z"
         style="stroke-width:0.264583"
         id="path946" />
    </g>
    <path
       style="display:inline;fill:#000000;stroke-width:0.00986709"
       d="m 3.4198893,12.183462 0.02846,-0.0036 0.1209441,0.137607 0.1209446,0.137617 0.2778471,0.243553 c 0.2618574,0.229503 0.3014045,0.266745 0.6871776,0.647546 l 0.4093314,0.404005 0.5922303,0.518971 0.5922275,0.518969 0.1896767,0.110333 c 0.1043217,0.06069 0.1906631,0.112518 0.1918702,0.115198 0.00117,0.0027 0.00655,0.03265 0.011955,0.06668 0.00799,0.05052 0.00565,0.08256 -0.012601,0.175502 l -0.022356,0.1137 0.023012,0.07278 c 0.012655,0.04003 0.036941,0.106136 0.053975,0.146913 l 0.030954,0.07411 -0.020131,0.02563 c -0.014791,0.01883 -0.024744,0.02043 -0.037524,0.006 -0.00958,-0.01073 -0.2150129,-0.236039 -0.4565412,-0.500574 l -0.4391443,-0.480988 -0.036851,-0.01494 c -0.020274,-0.0082 -0.039104,-0.0131 -0.04185,-0.01087 -0.00269,0.0023 0.00808,0.03942 0.02408,0.08263 l 0.029079,0.07855 0.2057077,0.281642 0.2057086,0.281644 0.2534542,0.275995 0.253456,0.275997 1.131e-4,0.136988 c 9.87e-5,0.123539 0.00646,0.179823 0.032525,0.287821 0.0061,0.02525 0.00171,0.02398 -0.056578,-0.01651 C 6.5719589,16.331382 6.5604082,16.319928 6.45293,16.195905 6.3479711,16.07479 6.3119835,16.025942 6.0380458,15.632759 5.7421196,15.208025 5.7358103,15.198302 5.5684497,14.909091 L 5.3988077,14.61594 5.1846923,14.35361 C 5.0669289,14.209332 4.9652117,14.086578 4.9586556,14.080832 c -0.02022,-0.01771 -0.059854,9.5e-5 -0.075273,0.03384 -0.02495,0.05461 -0.019431,0.08118 0.051525,0.24786 0.059243,0.139166 0.086527,0.190229 0.3059826,0.572636 0.2407808,0.419565 0.241085,0.420052 0.4437098,0.710391 l 0.2027639,0.290537 0.3700402,0.41267 c 0.2035232,0.226973 0.3711027,0.415157 0.3723996,0.418186 0.00126,0.003 0.016065,0.114403 0.032821,0.247492 0.027571,0.21898 0.029115,0.243515 0.016298,0.258168 -0.00781,0.0089 -0.019583,0.01494 -0.026216,0.01339 -0.00664,-0.0016 -0.066396,-0.041 -0.1328314,-0.08768 L 6.3990904,17.113488 6.2832252,16.979216 C 6.2055024,16.889144 6.0966296,16.749738 5.9525113,16.555788 L 5.7376573,16.266629 5.4793952,15.846944 5.2211331,15.427261 4.8460877,14.709333 C 4.6103769,14.258126 4.4421996,13.927457 4.3934066,13.81927 4.3057127,13.624833 4.1723168,13.391837 4.1248961,13.350282 4.1104016,13.337582 3.9866905,13.242875 3.8499981,13.139841 3.6879444,13.017685 3.597563,12.945701 3.5902457,12.932954 c -0.0061,-0.0107 -0.031233,-0.06798 -0.055698,-0.127157 -0.042478,-0.102776 -0.04474,-0.111891 -0.050628,-0.203739 -0.014432,-0.225278 -0.014791,-0.227329 -0.05507,-0.315845 -0.020588,-0.04524 -0.037434,-0.08608 -0.037434,-0.09075 0,-0.0047 0.012807,-0.01009 0.028459,-0.01203 z"
       id="path847-9" />
    <g
       aria-label="7"
       id="text932"
       style="font-size:4.23333px;line-height:1.25;font-family:aaatord;-inkscape-font-specification:aaatord;display:inline;fill:#7f7f7f;fill-opacity:1;stroke-width:0.264583"
       transform="matrix(-1,0.36397023,0.46630766,-1,4.2232126,37.670426)">
      <path
         d="m 12.516983,33.775197 1.496549,0.361735 0.775145,-0.05168 -0.103352,0.231511 -0.38654,0.233577 -0.310058,0.307991 -0.541569,0.698665 -0.440282,0.79995 -0.15503,0.463021 v 0.33693 l 0.285254,0.283186 -0.206706,0.07855 -0.541568,0.07648 q -0.241846,-0.0041 -0.33693,-0.258382 l -0.05168,-0.258382 0.02687,-0.283187 0.179834,-0.438216 0.516764,-0.723469 0.95498,-0.903303 -0.310059,-0.128158 -1.006656,-0.233577 -0.516764,0.103353 -0.23151,0.386539 Q 11.409042,34.72811 11.355298,34.471795 l 0.696598,-0.541569 q 0.198437,-0.09302 0.465087,-0.155029 z"
         style="fill:#7f7f7f;fill-opacity:1;stroke-width:0.264583"
         id="path937" />
    </g>
  </g>
</svg>
