<?xml version="1.0" encoding="UTF-8" standalone="no"?>
<svg
   xmlns:dc="http://purl.org/dc/elements/1.1/"
   xmlns:cc="http://creativecommons.org/ns#"
   xmlns:rdf="http://www.w3.org/1999/02/22-rdf-syntax-ns#"
   xmlns:svg="http://www.w3.org/2000/svg"
   xmlns="http://www.w3.org/2000/svg"
   xmlns:sodipodi="http://sodipodi.sourceforge.net/DTD/sodipodi-0.dtd"
   xmlns:inkscape="http://www.inkscape.org/namespaces/inkscape"
   viewBox="0 0 25.4 25.4"
   height="96"
   width="96"
   version="1.1"
   id="svg2015"
   sodipodi:docname="die.torD6White.1x1x2.svg"
   inkscape:version="1.0.2-2 (e86c870879, 2021-01-15)">
  <metadata
     id="metadata2021">
    <rdf:RDF>
      <cc:Work
         rdf:about="">
        <dc:format>image/svg+xml</dc:format>
        <dc:type
           rdf:resource="http://purl.org/dc/dcmitype/StillImage" />
        <dc:title />
      </cc:Work>
    </rdf:RDF>
  </metadata>
  <defs
     id="defs2019" />
  <sodipodi:namedview
     pagecolor="#ffffff"
     bordercolor="#666666"
     borderopacity="1"
     objecttolerance="10"
     gridtolerance="10"
     guidetolerance="10"
     inkscape:pageopacity="0"
     inkscape:pageshadow="2"
     inkscape:window-width="2199"
     inkscape:window-height="855"
     id="namedview2017"
     showgrid="false"
     inkscape:zoom="4.8670845"
     inkscape:cx="53.775087"
     inkscape:cy="49.541359"
     inkscape:window-x="42"
     inkscape:window-y="518"
     inkscape:window-maximized="0"
     inkscape:current-layer="svg2015"
     inkscape:document-rotation="0" />
  <g
     aria-label="2"
     id="text2586"
     style="font-style:normal;font-weight:normal;font-size:10.5833px;line-height:1.25;font-family:sans-serif;fill:#000000;fill-opacity:1;stroke:none;stroke-width:0.529167;stroke-miterlimit:4;stroke-dasharray:none"
     transform="matrix(0.8,0,0,0.8,2.5362981,2.5401474)">
    <path
       d="m 11.315075,5.0849753 h 1.579228 l 1.289841,0.1984371 1.091405,0.4960927 0.686261,0.7854803 0.496093,1.0914041 V 9.037181 l -0.892967,2.182808 -2.670633,3.456113 -3.0592386,2.472196 4.3490796,0.793748 h 2.769852 l 1.190622,-0.297655 0.487825,-1.091404 0.297656,-0.289388 0.69453,0.289388 0.198437,0.992185 -0.09922,0.297656 -2.670633,1.976103 -1.091404,0.396874 -1.48001,0.09922 L 7.9499109,19.223621 5.6761523,19.521277 5.5769333,19.223621 7.3545991,17.84283 11.215854,13.981574 13.191957,11.31921 13.390394,10.128587 13.191959,8.7477936 12.704134,7.755608 12.009604,6.862641 10.9182,6.4657668 9.6366273,6.6642039 8.5452232,7.1602967 8.3467861,8.1524822 8.6444418,9.2356181 7.9499119,10.128585 7.0569449,9.6324924 6.866776,8.648575 7.3546006,7.2595153 8.0491304,6.3665483 9.041316,5.7795051 Z"
       style="font-style:normal;font-variant:normal;font-weight:normal;font-stretch:normal;font-size:16.9333px;font-family:aaatord;-inkscape-font-specification:aaatord;fill:#ffffff;stroke:#000000;stroke-width:0.529167;stroke-miterlimit:4;stroke-dasharray:none;stroke-opacity:1"
       id="path831" />
  </g>
</svg>
