<?xml version="1.0" encoding="UTF-8" standalone="no"?>
<svg
   xmlns:dc="http://purl.org/dc/elements/1.1/"
   xmlns:cc="http://creativecommons.org/ns#"
   xmlns:rdf="http://www.w3.org/1999/02/22-rdf-syntax-ns#"
   xmlns:svg="http://www.w3.org/2000/svg"
   xmlns="http://www.w3.org/2000/svg"
   xmlns:sodipodi="http://sodipodi.sourceforge.net/DTD/sodipodi-0.dtd"
   xmlns:inkscape="http://www.inkscape.org/namespaces/inkscape"
   viewBox="0 0 25.4 25.4"
   height="96"
   width="96"
   version="1.1"
   id="svg7898"
   sodipodi:docname="die.d12White.1x1x10.svg"
   inkscape:version="1.0.2-2 (e86c870879, 2021-01-15)">
  <metadata
     id="metadata7904">
    <rdf:RDF>
      <cc:Work
         rdf:about="">
        <dc:format>image/svg+xml</dc:format>
        <dc:type
           rdf:resource="http://purl.org/dc/dcmitype/StillImage" />
      </cc:Work>
    </rdf:RDF>
  </metadata>
  <defs
     id="defs7902" />
  <sodipodi:namedview
     pagecolor="#ffffff"
     bordercolor="#666666"
     borderopacity="1"
     objecttolerance="10"
     gridtolerance="10"
     guidetolerance="10"
     inkscape:pageopacity="0"
     inkscape:pageshadow="2"
     inkscape:window-width="1818"
     inkscape:window-height="1099"
     id="namedview7900"
     showgrid="false"
     inkscape:zoom="6.4744465"
     inkscape:cx="43.815453"
     inkscape:cy="37.120179"
     inkscape:window-x="0"
     inkscape:window-y="23"
     inkscape:window-maximized="0"
     inkscape:current-layer="svg7898"
     inkscape:document-rotation="0" />
  <g
     id="g914">
    <g
       aria-label="2"
       id="text892"
       style="font-size:4.23333px;line-height:1.25;font-family:aaatord;-inkscape-font-specification:aaatord;display:inline;stroke-width:0.264583"
       transform="matrix(0.92042315,-1.3145005,0.16229543,0.92042315,33.316959,-45.090569)">
      <path
         d="m -21.130912,33.775198 h 0.394807 l 0.322461,0.04961 0.272851,0.124023 0.171566,0.196371 0.124023,0.272851 v 0.345198 l -0.223242,0.545703 -0.667659,0.864029 -0.76481,0.61805 1.087271,0.198437 h 0.692464 l 0.297656,-0.07441 0.121956,-0.272851 0.07441,-0.07235 0.173633,0.07235 0.04961,0.248046 -0.02481,0.07441 -0.667659,0.494027 -0.272851,0.09922 -0.370003,0.02481 -1.632974,-0.272851 -0.56844,0.07441 -0.02481,-0.07441 0.444417,-0.345199 0.965315,-0.965314 0.494026,-0.665592 0.04961,-0.297656 -0.04961,-0.345199 -0.121956,-0.248046 -0.173633,-0.223242 -0.272851,-0.09922 -0.320394,0.04961 -0.272851,0.124024 -0.04961,0.248046 0.07441,0.270785 -0.173633,0.223242 -0.223242,-0.124024 -0.04754,-0.245979 0.121956,-0.347266 0.173633,-0.223242 0.248046,-0.146761 z"
         style="stroke-width:0.264583"
         id="path922" />
    </g>
    <g
       aria-label="5"
       id="text924"
       style="font-size:4.23333px;line-height:1.25;font-family:aaatord;-inkscape-font-specification:aaatord;display:inline;stroke-width:0.264583"
       transform="matrix(0,1,-1,-0.83909963,41.068627,45.741909)">
      <path
         d="m -0.96697934,33.775195 1.61230333,0.183968 0.34313122,-0.10542 0.18396799,0.05374 -0.1054199,0.132291 -0.26458309,0.183968 -0.68626244,0.21084 -0.42167934,0.02687 -1.18855693,-0.159164 -0.3431312,0.107487 v 0.816487 l 0.5539709,-0.343131 0.3700029,-0.07855 0.42167933,-0.02687 0.37000295,0.08061 0.34313122,0.132292 0.26458311,0.157096 0.23771139,0.21084 0.21083967,0.264583 0.10541983,0.343131 -0.026872,0.370003 -0.13229158,0.370003 -0.18396794,0.262516 -0.23771139,0.212907 -0.60771433,0.289388 -0.76481056,0.132291 H -2.207213 l 0.183968,-0.634586 0.053743,-0.394808 q 0.1570962,0.06408 0.2377114,0.237712 l 0.2108397,0.21084 0.3162595,0.132291 0.37000291,0.07855 h 0.44855106 l 0.34313122,-0.10542 0.23771139,-0.210839 0.10541983,-0.343132 -0.0516764,-0.396874 -0.15916328,-0.289388 -0.21083966,-0.237711 -0.23771139,-0.186035 -0.3162595,-0.130225 -0.37000298,-0.08061 -0.7131341,0.186035 -0.2893878,0.157096 q -0.097152,-0.12609 -0.1054198,-0.316259 V 34.38291 l 0.5002274,-0.396875 0.3183266,-0.132292 z"
         style="stroke-width:0.264583"
         id="path931" />
    </g>
    <g
       aria-label="7"
       id="text932"
       style="font-size:4.23333px;line-height:1.25;font-family:aaatord;-inkscape-font-specification:aaatord;display:inline;stroke-width:0.264583"
       transform="matrix(-0.70020754,-1,1,0,-9.1233852,19.639342)">
      <path
         d="m 12.516983,33.775197 1.496549,0.361735 0.775145,-0.05168 -0.103352,0.231511 -0.38654,0.233577 -0.310058,0.307991 -0.541569,0.698665 -0.440282,0.79995 -0.15503,0.463021 v 0.33693 l 0.285254,0.283186 -0.206706,0.07855 -0.541568,0.07648 q -0.241846,-0.0041 -0.33693,-0.258382 l -0.05168,-0.258382 0.02687,-0.283187 0.179834,-0.438216 0.516764,-0.723469 0.95498,-0.903303 -0.310059,-0.128158 -1.006656,-0.233577 -0.516764,0.103353 -0.23151,0.386539 Q 11.409042,34.72811 11.355298,34.471795 l 0.696598,-0.541569 q 0.198437,-0.09302 0.465087,-0.155029 z"
         style="stroke-width:0.264583"
         id="path937" />
    </g>
    <g
       aria-label="9"
       id="text940"
       style="font-size:4.23333px;line-height:1.25;font-family:aaatord;-inkscape-font-specification:aaatord;display:inline;fill:#7f7f7f;fill-opacity:1;stroke-width:0.264583"
       transform="matrix(-1,0.36397023,0.46630766,-1,17.661665,32.53193)">
      <path
         d="m 26.267595,33.775195 0.504362,0.06821 0.388606,0.183968 0.322461,0.274918 0.227376,0.320394 0.138493,0.436149 -0.02274,0.413411 -0.206705,0.504361 -0.252181,0.320394 -0.320394,0.252181 -0.367935,0.206705 -0.434082,0.136426 -0.367936,0.02274 -1.008723,-0.434082 0.297656,-0.183968 q 0.155029,-0.08682 0.274918,-0.274918 l 0.206706,-0.09302 v 0.276986 q 0.07441,0.173632 0.252181,0.320393 l 0.229443,0.04548 h 0.252181 l 0.343131,-0.206705 0.229443,-0.343131 0.138493,-0.436149 0.02274,-0.274918 -0.665592,0.16123 -0.527099,0.04547 -0.436149,-0.138493 -0.320393,-0.25218 -0.206706,-0.365869 q 0.0041,-0.225309 0.115755,-0.458887 l 0.343132,-0.25218 0.390673,-0.161231 z m -0.25218,0.229443 -0.206706,0.136426 -0.115755,0.229443 0.02274,0.299723 0.09302,0.227376 0.159163,0.161231 0.206706,0.138492 0.252181,0.06821 0.32246,-0.02274 0.227377,-0.09302 0.07028,-0.204638 -0.09302,-0.229443 -0.274918,-0.390674 -0.411345,-0.252181 z m 1.215428,3.11712 0.136426,0.02274 -0.06821,0.138492 -0.183968,0.159164 -0.252181,0.09302 -0.297656,0.04547 -0.94051,-0.09095 -0.365869,0.113688 0.06821,-0.16123 0.183968,-0.159164 0.252181,-0.09302 0.297656,-0.04548 0.595312,0.09302 H 27.0014 q 0.113688,-0.03721 0.229443,-0.115755 z"
         style="fill:#7f7f7f;fill-opacity:1;stroke-width:0.264583"
         id="path943" />
    </g>
    <g
       aria-label="0"
       id="text944-4"
       style="font-size:7.76111px;line-height:1.25;font-family:aaatord;-inkscape-font-specification:aaatord;display:inline;stroke-width:0.26458333;stroke:none;stroke-miterlimit:4;stroke-dasharray:none;stroke-opacity:1"
       transform="translate(-23.140709,-30.876652)">
      <path
         d="m 37.059064,40.06748 0.666971,0.04926 0.57223,0.140216 0.432015,0.28801 0.617705,0.810975 0.19327,0.47749 0.18948,1.098985 -0.09474,0.761711 -0.38275,1.05351 -0.621495,0.810975 -0.905715,0.522966 -1.049721,0.19327 -0.66697,-0.19327 -0.7655,-0.666971 -0.28801,-0.428225 -0.333485,-1.098985 v -1.288466 l 0.432014,-1.04972 0.617706,-0.7655 0.86024,-0.526755 z m -2.959681,0.04926 q 0.269062,0.06821 0.333485,0.378961 l -0.09474,0.57602 -0.144005,3.198426 0.09474,1.288465 0.144005,0.522966 0.38275,0.7655 -0.238745,0.238745 -0.333485,-0.144005 -1.14825,0.144005 q -0.269062,-0.0379 -0.28422,-0.333485 l 0.28422,-0.38275 0.19327,-1.144461 -0.04926,-2.675461 -0.144005,-0.47749 -0.522965,-0.38275 -0.382751,0.09853 -0.238745,-0.432015 z m 2.432926,0.856451 -0.57223,0.432015 -0.28801,0.621495 -0.140215,0.810975 0.09474,0.810976 0.28422,0.716235 0.432015,0.522965 0.57223,0.337275 0.810976,0.04548 0.57223,-0.333485 0.333485,-0.66697 0.09853,-0.810976 -0.09853,-0.86024 -0.28422,-0.67076 -0.432015,-0.47749 -0.617706,-0.333485 q -0.341064,-0.121267 -0.7655,-0.144005 z"
         style="font-size:7.76111px;stroke-width:0.26458333;stroke:none;stroke-miterlimit:4;stroke-dasharray:none;stroke-opacity:1"
         id="path978" />
    </g>
    <path
       style="display:inline;fill:#000000;stroke-width:0.00454544"
       d="m 11.85671,20.331517 c 0.03643,-6.18e-4 0.309865,-0.02152 0.314078,-0.024 0.0028,-0.0016 0.05115,-0.06187 0.107425,-0.133756 0.09549,-0.122091 0.106501,-0.135057 0.166902,-0.196619 0.0982,-0.100092 0.173781,-0.15853 0.413709,-0.319878 l 0.188158,-0.126539 0.188057,-0.09497 0.188056,-0.09497 h 0.03128 0.03129 l -0.01584,0.02262 c -0.01551,0.02216 -0.0157,0.02402 -0.0083,0.09094 0.0065,0.05961 0.0056,0.07918 -0.0075,0.153518 -0.0083,0.04686 -0.02685,0.130199 -0.04133,0.185199 -0.02191,0.08319 -0.03258,0.114135 -0.06356,0.184091 -0.03918,0.08852 -0.06655,0.136862 -0.145375,0.256817 -0.03468,0.05285 -0.07043,0.100003 -0.210613,0.27814 -0.09284,0.117977 -0.171749,0.218716 -0.175352,0.223863 -0.0063,0.0089 -0.0091,0.0094 -0.0611,0.0094 h -0.05454 l 0.08366,-0.119471 0.08366,-0.119473 -0.0077,-0.02315 -0.0077,-0.02315 -0.25711,-0.02132 c -0.141417,-0.01172 -0.258743,-0.02036 -0.260731,-0.01919 -0.0021,0.0012 -0.02234,0.04112 -0.0454,0.08878 l -0.04179,0.08666 -0.01507,0.08966 c -0.01323,0.07867 -0.01419,0.09966 -0.0078,0.171243 0.0071,0.08022 0.0079,0.0826 0.04288,0.14218 0.0338,0.05753 0.03701,0.06098 0.06334,0.06809 0.02717,0.0074 0.04528,0.0064 0.09554,-0.0056 0.0085,-0.002 0.0066,0.0019 -0.01975,0.0395 l -0.02925,0.04177 -0.09957,0.0789 -0.09957,0.0789 -0.02165,8.6e-5 -0.02165,8.6e-5 0.02448,-0.03523 0.02447,-0.03523 -0.05122,-0.09318 c -0.0508,-0.09242 -0.0514,-0.09411 -0.07322,-0.206818 -0.02148,-0.110913 -0.02183,-0.116552 -0.01462,-0.235365 l 0.0074,-0.121728 0.03083,-0.07567 c 0.01696,-0.04162 0.03056,-0.07657 0.03024,-0.07767 -4.13e-4,-0.0014 -0.27161,-0.04374 -0.296178,-0.04628 -5.82e-4,-5.2e-5 0.0054,-0.0093 0.01328,-0.02056 0.01269,-0.01813 0.01554,-0.02047 0.02467,-0.02063 z m 0.581735,-0.0226 c 0.0144,-3.5e-5 0.141528,-0.0041 0.282462,-0.009 0.140934,-0.0049 0.271136,-0.009 0.289279,-0.009 l 0.03299,-5.2e-5 0.0793,-0.113246 0.0793,-0.113247 0.02088,-0.06242 c 0.01149,-0.03433 0.02666,-0.09305 0.03373,-0.130486 0.0128,-0.0678 0.01279,-0.06819 -0.0042,-0.101603 -0.0094,-0.01845 -0.02014,-0.03354 -0.02393,-0.03354 -0.0038,0 -0.02706,0.0045 -0.05173,0.0099 l -0.04484,0.0099 -0.17405,0.102563 -0.174049,0.102563 -0.100491,0.08182 c -0.0998,0.08125 -0.101044,0.08241 -0.181338,0.168182 -0.04447,0.0475 -0.0828,0.08892 -0.08519,0.09205 -0.003,0.004 0.0037,0.0057 0.02186,0.0056 z m 0.883049,-1.271203 c 0.01739,-0.01 0.05923,-0.02529 0.135625,-0.04961 0.105252,-0.0335 0.114943,-0.03738 0.205016,-0.08182 l 0.09454,-0.04664 0.138714,-0.119658 0.138716,-0.119658 h 0.02398 0.02398 l 0.02913,0.206363 0.02913,0.206365 -0.06001,0.07091 c -0.03299,0.039 -0.06186,0.07346 -0.06412,0.07659 -0.003,0.0041 -0.01584,0.0057 -0.04729,0.0057 -0.02376,0 -0.04212,-0.0015 -0.04083,-0.0034 0.0013,-0.0019 0.01386,-0.02828 0.02792,-0.05866 l 0.02559,-0.05526 -0.0048,-0.0527 -0.0048,-0.0527 h -0.02277 c -0.02118,0 -0.02644,0.0019 -0.07578,0.02777 -0.02915,0.01527 -0.05627,0.03112 -0.06026,0.03523 -0.004,0.0041 -0.0221,0.02383 -0.04025,0.04383 -0.01813,0.02 -0.03609,0.0395 -0.03983,0.04335 -0.0046,0.0047 -0.0021,0.01125 0.0079,0.02001 0.01303,0.0115 0.0154,0.02583 0.02043,0.122565 0.0045,0.08633 0.0029,0.134584 -0.0074,0.227721 -0.01191,0.107281 -0.01657,0.130411 -0.05049,0.250755 l -0.03737,0.132575 -0.06257,0.106061 c -0.09372,0.158875 -0.121459,0.202696 -0.220993,0.349245 -0.07855,0.115613 -0.101554,0.147244 -0.167269,0.229544 -0.127757,0.160117 -0.280142,0.323212 -0.458664,0.49091 -0.112824,0.105981 -0.144386,0.133152 -0.468671,0.403394 l -0.347702,0.289758 -0.05545,0.07919 -0.05545,0.07919 0.01766,0.0077 c 0.01512,0.0065 0.0223,0.0069 0.04983,0.0023 0.01768,-0.0029 0.03575,-0.0069 0.04014,-0.0088 0.0061,-0.0027 0.01583,-0.01769 0.04282,-0.06669 0.0192,-0.03479 0.03768,-0.06881 0.04107,-0.07558 l 0.0062,-0.01232 0.03057,0.01359 c 0.02566,0.0114 0.03655,0.01339 0.06774,0.01232 l 0.03719,-0.0013 -0.0164,0.03761 c -0.01003,0.02293 -0.01803,0.05184 -0.02053,0.07407 -0.0023,0.02006 -0.0057,0.03737 -0.0076,0.03848 -0.0019,0.0011 -0.05392,0.02029 -0.115616,0.04262 -0.10642,0.0385 -0.117529,0.04341 -0.216378,0.0955 -0.0573,0.0302 -0.107253,0.05478 -0.11098,0.05464 -0.0038,-1.55e-4 -0.01566,-0.0047 -0.02646,-0.01023 l -0.01968,-0.01 0.01745,-0.05909 c 0.0096,-0.0325 0.02418,-0.106426 0.0324,-0.164279 l 0.01496,-0.105185 -0.03693,-0.107673 c -0.02031,-0.05922 -0.03635,-0.108491 -0.03566,-0.109492 6.64e-4,-9.46e-4 0.01262,-0.0061 0.02655,-0.01133 l 0.02528,-0.0095 0.03086,0.02833 c 0.01697,0.01558 0.03279,0.02995 0.03515,0.03194 0.0024,0.002 0.02397,0.0089 0.04801,0.01534 0.03549,0.0095 0.04552,0.01064 0.05325,0.0059 0.0052,-0.0032 0.08146,-0.05979 0.169401,-0.125699 0.129768,-0.09726 0.19347,-0.147867 0.337978,-0.268508 l 0.178072,-0.14866 0.20634,-0.199673 0.206342,-0.199674 0.06803,-0.08409 c 0.03738,-0.04625 0.118146,-0.150567 0.1794,-0.231817 0.09952,-0.132059 0.118768,-0.159297 0.181547,-0.256818 l 0.07019,-0.10909 0.03582,-0.105522 c 0.02266,-0.06673 0.04441,-0.144022 0.05915,-0.210255 0.01992,-0.0894 0.02377,-0.119538 0.02635,-0.205841 l 0.003,-0.101109 -0.0398,-0.130389 -0.0398,-0.130387 -0.02762,-0.01589 c -0.02432,-0.01398 -0.03541,-0.0166 -0.09289,-0.02189 l -0.06526,-0.006 z"
       id="path1450-4" />
  </g>
</svg>
