<?xml version="1.0" encoding="UTF-8" standalone="no"?>
<svg
   xmlns:dc="http://purl.org/dc/elements/1.1/"
   xmlns:cc="http://creativecommons.org/ns#"
   xmlns:rdf="http://www.w3.org/1999/02/22-rdf-syntax-ns#"
   xmlns:svg="http://www.w3.org/2000/svg"
   xmlns="http://www.w3.org/2000/svg"
   xmlns:sodipodi="http://sodipodi.sourceforge.net/DTD/sodipodi-0.dtd"
   xmlns:inkscape="http://www.inkscape.org/namespaces/inkscape"
   viewBox="0 0 25.4 25.4"
   height="96"
   width="96"
   version="1.1"
   id="svg7762"
   sodipodi:docname="die.d12White.1x1x06.svg"
   inkscape:version="1.0.2-2 (e86c870879, 2021-01-15)">
  <metadata
     id="metadata7768">
    <rdf:RDF>
      <cc:Work
         rdf:about="">
        <dc:format>image/svg+xml</dc:format>
        <dc:type
           rdf:resource="http://purl.org/dc/dcmitype/StillImage" />
      </cc:Work>
    </rdf:RDF>
  </metadata>
  <defs
     id="defs7766" />
  <sodipodi:namedview
     pagecolor="#ffffff"
     bordercolor="#666666"
     borderopacity="1"
     objecttolerance="10"
     gridtolerance="10"
     guidetolerance="10"
     inkscape:pageopacity="0"
     inkscape:pageshadow="2"
     inkscape:window-width="1995"
     inkscape:window-height="993"
     id="namedview7764"
     showgrid="false"
     inkscape:zoom="4.3299648"
     inkscape:cx="47.91613"
     inkscape:cy="38.143075"
     inkscape:window-x="0"
     inkscape:window-y="23"
     inkscape:window-maximized="0"
     inkscape:current-layer="svg7762"
     inkscape:document-rotation="0" />
  <g
     id="g948">
    <g
       aria-label="6"
       id="text928-7"
       style="font-size:7.76111px;line-height:1.25;font-family:aaatord;-inkscape-font-specification:aaatord;display:inline;stroke-width:0.264583"
       transform="translate(4.3802016,-30.874935)">
      <path
         d="m 8.363379,40.084708 0.5040174,0.04169 1.5992126,0.337275 -0.37896,0.337275 -0.7996066,0.966349 -0.083371,-0.295589 Q 9.090983,41.11927 8.7423394,40.884314 l -0.4206461,-0.08337 -0.4661213,0.04169 -0.6290744,0.462332 -0.2955891,0.757921 -0.1250569,0.924664 0.083371,0.504017 1.72427,-0.799607 0.9701387,-0.08337 0.7541317,0.2918 0.549493,0.507807 0.166742,0.420646 v 0.420646 l -0.462332,0.629074 -0.587388,0.462332 -0.6745502,0.37896 L 8.4884359,45.928278 7.5220868,45.844906 6.8058516,45.507631 6.2184629,45.0453 5.9645594,44.7535 5.7978168,44.37454 5.5855989,43.533248 V 42.817012 L 6.006245,41.934034 6.4268911,41.30496 6.9725942,40.800943 7.6054581,40.380297 Z m -0.041686,3.15295 -0.507807,0.128847 -0.4206461,0.208428 -0.2917995,0.295589 0.4623317,0.754132 0.67076,0.507807 0.4623318,0.166742 0.5494926,0.04169 L 9.6670029,45.174146 9.8337455,44.711815 9.7503742,44.204008 9.5381563,43.783361 8.8257107,43.32103 Z m 1.6371091,2.944523 0.2539039,0.04169 -0.125057,0.253903 -0.3372751,0.2918 -0.4623318,0.170532 -0.545703,0.08337 -1.7280596,-0.166742 -0.67076,0.208428 0.125057,-0.295589 0.3372748,-0.2918 0.4623317,-0.170532 0.545703,-0.08337 1.0951957,0.166742 H 9.538156 q 0.2122179,-0.06442 0.4206461,-0.208428 z"
         style="font-size:7.76111px;stroke-width:0.264583"
         id="path966" />
    </g>
    <path
       style="display:inline;fill:#000000;stroke-width:0.00591066"
       d="m 20.087144,16.764808 c -0.0081,-0.04081 -0.08542,-0.306902 -0.08881,-0.305669 -0.0022,8.14e-4 -0.0735,0.09358 -0.158275,0.206012 -0.143948,0.191019 -0.159412,0.2103 -0.234505,0.292383 -0.12209,0.133453 -0.197112,0.190172 -0.41065,0.310435 l -0.167468,0.09433 -0.135288,0.01636 -0.135287,0.01636 -0.0064,-0.03636 -0.0064,-0.03636 0.02629,-0.03755 c 0.02575,-0.03677 0.02769,-0.04117 0.09434,-0.215308 0.05938,-0.155092 0.07951,-0.202412 0.157921,-0.371077 0.04943,-0.106327 0.13814,-0.290857 0.197139,-0.410068 0.08924,-0.180328 0.12295,-0.244454 0.200564,-0.381498 0.09821,-0.173428 0.153061,-0.261207 0.291418,-0.466312 0.06094,-0.09042 0.11631,-0.165509 0.32651,-0.443234 0.139212,-0.18393 0.258008,-0.341409 0.26399,-0.349952 0.01038,-0.01482 0.01139,-0.01264 0.02206,0.04785 l 0.01118,0.06339 -0.138852,0.198301 -0.138854,0.198304 -0.02202,0.06617 -0.02202,0.06617 0.03097,0.35156 c 0.01704,0.193346 0.03229,0.351073 0.03388,0.350489 0.0016,-5.99e-4 0.04647,-0.07575 0.09975,-0.166856 l 0.09685,-0.165788 0.09443,-0.204256 c 0.08285,-0.179215 0.104431,-0.230023 0.176051,-0.414514 0.08025,-0.206746 0.08253,-0.213472 0.136054,-0.401534 0.05168,-0.181586 0.05454,-0.193843 0.05639,-0.242056 0.002,-0.04988 -0.0028,-0.06837 -0.02528,-0.09721 -0.0038,-0.005 5.78e-4,-0.01234 0.04429,-0.07477 l 0.04854,-0.06932 0.100783,-0.07945 0.100782,-0.07945 0.0045,0.02495 0.0045,0.02495 -0.04091,0.05871 -0.0409,0.05869 -0.08443,0.290025 c -0.08374,0.287658 -0.08534,0.292527 -0.195686,0.596694 -0.108588,0.299318 -0.114261,0.313673 -0.236777,0.599192 l -0.125521,0.292527 -0.0834,0.151341 c -0.04587,0.08324 -0.08427,0.153881 -0.08532,0.156979 -0.0013,0.0039 0.0111,0.423876 0.01355,0.458709 6.6e-5,8.04e-4 -0.0106,0.01677 -0.02366,0.03542 -0.02107,0.03009 -0.02404,0.03258 -0.02607,0.02237 z m -0.142242,-0.620192 c -0.003,-0.01665 -0.03321,-0.154271 -0.06709,-0.305937 -0.03388,-0.151664 -0.06474,-0.292836 -0.06849,-0.313858 l -0.0068,-0.03821 -0.131617,0.187969 -0.131618,0.18797 -0.06787,0.130142 c -0.03733,0.07157 -0.100255,0.199186 -0.139841,0.283573 -0.07169,0.152848 -0.07209,0.153811 -0.102647,0.256193 -0.01687,0.05653 -0.03004,0.106369 -0.02927,0.110769 7.76e-4,0.0044 0.0101,0.02038 0.02073,0.03553 l 0.01931,0.02754 0.140152,-0.05142 0.140152,-0.05142 0.103943,-0.08559 c 0.103224,-0.08499 0.104662,-0.08642 0.208493,-0.205262 0.05751,-0.06583 0.107553,-0.12372 0.111227,-0.128679 0.0047,-0.0063 0.005,-0.01833 0.0012,-0.03924 z m -1.475971,2.11817 c -0.01374,0.0045 -0.0379,-0.0063 -0.07833,-0.03491 -0.0557,-0.03945 -0.06163,-0.04113 -0.125363,-0.03589 l -0.06689,0.0055 -0.150325,0.134771 -0.150326,0.134771 -0.0049,-0.02787 -0.0049,-0.02787 0.204257,-0.544329 0.204259,-0.544333 0.08453,-0.105654 c 0.04649,-0.05814 0.08752,-0.109815 0.09116,-0.11493 0.0048,-0.0068 0.009,0.0044 0.01548,0.04092 0.0049,0.02761 0.0071,0.05278 0.0049,0.05596 -0.0022,0.0032 -0.03165,0.05384 -0.06548,0.112661 l -0.06155,0.10696 -0.0527,0.135974 -0.0527,0.135984 0.0047,0.02646 c 0.0043,0.02462 0.0073,0.02605 0.04381,0.01938 0.02153,-0.0039 0.04323,-0.01159 0.04824,-0.01711 0.005,-0.0056 0.02881,-0.03326 0.0529,-0.06164 0.02409,-0.02839 0.04764,-0.05577 0.05232,-0.06094 0.0058,-0.0064 0.01188,-0.02548 0.01876,-0.05866 0.009,-0.04359 0.02316,-0.08179 0.120674,-0.326928 0.08702,-0.218754 0.136507,-0.336293 0.233507,-0.554657 0.111731,-0.251527 0.136249,-0.30333 0.265798,-0.56159 l 0.142715,-0.284511 0.120871,-0.189633 c 0.181055,-0.284073 0.231382,-0.360229 0.401073,-0.607054 0.133874,-0.194697 0.170813,-0.2462 0.268122,-0.373404 0.189296,-0.247585 0.386674,-0.473914 0.594097,-0.681254 0.131087,-0.13103 0.165234,-0.161558 0.506993,-0.453143 l 0.366439,-0.312645 0.09204,-0.131447 0.09204,-0.131446 0.0042,-0.03946 c 0.0036,-0.03374 0.0024,-0.04294 -0.0078,-0.06366 -0.0066,-0.01331 -0.01434,-0.02452 -0.01718,-0.02489 -0.004,-4.73e-4 -0.02127,0.02536 -0.07672,0.115195 -0.03938,0.06375 -0.07782,0.126419 -0.08541,0.139229 l -0.01383,0.02325 0.0076,-0.06916 c 0.0064,-0.05802 0.0061,-0.0756 -0.0013,-0.109211 l -0.0089,-0.04003 0.04167,-0.07397 c 0.02542,-0.04506 0.05651,-0.107286 0.07966,-0.159345 0.0209,-0.04695 0.03923,-0.08581 0.04075,-0.08637 0.0015,-5.57e-4 0.03172,0.01248 0.06711,0.02895 0.06103,0.02844 0.06831,0.02922 0.141632,0.01524 0.04251,-0.0081 0.07779,-0.01086 0.0784,-0.0062 6.14e-4,0.0048 -0.0016,0.0299 -0.005,0.05606 l -0.0061,0.04749 -0.06378,0.125895 c -0.03507,0.06923 -0.113373,0.235158 -0.173996,0.368703 l -0.11022,0.24281 -0.102121,0.309256 c -0.05617,0.170099 -0.103073,0.310617 -0.104236,0.312278 -0.0011,0.0016 -0.0088,4.39e-4 -0.01699,-0.0028 l -0.01486,-0.0059 0.02253,-0.105935 c 0.0124,-0.05826 0.02379,-0.112194 0.02533,-0.119853 0.0015,-0.0077 0.0041,-0.04984 0.0058,-0.09375 0.0024,-0.06481 0.0015,-0.0792 -0.005,-0.07636 -0.0043,0.0019 -0.0776,0.05322 -0.162768,0.114047 -0.125673,0.08976 -0.190284,0.140914 -0.342798,0.271382 l -0.187937,0.16077 -0.245698,0.254101 -0.245698,0.254103 -0.09961,0.128933 c -0.05477,0.07096 -0.177599,0.235136 -0.272923,0.364926 -0.154928,0.210995 -0.18662,0.256005 -0.298832,0.424272 l -0.125517,0.188271 -0.11484,0.219388 c -0.07263,0.138747 -0.155818,0.30465 -0.226316,0.451337 -0.09515,0.197982 -0.126647,0.268062 -0.215094,0.478559 l -0.103616,0.24661 -0.124673,0.368796 -0.124672,0.368794 -0.01053,0.07141 c -0.0093,0.06286 -0.0097,0.08221 -0.0033,0.162104 l 0.0072,0.09075 z"
       id="path1450-4" />
    <g
       aria-label="11"
       id="text948"
       style="font-size:4.23333px;line-height:1.25;font-family:aaatord;-inkscape-font-specification:aaatord;display:inline;stroke-width:0.264583"
       transform="matrix(-0.70020754,-1,1,0,10.388835,47.46895)">
      <path
         d="m 39.904521,33.775195 q 0.140559,0.02274 0.169498,0.169499 l -0.09715,2.519741 0.11989,0.630451 0.219108,0.411344 -0.07235,0.07235 -0.291455,-0.04754 -0.677994,0.07235 -0.146761,-0.04754 0.04961,-0.146761 0.144694,-0.217041 0.07235,-0.316259 0.04961,-1.45314 -0.121956,-0.605648 -0.219108,-0.169498 -0.314192,0.04754 -0.09715,-0.04754 v -0.219108 l 0.508496,-0.217041 z"
         style="stroke-width:0.264583"
         id="path949" />
      <path
         d="m 42.258897,33.775195 q 0.14056,0.02274 0.169498,0.169499 l -0.09715,2.519741 0.119889,0.630451 0.219108,0.411344 -0.07235,0.07235 -0.291455,-0.04754 -0.677994,0.07235 -0.146761,-0.04754 0.04961,-0.146761 0.144694,-0.217041 0.07235,-0.316259 0.04961,-1.45314 -0.121956,-0.605648 -0.219108,-0.169498 -0.314192,0.04754 -0.09715,-0.04754 v -0.219108 l 0.508496,-0.217041 z"
         style="stroke-width:0.264583"
         id="path951" />
    </g>
    <g
       aria-label="3"
       id="text892-4"
       style="font-size:4.23333px;line-height:1.25;font-family:aaatord;-inkscape-font-specification:aaatord;display:inline;fill:#7f7f7f;fill-opacity:1;stroke-width:0.264583"
       transform="matrix(-1,0.36397023,0.46630766,-1,-22.792566,47.238139)">
      <path
         d="m -14.955303,33.775195 0.39274,0.02687 0.655257,0.208773 0.367936,0.02687 0.60358,-0.07855 0.05168,0.10542 -0.733805,0.522965 -0.341064,0.341064 0.706933,0.132292 0.551903,0.287321 0.208773,0.183967 0.157096,0.262517 0.02687,0.39274 -0.07855,0.341064 -0.130225,0.287321 -0.446484,0.394808 -0.576708,0.235644 -0.709,0.130224 -1.205094,0.02687 -0.289387,-0.07855 0.157096,-0.262516 0.132291,-0.706933 0.365869,0.419612 0.262516,0.157096 0.314193,0.103353 h 0.760676 l 0.314193,-0.103353 0.237711,-0.183967 0.130225,-0.262517 0.02687,-0.289387 -0.157096,-0.338997 -0.21084,-0.21084 -0.262516,-0.130225 -0.942577,-0.316259 -0.21084,-0.208773 0.446484,-0.39274 0.498161,-0.31626 -0.944645,-0.28732 -0.39274,0.02687 -0.183968,0.235645 -0.235644,0.07855 -0.07855,-0.289388 0.471289,-0.365869 z"
         style="fill:#7f7f7f;fill-opacity:1;stroke-width:0.264583"
         id="path925" />
    </g>
    <g
       aria-label="4"
       id="text920"
       style="font-size:4.23333px;line-height:1.25;font-family:aaatord;-inkscape-font-specification:aaatord;display:inline;stroke-width:0.264583"
       transform="matrix(0,1,-1,-0.83909963,41.064258,52.680325)">
      <path
         d="m -6.737444,33.775198 0.1777668,0.07648 -0.1260904,2.05672 0.7090001,0.101286 q 0.1922361,-0.01654 0.3555335,-0.177767 l 0.2046385,-0.05168 0.074414,0.0248 0.051676,0.152962 -0.2542478,0.303858 -0.3038572,0.229443 -0.4072099,0.12609 -0.3803383,-0.04961 0.076481,0.558105 0.2025714,0.330729 -0.1260904,0.101285 -0.2790525,-0.07648 -0.6097813,0.101286 -0.051676,-0.05168 0.2046385,-0.58291 0.049609,-0.380338 -0.049609,-0.07648 -1.8789535,-0.254248 q 0.03514,-0.179834 0.2025714,-0.303857 l 0.3059242,-0.254248 z m -0.4816239,0.990119 -0.8888339,0.888834 h 0.2025714 l 0.7358718,0.126091 V 35.17046 q -0.00827,-0.202571 -0.049609,-0.405143 z"
         style="stroke-width:0.264583"
         id="path928" />
    </g>
    <g
       aria-label="5"
       id="text924"
       style="font-size:4.23333px;line-height:1.25;font-family:aaatord;-inkscape-font-specification:aaatord;display:inline;stroke-width:0.264583"
       transform="matrix(-0.70020754,0.70915406,-1,0,47.484763,20.823893)">
      <path
         d="m -0.96697934,33.775195 1.61230333,0.183968 0.34313122,-0.10542 0.18396799,0.05374 -0.1054199,0.132291 -0.26458309,0.183968 -0.68626244,0.21084 -0.42167934,0.02687 -1.18855693,-0.159164 -0.3431312,0.107487 v 0.816487 l 0.5539709,-0.343131 0.3700029,-0.07855 0.42167933,-0.02687 0.37000295,0.08061 0.34313122,0.132292 0.26458311,0.157096 0.23771139,0.21084 0.21083967,0.264583 0.10541983,0.343131 -0.026872,0.370003 -0.13229158,0.370003 -0.18396794,0.262516 -0.23771139,0.212907 -0.60771433,0.289388 -0.76481056,0.132291 H -2.207213 l 0.183968,-0.634586 0.053743,-0.394808 q 0.1570962,0.06408 0.2377114,0.237712 l 0.2108397,0.21084 0.3162595,0.132291 0.37000291,0.07855 h 0.44855106 l 0.34313122,-0.10542 0.23771139,-0.210839 0.10541983,-0.343132 -0.0516764,-0.396874 -0.15916328,-0.289388 -0.21083966,-0.237711 -0.23771139,-0.186035 -0.3162595,-0.130225 -0.37000298,-0.08061 -0.7131341,0.186035 -0.2893878,0.157096 q -0.097152,-0.12609 -0.1054198,-0.316259 V 34.38291 l 0.5002274,-0.396875 0.3183266,-0.132292 z"
         style="stroke-width:0.264583"
         id="path931" />
    </g>
  </g>
</svg>
