<?xml version="1.0" encoding="UTF-8" standalone="no"?>
<svg
   xmlns:dc="http://purl.org/dc/elements/1.1/"
   xmlns:cc="http://creativecommons.org/ns#"
   xmlns:rdf="http://www.w3.org/1999/02/22-rdf-syntax-ns#"
   xmlns:svg="http://www.w3.org/2000/svg"
   xmlns="http://www.w3.org/2000/svg"
   xmlns:sodipodi="http://sodipodi.sourceforge.net/DTD/sodipodi-0.dtd"
   xmlns:inkscape="http://www.inkscape.org/namespaces/inkscape"
   viewBox="0 0 25.4 25.4"
   height="96"
   width="96"
   version="1.1"
   id="svg7728"
   sodipodi:docname="die.d12White.1x1x05.svg"
   inkscape:version="1.0.2-2 (e86c870879, 2021-01-15)">
  <metadata
     id="metadata7734">
    <rdf:RDF>
      <cc:Work
         rdf:about="">
        <dc:format>image/svg+xml</dc:format>
        <dc:type
           rdf:resource="http://purl.org/dc/dcmitype/StillImage" />
      </cc:Work>
    </rdf:RDF>
  </metadata>
  <defs
     id="defs7732" />
  <sodipodi:namedview
     pagecolor="#ffffff"
     bordercolor="#666666"
     borderopacity="1"
     objecttolerance="10"
     gridtolerance="10"
     guidetolerance="10"
     inkscape:pageopacity="0"
     inkscape:pageshadow="2"
     inkscape:window-width="1965"
     inkscape:window-height="993"
     id="namedview7730"
     showgrid="false"
     inkscape:zoom="8"
     inkscape:cx="45.572375"
     inkscape:cy="50.327018"
     inkscape:window-x="0"
     inkscape:window-y="23"
     inkscape:window-maximized="0"
     inkscape:current-layer="svg7728"
     inkscape:document-rotation="0" />
  <g
     id="g862">
    <g
       aria-label="5"
       id="text924-9"
       style="font-size:7.76111px;line-height:1.25;font-family:aaatord;-inkscape-font-specification:aaatord;display:inline;stroke-width:0.264583"
       transform="translate(11.260428,-30.876648)">
      <path
         d="m 0.61533326,40.06748 2.95589144,0.337274 0.6290743,-0.19327 0.3372748,0.09853 -0.1932698,0.242535 -0.4850694,0.337275 -1.2581486,0.386539 -0.7730793,0.04926 -2.17902256,-0.291799 -0.62907434,0.197059 v 1.496894 l 1.01561399,-0.629075 0.67833919,-0.144004 0.77307932,-0.04927 0.6783392,0.147794 0.6290743,0.242535 0.4850694,0.28801 0.4358045,0.386539 0.3865396,0.48507 0.1932698,0.629074 -0.049265,0.678339 -0.2425347,0.67834 -0.3372748,0.481279 -0.4358045,0.39033 -1.1141437,0.530544 -1.40215362,0.242535 H -1.6584294 l 0.3372748,-1.163409 0.09853,-0.723814 q 0.28800996,0.117478 0.43580453,0.435804 l 0.38653965,0.38654 0.57980947,0.242535 0.67833919,0.144005 H 1.6802121 L 2.3092864,46.214218 2.7450909,45.827678 2.9383608,45.198604 2.8436207,44.471 2.5518211,43.940455 2.1652815,43.504651 1.729477,43.163586 1.1496675,42.924841 0.47132829,42.777047 l -1.30741352,0.341064 -0.53054457,0.28801 q -0.1781115,-0.231166 -0.1932699,-0.579809 v -1.644689 l 0.9170843,-0.727604 0.58359908,-0.242535 z"
         style="font-size:7.76111px;stroke-width:0.264583"
         id="path963" />
    </g>
    <g
       aria-label="0"
       id="text944"
       style="font-size:4.23333px;line-height:1.25;font-family:aaatord;-inkscape-font-specification:aaatord;display:inline;stroke-width:0.264583"
       transform="matrix(0.91693042,-1.3090569,0.16167957,0.91661151,-16.843686,26.740621)">
      <path
         d="m 34.423444,33.775195 0.363802,0.02687 0.312125,0.07648 0.235644,0.157096 0.33693,0.44235 0.10542,0.260449 0.103353,0.599446 -0.05168,0.415478 -0.208773,0.574642 -0.338997,0.44235 -0.494026,0.285253 -0.572575,0.10542 -0.363801,-0.10542 -0.417546,-0.363801 -0.157096,-0.233578 -0.181901,-0.599446 v -0.702799 l 0.235645,-0.572574 0.33693,-0.417545 0.469221,-0.287321 z m -1.61437,0.02687 q 0.14676,0.03721 0.1819,0.206706 l -0.05168,0.314192 -0.07855,1.744595 0.05168,0.702799 0.07855,0.285253 0.208773,0.417546 -0.130224,0.130224 -0.181901,-0.07855 -0.626318,0.07855 q -0.146761,-0.02067 -0.155029,-0.181901 l 0.155029,-0.208772 0.10542,-0.624251 -0.02687,-1.459341 -0.07855,-0.260449 -0.285254,-0.208773 -0.208772,0.05374 -0.130225,-0.235644 z m 1.327049,0.467155 -0.312125,0.235644 -0.157096,0.338997 -0.07648,0.44235 0.05168,0.44235 0.155029,0.390673 0.235644,0.285254 0.312126,0.183968 0.44235,0.02481 0.312125,-0.181901 0.181901,-0.363802 0.05374,-0.44235 -0.05374,-0.469222 -0.155029,-0.365868 -0.235645,-0.260449 -0.33693,-0.181901 q -0.186035,-0.06615 -0.417545,-0.07855 z"
         style="stroke-width:0.264583"
         id="path946" />
    </g>
    <path
       style="display:inline;fill:#000000;stroke-width:0.00449238"
       d="m 11.98136,20.244973 c 0.04234,-5.19e-4 0.360132,-0.01808 0.365029,-0.02017 0.0032,-0.0013 0.05945,-0.05199 0.12485,-0.112415 0.110987,-0.102611 0.123779,-0.113509 0.193978,-0.165249 0.114134,-0.08412 0.201971,-0.133237 0.480821,-0.268842 l 0.218681,-0.106349 0.218563,-0.07982 0.218564,-0.07981 h 0.03636 0.03636 l -0.01841,0.01901 c -0.01803,0.01862 -0.01825,0.02019 -0.0096,0.07642 0.0076,0.0501 0.0065,0.06655 -0.0087,0.129025 -0.0096,0.03938 -0.0312,0.109426 -0.04804,0.15565 -0.02546,0.06992 -0.03787,0.09593 -0.07387,0.15472 -0.04554,0.07439 -0.07734,0.115025 -0.168957,0.215843 -0.04031,0.04441 -0.08186,0.08405 -0.244779,0.233762 -0.107899,0.09915 -0.19961,0.18382 -0.203799,0.188146 -0.0073,0.0075 -0.01052,0.0079 -0.07101,0.0079 h -0.06339 l 0.09722,-0.10041 0.09723,-0.100411 -0.0089,-0.01946 -0.0089,-0.01946 -0.29882,-0.01792 c -0.164357,-0.0099 -0.300716,-0.01711 -0.303027,-0.01613 -0.0024,0.001 -0.02596,0.03456 -0.05276,0.07462 l -0.04857,0.07283 -0.01752,0.07535 c -0.01538,0.06612 -0.01649,0.08376 -0.0091,0.143922 0.0083,0.06742 0.0092,0.06943 0.04984,0.119495 0.03928,0.04835 0.04301,0.05125 0.07362,0.05723 0.03158,0.0062 0.05262,0.0054 0.111042,-0.0047 0.0099,-0.0017 0.0077,0.0016 -0.02295,0.0332 l -0.03399,0.0351 -0.115719,0.06631 -0.115719,0.06631 -0.02516,7.2e-5 -0.02516,7.2e-5 0.02845,-0.02961 0.02844,-0.0296 -0.05953,-0.07831 c -0.05904,-0.07767 -0.05974,-0.07909 -0.0851,-0.173821 -0.02496,-0.09322 -0.02537,-0.09796 -0.01699,-0.197812 l 0.0086,-0.102307 0.03583,-0.06359 c 0.01971,-0.03498 0.03552,-0.06435 0.03515,-0.06528 -4.8e-4,-0.0012 -0.31567,-0.03677 -0.344225,-0.0389 -6.76e-4,-4.3e-5 0.0063,-0.0078 0.01543,-0.01728 0.01475,-0.01524 0.01806,-0.0172 0.02867,-0.01734 z m 0.676104,-0.019 c 0.01674,-2.9e-5 0.164487,-0.0034 0.328285,-0.0076 0.163796,-0.0041 0.31512,-0.0076 0.336206,-0.0076 l 0.03834,-4.3e-5 0.09216,-0.09518 0.09216,-0.09518 0.02427,-0.05247 c 0.01335,-0.02886 0.03098,-0.0782 0.0392,-0.109667 0.01487,-0.05698 0.01486,-0.05731 -0.0049,-0.08539 -0.0109,-0.01551 -0.02341,-0.02819 -0.02781,-0.02819 -0.0044,0 -0.03145,0.0038 -0.06012,0.0084 l -0.05212,0.0084 -0.202285,0.0862 -0.202283,0.0862 -0.116793,0.06876 c -0.11599,0.06828 -0.117436,0.06927 -0.210755,0.141348 -0.05168,0.03992 -0.09623,0.07473 -0.09901,0.07736 -0.0035,0.0034 0.0043,0.0048 0.02541,0.0047 z m 1.026299,-1.068382 c 0.02021,-0.0084 0.06884,-0.02125 0.157626,-0.0417 0.122326,-0.02816 0.133589,-0.03141 0.238274,-0.06876 l 0.109878,-0.0392 0.161217,-0.100567 0.161217,-0.100566 h 0.02787 0.02787 l 0.03386,0.173438 0.03387,0.17344 -0.06974,0.05959 c -0.03834,0.03278 -0.0719,0.06174 -0.07452,0.06437 -0.0035,0.0034 -0.01841,0.0048 -0.05496,0.0048 -0.02761,0 -0.04895,-0.0013 -0.04745,-0.0029 0.0015,-0.0016 0.01612,-0.02377 0.03245,-0.04931 l 0.02974,-0.04644 -0.0056,-0.04429 -0.0056,-0.0443 h -0.02646 c -0.02462,0 -0.03073,0.0016 -0.08807,0.02334 -0.03388,0.01284 -0.0654,0.02615 -0.07004,0.02961 -0.0047,0.0034 -0.0257,0.02003 -0.04678,0.03684 -0.02107,0.01681 -0.04195,0.0332 -0.04629,0.03643 -0.0054,0.0039 -0.0024,0.0095 0.0092,0.01681 0.01514,0.0097 0.0179,0.02171 0.02375,0.10301 0.0052,0.07256 0.0034,0.113112 -0.0086,0.191388 -0.01384,0.09016 -0.01926,0.109604 -0.05868,0.210748 l -0.04343,0.111422 -0.07272,0.08914 c -0.108922,0.133526 -0.141163,0.170356 -0.256844,0.293523 -0.09129,0.09717 -0.118027,0.123752 -0.194403,0.192921 -0.148482,0.134571 -0.325588,0.271644 -0.533069,0.412585 -0.131127,0.08907 -0.167808,0.111909 -0.5447,0.339033 l -0.404106,0.243528 -0.06445,0.06656 -0.06445,0.06656 0.02052,0.0065 c 0.01757,0.0055 0.02592,0.0058 0.05791,0.0019 0.02055,-0.0024 0.04155,-0.0058 0.04665,-0.0074 0.0071,-0.0023 0.0184,-0.01487 0.04977,-0.05605 0.02232,-0.02924 0.04378,-0.05783 0.04773,-0.06352 l 0.0072,-0.01036 0.03553,0.01143 c 0.02982,0.0096 0.04248,0.01125 0.07873,0.01035 l 0.04322,-0.0011 -0.01906,0.03161 c -0.01166,0.01927 -0.02095,0.04357 -0.02386,0.06225 -0.0027,0.01686 -0.0066,0.03141 -0.0088,0.03234 -0.0022,9.23e-4 -0.06267,0.01705 -0.134372,0.03582 -0.123684,0.03236 -0.136594,0.03648 -0.251479,0.08027 -0.0666,0.02538 -0.124652,0.04604 -0.128983,0.04592 -0.0044,-1.31e-4 -0.0182,-0.0039 -0.03075,-0.0086 l -0.02287,-0.0084 0.02028,-0.04967 c 0.01116,-0.02731 0.0281,-0.08945 0.03766,-0.138068 l 0.01738,-0.0884 -0.04292,-0.09049 c -0.0236,-0.04977 -0.04225,-0.09118 -0.04144,-0.09202 7.7e-4,-7.96e-4 0.01467,-0.0051 0.03086,-0.0095 l 0.02938,-0.008 0.03587,0.0238 c 0.01972,0.0131 0.03811,0.02517 0.04085,0.02684 0.0028,0.0017 0.02786,0.0075 0.05581,0.0129 0.04125,0.008 0.05289,0.0089 0.06189,0.005 0.006,-0.0027 0.09468,-0.05025 0.196883,-0.105642 0.150818,-0.08174 0.224854,-0.124276 0.392805,-0.225668 l 0.206959,-0.124942 0.239813,-0.167815 0.239813,-0.167816 0.07907,-0.07068 c 0.04344,-0.03887 0.137311,-0.126545 0.208502,-0.194831 0.115669,-0.11099 0.138035,-0.133881 0.210997,-0.215843 l 0.08158,-0.09168 0.04163,-0.08869 c 0.02633,-0.05609 0.0516,-0.121043 0.06875,-0.176709 0.02315,-0.07513 0.02763,-0.100466 0.03062,-0.173 l 0.0035,-0.08498 -0.04626,-0.109586 -0.04627,-0.109584 -0.0321,-0.01336 c -0.02827,-0.01175 -0.04115,-0.01394 -0.107959,-0.01839 l -0.07585,-0.005 z"
       id="path1450-4" />
    <g
       aria-label="9"
       id="text940"
       style="font-size:4.23333px;line-height:1.25;font-family:aaatord;-inkscape-font-specification:aaatord;display:inline;stroke-width:0.264583"
       transform="matrix(-0.70020754,-1,1,0,0.40247892,33.04026)">
      <path
         d="m 26.267595,33.775195 0.504362,0.06821 0.388606,0.183968 0.322461,0.274918 0.227376,0.320394 0.138493,0.436149 -0.02274,0.413411 -0.206705,0.504361 -0.252181,0.320394 -0.320394,0.252181 -0.367935,0.206705 -0.434082,0.136426 -0.367936,0.02274 -1.008723,-0.434082 0.297656,-0.183968 q 0.155029,-0.08682 0.274918,-0.274918 l 0.206706,-0.09302 v 0.276986 q 0.07441,0.173632 0.252181,0.320393 l 0.229443,0.04548 h 0.252181 l 0.343131,-0.206705 0.229443,-0.343131 0.138493,-0.436149 0.02274,-0.274918 -0.665592,0.16123 -0.527099,0.04547 -0.436149,-0.138493 -0.320393,-0.25218 -0.206706,-0.365869 q 0.0041,-0.225309 0.115755,-0.458887 l 0.343132,-0.25218 0.390673,-0.161231 z m -0.25218,0.229443 -0.206706,0.136426 -0.115755,0.229443 0.02274,0.299723 0.09302,0.227376 0.159163,0.161231 0.206706,0.138492 0.252181,0.06821 0.32246,-0.02274 0.227377,-0.09302 0.07028,-0.204638 -0.09302,-0.229443 -0.274918,-0.390674 -0.411345,-0.252181 z m 1.215428,3.11712 0.136426,0.02274 -0.06821,0.138492 -0.183968,0.159164 -0.252181,0.09302 -0.297656,0.04547 -0.94051,-0.09095 -0.365869,0.113688 0.06821,-0.16123 0.183968,-0.159164 0.252181,-0.09302 0.297656,-0.04548 0.595312,0.09302 H 27.0014 q 0.113688,-0.03721 0.229443,-0.115755 z"
         style="stroke-width:0.264583"
         id="path943" />
    </g>
    <g
       aria-label="11"
       id="text948"
       style="font-size:4.23333px;line-height:1.25;font-family:aaatord;-inkscape-font-specification:aaatord;display:inline;fill:#7f7f7f;fill-opacity:1;stroke-width:0.264583"
       transform="matrix(-1,0.36397023,0.46630766,-1,32.049491,27.389491)">
      <path
         d="m 39.904521,33.775195 q 0.140559,0.02274 0.169498,0.169499 l -0.09715,2.519741 0.11989,0.630451 0.219108,0.411344 -0.07235,0.07235 -0.291455,-0.04754 -0.677994,0.07235 -0.146761,-0.04754 0.04961,-0.146761 0.144694,-0.217041 0.07235,-0.316259 0.04961,-1.45314 -0.121956,-0.605648 -0.219108,-0.169498 -0.314192,0.04754 -0.09715,-0.04754 v -0.219108 l 0.508496,-0.217041 z"
         style="fill:#7f7f7f;fill-opacity:1;stroke-width:0.264583"
         id="path949" />
      <path
         d="m 42.258897,33.775195 q 0.14056,0.02274 0.169498,0.169499 l -0.09715,2.519741 0.119889,0.630451 0.219108,0.411344 -0.07235,0.07235 -0.291455,-0.04754 -0.677994,0.07235 -0.146761,-0.04754 0.04961,-0.146761 0.144694,-0.217041 0.07235,-0.316259 0.04961,-1.45314 -0.121956,-0.605648 -0.219108,-0.169498 -0.314192,0.04754 -0.09715,-0.04754 v -0.219108 l 0.508496,-0.217041 z"
         style="fill:#7f7f7f;fill-opacity:1;stroke-width:0.264583"
         id="path951" />
    </g>
    <g
       aria-label="6"
       id="text928"
       style="font-size:4.23333px;line-height:1.25;font-family:aaatord;-inkscape-font-specification:aaatord;display:inline;stroke-width:0.264583"
       transform="matrix(0,1,-1,-0.83909963,41.18461,38.966535)">
      <path
         d="m 6.0602555,33.775198 0.2749184,0.02274 0.8722975,0.183968 -0.2067056,0.183968 -0.4361487,0.527099 -0.045475,-0.16123 q -0.062012,-0.192239 -0.252181,-0.320397 l -0.2294432,-0.04547 -0.2542478,0.02274 -0.3431312,0.252181 -0.1612303,0.413411 -0.068213,0.504361 0.045475,0.274919 0.9405103,-0.436149 0.5291662,-0.04548 0.4113441,0.159163 0.299723,0.276985 0.09095,0.229444 v 0.229443 L 7.2756842,36.390023 6.9552906,36.642204 6.5873547,36.848909 6.1284684,36.962597 5.6013692,36.917122 5.2106957,36.733154 4.8903021,36.480973 4.7518094,36.32181 4.6608589,36.115105 4.5451038,35.656218 V 35.265545 L 4.774547,34.783921 5.0039902,34.44079 5.3016462,34.165871 5.6468444,33.936428 Z m -0.022738,1.71979 -0.2769854,0.07028 -0.2294432,0.113688 -0.1591632,0.16123 0.2521807,0.411344 0.3658689,0.276986 0.2521807,0.09095 0.2997231,0.02274 0.2294432,-0.09095 0.09095,-0.25218 L 6.8167973,36.02209 6.7010422,35.792647 6.3124357,35.540466 Z m 0.892968,1.606102 0.1384928,0.02274 -0.068213,0.138492 -0.1839679,0.159164 -0.2521808,0.09302 -0.297656,0.04547 -0.9425773,-0.09095 -0.3658689,0.113688 0.068213,-0.16123 0.1839679,-0.159164 0.2521808,-0.09302 0.297656,-0.04547 0.597379,0.09095 h 0.3431313 q 0.1157551,-0.03514 0.2294431,-0.113688 z"
         style="stroke-width:0.264583"
         id="path934" />
    </g>
  </g>
</svg>
