<?xml version="1.0" encoding="UTF-8" standalone="no"?>
<svg
   xmlns:dc="http://purl.org/dc/elements/1.1/"
   xmlns:cc="http://creativecommons.org/ns#"
   xmlns:rdf="http://www.w3.org/1999/02/22-rdf-syntax-ns#"
   xmlns:svg="http://www.w3.org/2000/svg"
   xmlns="http://www.w3.org/2000/svg"
   xmlns:sodipodi="http://sodipodi.sourceforge.net/DTD/sodipodi-0.dtd"
   xmlns:inkscape="http://www.inkscape.org/namespaces/inkscape"
   viewBox="0 0 25.4 25.4"
   height="96"
   width="96"
   version="1.1"
   id="svg2015"
   sodipodi:docname="die.torD6White.1x1x5.svg"
   inkscape:version="1.0.2-2 (e86c870879, 2021-01-15)">
  <metadata
     id="metadata2021">
    <rdf:RDF>
      <cc:Work
         rdf:about="">
        <dc:format>image/svg+xml</dc:format>
        <dc:type
           rdf:resource="http://purl.org/dc/dcmitype/StillImage" />
        <dc:title />
      </cc:Work>
    </rdf:RDF>
  </metadata>
  <defs
     id="defs2019" />
  <sodipodi:namedview
     pagecolor="#ffffff"
     bordercolor="#666666"
     borderopacity="1"
     objecttolerance="10"
     gridtolerance="10"
     guidetolerance="10"
     inkscape:pageopacity="0"
     inkscape:pageshadow="2"
     inkscape:window-width="1582"
     inkscape:window-height="855"
     id="namedview2017"
     showgrid="false"
     inkscape:zoom="4.8670845"
     inkscape:cx="53.980549"
     inkscape:cy="49.335897"
     inkscape:window-x="979"
     inkscape:window-y="785"
     inkscape:window-maximized="0"
     inkscape:current-layer="svg2015"
     inkscape:document-rotation="0" />
  <g
     aria-label="5"
     id="text2586"
     style="font-style:normal;font-weight:normal;font-size:10.5833px;line-height:1.25;font-family:sans-serif;fill:#000000;fill-opacity:1;stroke:none;stroke-width:0.529167;stroke-miterlimit:4;stroke-dasharray:none"
     transform="matrix(0.8,0,0,0.8,2.54,2.54)">
    <path
       d="M 10.901664,5.0436348 17.35087,5.7795057 18.723393,5.3578269 19.459264,5.5728004 19.037585,6.101966 17.979254,6.837837 15.234207,7.6811947 13.547492,7.7886815 8.7932691,7.1520291 7.4207461,7.5819761 V 10.84792 l 2.215881,-1.3725231 1.4800099,-0.3141921 1.686716,-0.1074868 1.48001,0.3224603 1.372523,0.5291657 1.058331,0.628384 0.950845,0.843358 0.843357,1.058331 0.421679,1.372523 -0.107486,1.48001 -0.529166,1.48001 -0.735871,1.050064 -0.950845,0.851625 -2.430854,1.15755 -3.059239,0.529166 H 5.9407359 l 0.735871,-2.538341 0.2149735,-1.579229 q 0.6283837,0.256314 0.9508447,0.950844 l 0.843358,0.843358 1.265036,0.529166 1.4800099,0.314192 h 1.794202 l 1.372524,-0.421679 0.950844,-0.843358 0.421679,-1.372523 -0.206705,-1.587497 -0.636653,-1.15755 -0.843357,-0.950844 -0.950845,-0.744139 -1.265036,-0.520898 -1.480011,-0.32246 -2.8525329,0.744139 -1.1575498,0.628384 Q 6.1887823,11.823569 6.1557095,11.062894 V 7.4744894 L 8.1566171,5.8869925 9.4299221,5.3578269 Z"
       style="font-style:normal;font-variant:normal;font-weight:normal;font-stretch:normal;font-size:16.9333px;font-family:aaatord;-inkscape-font-specification:aaatord;fill:#000000;stroke:none;stroke-width:0.529167;stroke-miterlimit:4;stroke-dasharray:none;stroke-opacity:1"
       id="path831" />
  </g>
</svg>
