<?xml version="1.0" encoding="UTF-8" standalone="no"?>
<svg
   xmlns:dc="http://purl.org/dc/elements/1.1/"
   xmlns:cc="http://creativecommons.org/ns#"
   xmlns:rdf="http://www.w3.org/1999/02/22-rdf-syntax-ns#"
   xmlns:svg="http://www.w3.org/2000/svg"
   xmlns="http://www.w3.org/2000/svg"
   xmlns:sodipodi="http://sodipodi.sourceforge.net/DTD/sodipodi-0.dtd"
   xmlns:inkscape="http://www.inkscape.org/namespaces/inkscape"
   viewBox="0 0 25.4 25.4"
   height="96"
   width="96"
   version="1.1"
   id="svg7694"
   sodipodi:docname="die.d12White.1x1x04.svg"
   inkscape:version="1.0.2-2 (e86c870879, 2021-01-15)">
  <metadata
     id="metadata7700">
    <rdf:RDF>
      <cc:Work
         rdf:about="">
        <dc:format>image/svg+xml</dc:format>
        <dc:type
           rdf:resource="http://purl.org/dc/dcmitype/StillImage" />
      </cc:Work>
    </rdf:RDF>
  </metadata>
  <defs
     id="defs7698" />
  <sodipodi:namedview
     pagecolor="#ffffff"
     bordercolor="#666666"
     borderopacity="1"
     objecttolerance="10"
     gridtolerance="10"
     guidetolerance="10"
     inkscape:pageopacity="0"
     inkscape:pageshadow="2"
     inkscape:window-width="1993"
     inkscape:window-height="983"
     id="namedview7696"
     showgrid="false"
     inkscape:zoom="6.96875"
     inkscape:cx="48"
     inkscape:cy="47.426009"
     inkscape:window-x="0"
     inkscape:window-y="23"
     inkscape:window-maximized="0"
     inkscape:current-layer="svg7694"
     inkscape:document-rotation="0" />
  <g
     id="g860">
    <g
       aria-label="4"
       id="text920-9"
       style="font-size:7.76111px;line-height:1.25;font-family:aaatord;-inkscape-font-specification:aaatord;display:inline;stroke-width:0.264583"
       transform="translate(18.140654,-30.874936)">
      <path
         d="m -4.6031515,40.084708 0.325906,0.140215 -0.2311658,3.770656 1.2998343,0.185691 q 0.3524332,-0.03032 0.6518119,-0.325906 l 0.3751709,-0.09474 0.1364257,0.04548 0.09474,0.280431 -0.4661213,0.557072 -0.5570719,0.420646 -0.746552,0.231166 -0.6972872,-0.09095 0.1402153,1.023193 0.3713813,0.606337 -0.2311659,0.185691 -0.5115966,-0.140216 -1.1179333,0.185691 -0.09474,-0.09474 0.3751708,-1.068669 0.09095,-0.697287 -0.09095,-0.140215 -3.4447504,-0.466122 q 0.064423,-0.329695 0.3713812,-0.557071 l 0.5608615,-0.466122 z m -0.8829778,1.81522 -1.6295299,1.62953 h 0.3713812 l 1.3490992,0.231166 V 42.64269 q -0.015158,-0.371381 -0.09095,-0.742762 z"
         style="font-size:7.76111px;stroke-width:0.264583"
         id="path960" />
    </g>
    <g
       aria-label="6"
       id="text928"
       style="font-size:4.23333px;line-height:1.25;font-family:aaatord;-inkscape-font-specification:aaatord;display:inline;stroke-width:0.264583"
       transform="matrix(1,-1.428148,0.17632698,1,7.8489596,-12.188601)">
      <path
         d="m 6.0602555,33.775198 0.2749184,0.02274 0.8722975,0.183968 -0.2067056,0.183968 -0.4361487,0.527099 -0.045475,-0.16123 q -0.062012,-0.192239 -0.252181,-0.320397 l -0.2294432,-0.04547 -0.2542478,0.02274 -0.3431312,0.252181 -0.1612303,0.413411 -0.068213,0.504361 0.045475,0.274919 0.9405103,-0.436149 0.5291662,-0.04548 0.4113441,0.159163 0.299723,0.276985 0.09095,0.229444 v 0.229443 L 7.2756842,36.390023 6.9552906,36.642204 6.5873547,36.848909 6.1284684,36.962597 5.6013692,36.917122 5.2106957,36.733154 4.8903021,36.480973 4.7518094,36.32181 4.6608589,36.115105 4.5451038,35.656218 V 35.265545 L 4.774547,34.783921 5.0039902,34.44079 5.3016462,34.165871 5.6468444,33.936428 Z m -0.022738,1.71979 -0.2769854,0.07028 -0.2294432,0.113688 -0.1591632,0.16123 0.2521807,0.411344 0.3658689,0.276986 0.2521807,0.09095 0.2997231,0.02274 0.2294432,-0.09095 0.09095,-0.25218 L 6.8167973,36.02209 6.7010422,35.792647 6.3124357,35.540466 Z m 0.892968,1.606102 0.1384928,0.02274 -0.068213,0.138492 -0.1839679,0.159164 -0.2521808,0.09302 -0.297656,0.04547 -0.9425773,-0.09095 -0.3658689,0.113688 0.068213,-0.16123 0.1839679,-0.159164 0.2521808,-0.09302 0.297656,-0.04547 0.597379,0.09095 h 0.3431313 q 0.1157551,-0.03514 0.2294431,-0.113688 z"
         style="stroke-width:0.264583"
         id="path934" />
    </g>
    <g
       aria-label="2"
       id="text892"
       style="font-size:4.23333px;line-height:1.25;font-family:aaatord;-inkscape-font-specification:aaatord;display:inline;stroke-width:0.264583"
       transform="matrix(-0.76799031,0.80811482,-1.0968038,0,36.078894,36.909459)">
      <path
         d="m -21.130912,33.775198 h 0.394807 l 0.322461,0.04961 0.272851,0.124023 0.171566,0.196371 0.124023,0.272851 v 0.345198 l -0.223242,0.545703 -0.667659,0.864029 -0.76481,0.61805 1.087271,0.198437 h 0.692464 l 0.297656,-0.07441 0.121956,-0.272851 0.07441,-0.07235 0.173633,0.07235 0.04961,0.248046 -0.02481,0.07441 -0.667659,0.494027 -0.272851,0.09922 -0.370003,0.02481 -1.632974,-0.272851 -0.56844,0.07441 -0.02481,-0.07441 0.444417,-0.345199 0.965315,-0.965314 0.494026,-0.665592 0.04961,-0.297656 -0.04961,-0.345199 -0.121956,-0.248046 -0.173633,-0.223242 -0.272851,-0.09922 -0.320394,0.04961 -0.272851,0.124024 -0.04961,0.248046 0.07441,0.270785 -0.173633,0.223242 -0.223242,-0.124024 -0.04754,-0.245979 0.121956,-0.347266 0.173633,-0.223242 0.248046,-0.146761 z"
         style="stroke-width:0.264583"
         id="path922" />
    </g>
    <path
       style="display:inline;fill:#000000;stroke-width:0.00656012"
       d="m 4.3934029,12.961345 c 0.04184,0.05303 0.34262,0.404756 0.3455,0.404041 0.0019,-4.71e-4 0.0091,-0.09911 0.016,-0.219012 0.01163,-0.203761 0.01387,-0.224098 0.03397,-0.308422 0.03268,-0.137102 0.07296,-0.189711 0.220506,-0.287963 l 0.115704,-0.07706 0.141276,0.01266 0.141277,0.01266 0.03636,0.04706 0.03636,0.04705 v 0.04054 c 0,0.0397 0.0013,0.04473 0.06437,0.246263 0.05615,0.179484 0.07098,0.233756 0.116264,0.425568 0.02855,0.120928 0.07475,0.330058 0.102671,0.464758 0.04224,0.203753 0.05501,0.275726 0.07594,0.428182 0.0265,0.192931 0.03404,0.289327 0.04004,0.512072 0.0027,0.09819 -4.78e-4,0.178604 -0.01843,0.47463 -0.01189,0.196049 -0.02162,0.364003 -0.02162,0.373226 0,0.016 -0.0029,0.01294 -0.06339,-0.06525 l -0.06339,-0.08203 v -0.214115 -0.214116 l -0.02774,-0.0774 -0.02774,-0.0774 -0.316171,-0.447311 c -0.173894,-0.246008 -0.317283,-0.447024 -0.318641,-0.446683 -0.0014,3.46e-4 0.0075,0.0834 0.01949,0.184335 l 0.02195,0.183708 0.05544,0.232418 c 0.04864,0.203925 0.06461,0.262204 0.13028,0.475471 0.0736,0.238996 0.07637,0.24685 0.165541,0.469006 0.0861,0.214507 0.09263,0.22914 0.129033,0.288996 0.0376,0.06191 0.0578,0.08619 0.106491,0.127772 0.0083,0.0073 0.0092,0.01526 0.0092,0.08269 v 0.07485 l -0.05151,0.07476 -0.05151,0.07476 -0.02509,-0.0323 -0.02509,-0.03229 -2.23e-4,-0.06343 -2.25e-4,-0.06342 -0.135361,-0.342142 c -0.134255,-0.339352 -0.136323,-0.345054 -0.253411,-0.698552 -0.115223,-0.347862 -0.120218,-0.364433 -0.208528,-0.691634 l -0.09048,-0.33523 -0.02575,-0.168925 c -0.01416,-0.09291 -0.02679,-0.171889 -0.02806,-0.175507 -0.0016,-0.0045 -0.351269,-0.532908 -0.381889,-0.577078 -7.18e-4,-0.001 -0.0013,-0.01837 -0.0013,-0.03852 0,-0.03249 0.0014,-0.03486 0.01188,-0.0216 z m 0.65771,0.810513 c 0.01671,0.02156 0.161126,0.201082 0.320932,0.399067 0.159805,0.197986 0.307789,0.38211 0.328854,0.409317 l 0.0383,0.04946 v -0.202959 -0.202959 l -0.02653,-0.1462 c -0.01459,-0.0804 -0.04474,-0.224653 -0.06699,-0.320534 -0.04031,-0.17367 -0.04063,-0.174776 -0.08755,-0.29537 -0.02591,-0.06659 -0.0507,-0.125706 -0.0551,-0.131398 -0.0044,-0.0056 -0.02781,-0.02797 -0.05203,-0.04953 l -0.04403,-0.03915 -0.118819,0.03006 -0.118818,0.03007 -0.05021,0.08166 c -0.04987,0.08108 -0.05037,0.08252 -0.07389,0.205802 -0.01302,0.06829 -0.02387,0.128466 -0.0241,0.133771 -2.89e-4,0.0068 0.0089,0.0217 0.02996,0.04879 z m -0.0082,-2.28883 c 0.01208,-0.0023 0.04826,0.01713 0.117252,0.06279 0.09506,0.06294 0.103172,0.06651 0.171691,0.07552 l 0.07192,0.0094 0.06384,-0.131845 0.06384,-0.131843 0.02787,0.03605 0.02787,0.03606 0.201802,0.630954 0.201804,0.63096 -0.01204,0.111503 c -0.0066,0.06136 -0.01212,0.115968 -0.01219,0.121484 -10e-5,0.0073 -0.01379,-0.0077 -0.05034,-0.05496 -0.02761,-0.03573 -0.05021,-0.06775 -0.05025,-0.07118 -4e-5,-0.0033 -0.0069,-0.05962 -0.01529,-0.12492 l -0.01523,-0.11875 -0.0485,-0.157203 -0.04851,-0.157218 -0.02646,-0.03423 c -0.02462,-0.03186 -0.02919,-0.03436 -0.06547,-0.03496 -0.02145,-3.83e-4 -0.04007,0.0039 -0.04137,0.0095 -0.0013,0.0056 -0.0063,0.03455 -0.01111,0.06418 -0.0048,0.02962 -0.0098,0.05811 -0.01101,0.06344 -0.0015,0.0065 0.0068,0.02899 0.02546,0.06879 0.0245,0.05231 0.03892,0.09666 0.123491,0.379446 0.07547,0.252362 0.112908,0.387291 0.176682,0.636727 0.07346,0.287317 0.08687,0.346121 0.145381,0.637508 l 0.06446,0.321003 0.01359,0.207667 c 0.02037,0.311087 0.02379,0.394047 0.02737,0.661322 0.0028,0.210822 0.0018,0.266216 -0.0076,0.40155 -0.01818,0.263435 -0.06256,0.498306 -0.133569,0.706971 -0.04488,0.131859 -0.05945,0.161707 -0.21642,0.442924 l -0.168302,0.30153 v 0.141928 0.141928 l 0.02675,0.04835 c 0.02289,0.04135 0.03152,0.05312 0.0598,0.08155 0.01817,0.01827 0.03595,0.03419 0.03949,0.03535 0.0049,0.0016 0.004,-0.02652 -0.0045,-0.12535 -0.006,-0.07012 -0.01221,-0.139121 -0.01378,-0.153276 l -0.0028,-0.0257 0.04659,0.08464 c 0.0391,0.07102 0.05338,0.09306 0.08876,0.136932 l 0.04217,0.05226 0.01155,0.08234 c 0.007,0.05014 0.02124,0.120388 0.03641,0.17985 0.01366,0.05361 0.02379,0.09775 0.0225,0.09806 -0.0013,3.21e-4 -0.04616,-0.02338 -0.09969,-0.05261 -0.09235,-0.05049 -0.101269,-0.05324 -0.17376,-0.05368 -0.04202,-2.47e-4 -0.08007,-0.0054 -0.08452,-0.01144 -0.0045,-0.0063 -0.02205,-0.03701 -0.03908,-0.0689 l -0.03097,-0.05792 -0.02781,-0.141884 c -0.01529,-0.07803 -0.05851,-0.26644 -0.09603,-0.418672 l -0.06822,-0.276781 -0.130539,-0.361875 c -0.0718,-0.19904 -0.13054,-0.363345 -0.13054,-0.365137 0,-0.0018 0.0097,0.0016 0.02164,0.0077 l 0.02165,0.01083 0.05892,0.127001 c 0.0324,0.06985 0.06248,0.134527 0.06684,0.143718 0.0044,0.0093 0.03509,0.06133 0.06829,0.115848 0.049,0.08048 0.06155,0.0987 0.06665,0.09674 0.0034,-0.0013 0.04602,-0.04761 0.09459,-0.10288 0.07167,-0.08157 0.10452,-0.129763 0.174294,-0.255694 l 0.08598,-0.155176 0.07732,-0.257803 0.07732,-0.257806 0.01064,-0.136931 c 0.0058,-0.07536 0.01478,-0.250721 0.01985,-0.389773 0.0082,-0.226065 0.0084,-0.27462 0.002,-0.457677 l -0.0072,-0.204826 -0.04424,-0.246355 c -0.02798,-0.155804 -0.0656,-0.342995 -0.102351,-0.50925 -0.0496,-0.224391 -0.06965,-0.304353 -0.136898,-0.546038 l -0.07879,-0.283149 -0.152373,-0.430839 -0.152374,-0.430836 -0.04503,-0.08674 c -0.03965,-0.07636 -0.05466,-0.10046 -0.125772,-0.201966 l -0.08075,-0.115271 z"
       id="path1450-4" />
    <g
       aria-label="8"
       id="text936"
       style="font-size:4.23333px;line-height:1.25;font-family:aaatord;-inkscape-font-specification:aaatord;display:inline;fill:#7f7f7f;fill-opacity:1;stroke-width:0.264583"
       transform="matrix(-1,0.36397023,0.46630766,-1,10.908685,34.829565)">
      <path
         d="m 19.998971,33.775198 h 0.398941 l 0.401009,0.250113 0.1757,0.376205 v 0.351399 l -0.250114,0.401009 -0.299723,0.198437 -0.276985,0.05168 0.551904,0.148828 0.299723,0.225309 0.175699,0.351399 v 0.376204 l -0.225309,0.401009 -0.299723,0.225309 -0.326595,0.1757 -0.802017,0.250113 -0.398942,0.02481 -0.527099,-0.09922 -0.324528,-0.227376 -0.150895,-0.349332 -0.0248,-0.225309 0.04961,-0.225309 0.1757,-0.3514 0.274918,-0.250113 0.326595,-0.1757 -0.3514,-0.1757 -0.225309,-0.299723 -0.0248,-0.401009 0.225309,-0.401008 0.299723,-0.225309 0.351399,-0.1757 z m -0.702799,0.376204 q -0.144694,0.152962 -0.148828,0.401009 0.03307,0.181901 0.1757,0.374137 l 0.324527,0.227376 0.401009,0.148828 0.124023,-0.401009 -0.148828,-0.401009 -0.30179,-0.250113 q -0.183968,-0.06408 -0.425813,-0.09922 z m -0.225309,1.577163 -0.148828,0.225309 -0.101286,0.276986 0.05168,0.299723 0.148828,0.200504 0.450619,0.274919 0.30179,0.07648 0.324527,0.0248 q 0.124024,-0.03514 0.200505,-0.150895 l 0.0248,-0.326595 -0.07441,-0.299723 -0.326594,-0.376204 -0.250114,-0.124023 -0.274918,-0.07648 z"
         style="fill:#7f7f7f;fill-opacity:1;stroke-width:0.264583"
         id="path940" />
    </g>
    <g
       aria-label="3"
       id="text892-4"
       style="font-size:4.23333px;line-height:1.25;font-family:aaatord;-inkscape-font-specification:aaatord;display:inline;stroke-width:0.264583"
       transform="matrix(-0.70020754,-1,1,0,-28.309275,-7.5113176)">
      <path
         d="m -14.955303,33.775195 0.39274,0.02687 0.655257,0.208773 0.367936,0.02687 0.60358,-0.07855 0.05168,0.10542 -0.733805,0.522965 -0.341064,0.341064 0.706933,0.132292 0.551903,0.287321 0.208773,0.183967 0.157096,0.262517 0.02687,0.39274 -0.07855,0.341064 -0.130225,0.287321 -0.446484,0.394808 -0.576708,0.235644 -0.709,0.130224 -1.205094,0.02687 -0.289387,-0.07855 0.157096,-0.262516 0.132291,-0.706933 0.365869,0.419612 0.262516,0.157096 0.314193,0.103353 h 0.760676 l 0.314193,-0.103353 0.237711,-0.183967 0.130225,-0.262517 0.02687,-0.289387 -0.157096,-0.338997 -0.21084,-0.21084 -0.262516,-0.130225 -0.942577,-0.316259 -0.21084,-0.208773 0.446484,-0.39274 0.498161,-0.31626 -0.944645,-0.28732 -0.39274,0.02687 -0.183968,0.235645 -0.235644,0.07855 -0.07855,-0.289388 0.471289,-0.365869 z"
         style="stroke-width:0.264583"
         id="path925" />
    </g>
  </g>
</svg>
